<?xml version="1.0" standalone="no"?>
<!DOCTYPE svg PUBLIC "-//W3C//DTD SVG 1.1//EN" "http://www.w3.org/Graphics/SVG/1.1/DTD/svg11.dtd" >
<svg>
<metadata>
Created by FontForge 20110222 at Mon Mar 11 01:29:41 2013
 By Orthosie Webmaster
vernon adams 2011
</metadata>
<defs>
<font id="AmaticBold" horiz-adv-x="621" >
  <font-face 
    font-family="AmaticBold"
    font-weight="700"
    font-stretch="condensed"
    units-per-em="2048"
    panose-1="2 0 8 3 0 0 0 0 0 0"
    ascent="1638"
    descent="-410"
    x-height="1357"
    cap-height="1553"
    bbox="-195 -550 1560 2219"
    underline-thickness="102"
    underline-position="-204"
    unicode-range="U+0020-2212"
  />
<missing-glyph horiz-adv-x="233" 
 />
    <glyph glyph-name=".notdef" horiz-adv-x="233" 
 />
    <glyph glyph-name=".null" horiz-adv-x="0" 
 />
    <glyph glyph-name="nonmarkingreturn" horiz-adv-x="682" 
 />
    <glyph glyph-name="space" unicode=" " horiz-adv-x="233" 
 />
    <glyph glyph-name="exclam" unicode="!" horiz-adv-x="286" 
d="M210 26q0 -72 -101 -72q-23 0 -45.5 21.5t-22.5 57t25 64t62 28.5t59.5 -29t22.5 -70zM182 543l2 -97q0 -140 -38 -140q-21 0 -38.5 50t-17.5 126l8 339l-10 672q0 32 27 55.5t54 23.5t41.5 -14.5t14.5 -35.5q0 -164 -21.5 -490t-21.5 -489z" />
    <glyph glyph-name="quotedbl" unicode="&#x22;" horiz-adv-x="359" 
d="M175 1193q-9 0 -19 128.5t-10 209.5q0 20 19.5 33.5t43 13.5t32.5 -47q-3 -98 -20 -218t-39 -120h-7zM50 1525l1 -14q0 -89 -23.5 -203.5t-51.5 -114.5h-7q-9 0 -9 338q0 20 13 33.5t28 13.5q42 0 49 -53z" />
    <glyph glyph-name="numbersign" unicode="#" horiz-adv-x="748" 
d="M570 698l21 1q85 0 85 -62h1q-1 -51 -78 -51h-6l-30 1q-5 -71 -21 -197q-34 -279 -35 -429l-35 -42q-71 0 -71 44q0 110 31 316t34 302q-47 4 -142 4l-50 -3q-3 -20 -8 -103.5t-12 -171.5q-7 -87 -18 -179q-25 -207 -73 -208q-21 0 -39.5 12t-18.5 32q0 246 71 612
q-45 -5 -60 -5q-85 0 -85 66q0 46 96 46l62 -2q19 109 31 267q-39 -3 -51 -3q-97 0 -97 59v10l30 33l63 -1q31 0 63 3q4 35 18 125q27 175 27 283l-1 37q0 33 10.5 53t42.5 20h15l23 -47q0 -80 -18 -233.5t-19 -228.5q18 -4 82.5 -4t96.5 8q25 125 45 272t29 201
q24 31 46.5 31t38.5 -13t16 -28q0 -80 -35.5 -231t-37.5 -227h66l43 -47q-7 -28 -18.5 -44.5t-35.5 -16.5l-67 3q-23 -106 -25 -264zM282 686q8 -1 69 -1t112 6q32 184 33 261q-35 8 -91.5 8t-90.5 -6q-26 -95 -32 -268z" />
    <glyph glyph-name="dollar" unicode="$" horiz-adv-x="519" 
d="M54 24q0 55 46 55q24 0 61 -15.5t54 -15.5t32 4q-5 162 -22 722q-5 7 -33 45.5t-46.5 64.5t-53.5 82q-36 58 -51 94q-42 102 -42 185.5t53 164.5t150 125q0 42 -2 68t8 48q6 12 17 12q9 0 21 -8q26 -18 26 -69v-27q63 15 112.5 15t84.5 -20.5t49 -53.5l-35 -44
q-21 0 -65 6.5t-71 8.5h-10q-25 0 -61 -7l29 -642q159 -208 192 -344q16 -66 16 -153t-41.5 -187t-122.5 -148v-145v-13q0 -90 -59 -90q-36 0 -36 63v16l-4 136q-12 -2 -38 -2t-59 5t-66 22t-33 42zM220 937q-4 108 -15 496q-53 -33 -80 -83q-27 -48 -27 -112
q0 -124 122 -301zM337 113q39 48 60.5 116t21.5 116q0 135 -106 302z" />
    <glyph glyph-name="percent" unicode="%" horiz-adv-x="1077" 
d="M940 467q0 71 -14 138q-44 106 -94 128q-59 -1 -77 -163q-14 -123 -14 -185.5t24.5 -165.5t50.5 -103q124 0 124 270v81zM222 1449q-25 0 -51 -117t-26 -153t1 -63.5t4 -72.5t9.5 -85t16.5 -77q32 -68 62 -81q112 0 112 292q0 357 -128 357zM657 1438l1 -1
q1 32 15.5 65.5t39 33.5t40.5 -13.5t16 -35.5q1 -143 -181 -825q-84 -317 -97 -388t-21 -107q-10 -36 -24 -80q-31 -93 -79 -95q-39 22 -39 72t25 181.5t73 320.5t82 321q100 383 149 551zM927 38q-48 -36 -101.5 -36t-84 29t-48.5 71q-18 44 -30 96q-20 88 -20 148
t0.5 83.5t2.5 69.5t7.5 79t14 75.5t23.5 72.5t35 57q40 55 112 55q87 0 132 -64q45 -65 55 -126q15 -92 15 -170v-100q0 -132 -42 -242q-23 -60 -71 -98zM444 1140l-1 1q-15 -41 -17 -157q-2 -114 -14 -168q-26 -116 -171 -116q-73 0 -113 54q-45 61 -55.5 115t-16 86
t-7.5 78q-3 69 -3 121t8 110.5t25 127t53 115t83 46.5q229 0 229 -406v-7z" />
    <glyph glyph-name="ampersand" unicode="&#x26;" horiz-adv-x="903" 
d="M309 1291l3 -275v-23q52 65 101 155t49 135.5t-33 106t-65.5 60.5t-54.5 -50v-109zM571 696q156 0 232 26q58 -12 58 -54q0 -56 -107 -56l-6 1h-51q0 -327 -84 -438q61 -63 130 -63l83 6l38 -31q0 -41 -28.5 -54.5t-75.5 -13.5q-92 0 -198 77q-115 -78 -212.5 -78
t-164.5 52.5t-102 129.5t-35 141.5t5.5 114t10.5 84.5t22.5 85.5t25.5 72.5q8 23 36 82q36 74 82 165l-14 281v170q0 75 36 111.5t102 36.5t133 -55t67 -129q0 -123 -41.5 -221.5t-124.5 -194.5q-4 -8 -19 -29q-33 -46 -33 -69q0 -89 75.5 -320t129.5 -288q64 146 64 362v9
q-15 0 -19 6t-5.5 8t-5 10.5t-4.5 10.5v52zM251 789q-108 -170 -108 -400q0 -104 46 -190q51 -96 160 -96q33 0 81 17t69 38q-189 273 -248 631z" />
    <glyph glyph-name="quotesingle" unicode="'" horiz-adv-x="359" 
d="M256 1525l1 -14q0 -89 -23.5 -203.5t-51.5 -114.5h-7q-9 0 -19 128.5t-10 209.5q0 20 19.5 33.5t41.5 13.5q37 0 54 -47z" />
    <glyph glyph-name="parenleft" unicode="(" horiz-adv-x="418" 
d="M396 -319l-2 1q-18 -43 -56 -43q-54 0 -103 112t-81 273.5t-56 341.5q-46 345 -46 456.5t15 230.5t41.5 256.5t71 239.5t93.5 102h9l36 -30q0 -54 -33 -121t-40 -84q-91 -224 -91 -516t36 -570q40 -320 148 -518q44 -82 58 -131z" />
    <glyph glyph-name="parenright" unicode=")" horiz-adv-x="434" 
d="M388 817v-2q0 -165 -90 -619q-40 -198 -100 -348.5t-119 -150.5q-21 0 -37.5 13.5t-16.5 32.5t16.5 54t40.5 77q94 166 148.5 455.5t54.5 464.5q0 458 -120 681q-45 84 -45 135v11l37 29q58 0 105 -108q46 -109 72 -260q52 -302 54 -465z" />
    <glyph glyph-name="asterisk" unicode="*" horiz-adv-x="1051" 
d="M675 1189l135 10q104 0 104 -62q0 -52 -71 -52q-45 0 -134 4.5t-133 4.5q6 -16 79 -159.5t73 -174t-15 -45.5t-45 -15t-49 38.5t-21 82.5l-87 190q-11 -26 -37 -100q-55 -154 -97 -221h-49l-44 46l-1 9q3 41 74.5 182t81.5 169h-184.5t-77.5 1t-21 5q-20 8 -20 37.5
t13.5 43t32.5 13.5h243q-2 5 -23.5 46.5t-37.5 72.5q-14 31 -34 73q-40 86 -40.5 110t16.5 36.5t40.5 12.5t54 -58.5t60.5 -139.5t35 -91q3 8 16.5 53.5t26 82t30.5 80.5q39 94 80 93q22 0 39.5 -16.5t17.5 -42.5t-22.5 -85t-58 -135.5t-42.5 -93.5q39 -5 92 -5z" />
    <glyph glyph-name="plus" unicode="+" horiz-adv-x="853" 
d="M468 553l19 -164q0 -25 -20.5 -40.5t-45.5 -15.5t-46 14.5t-21 37.5l-13 199v15l-114 -9q-87 0 -87 65q0 21 12.5 37t33.5 16l121 -7q26 0 47 4l-12 150q0 113 66 113q23 0 37.5 -17t14.5 -42v-25q0 -183 27 -183l119 8q106 0 106 -62q0 -24 -17 -40t-41 -16l-121 11
q-65 0 -65 -49z" />
    <glyph glyph-name="comma" unicode="," horiz-adv-x="451" 
d="M232 -151q-51 -51 -90.5 -51t-39.5 25.5t25 46.5q45 52 66 194q18 121 80 121q71 0 71 -108q0 -47 -30.5 -112t-81.5 -116z" />
    <glyph glyph-name="hyphen" unicode="-" horiz-adv-x="731" 
d="M566 781.5q21 -16.5 21 -42t-49 -43.5q-48 -18 -119 -26q-128 -14 -207 -14q-26 0 -46.5 17t-20.5 42t48.5 43t118.5 26q123 14 207 14q26 0 47 -16.5z" />
    <glyph glyph-name="period" unicode="." horiz-adv-x="445" 
d="M168.5 -9.5q-20.5 22.5 -20.5 52t23 53.5t53 24t52 -24t22 -55.5t-23 -52t-54.5 -20.5t-52 22.5z" />
    <glyph glyph-name="slash" unicode="/" horiz-adv-x="512" 
d="M55 -54q-24 0 -24 45q0 17 9.5 50t174.5 701.5t208 810.5q5 14 19.5 14t26 -12.5t11.5 -26t-21.5 -125.5t-170.5 -704t-213 -730q-5 -23 -20 -23z" />
    <glyph glyph-name="zero" unicode="0" horiz-adv-x="660" 
d="M204 990l21 -200q1 -312 45 -533q32 -157 95 -157q30 0 53 61q24 61 34 148q20 162 19.5 252.5t-3.5 173.5t-10 196t-23 208t-39 181q-49 184 -147 198q-32 -27 -42.5 -53t-10.5 -70zM98 1222q0 251 88 315q36 26 86 26q294 0 294 -1042q0 -514 -220 -514
q-162 0 -219 501q-29 254 -29 714z" />
    <glyph glyph-name="one" unicode="1" horiz-adv-x="452" 
d="M241 -8l-61 -1q-34 0 -49 10.5t-15 39.5t9.5 37t49 8t39.5 34q0 201 -31 599t-31 589l3 75q0 96 -71 96l-47 -2q-58 0 -58 44q0 54 165 54q86 0 105 -34q-12 -56 -12 -102.5t15.5 -171.5t15.5 -237t22 -435.5t22 -485.5v-13q48 6 75 6v1q87 0 87 -51q0 -60 -233 -60z" />
    <glyph glyph-name="two" unicode="2" horiz-adv-x="537" 
d="M425 4l-312 -19q-29 0 -52 17t-23 45v8q43 51 72 134.5t41 109.5q117 259 174 475t57 467t-98 259q-34 -18 -46 -98q-12 -75 -61 -75t-49 63q0 100 58 162q32 34 74 34v1q106 0 154 -66q35 -49 44.5 -88t13 -62t5.5 -59q3 -54 3 -157t-36 -268t-78.5 -279.5
t-106.5 -275.5t-92 -246q124 21 242 21q43 -31 43 -55.5t-27 -47.5z" />
    <glyph glyph-name="three" unicode="3" horiz-adv-x="476" 
d="M222 847q-63 0 -63 42q0 32 45 80q86 93 86 181q0 79 -14 163q-27 164 -93 164q-25 0 -41.5 -18.5t-23.5 -40t-24.5 -40t-43 -18.5t-42.5 16.5t-21 39.5q28 69 79.5 113t110.5 44t97 -31t59.5 -78t35.5 -110q23 -104 23 -182t-9.5 -107t-19 -44.5t-32.5 -48.5t-31 -45
q126 -75 163 -425q8 -76 8 -131t-2 -90.5t-8.5 -83.5t-20.5 -83q-16 -36 -38 -68q-46 -66 -143 -66q-77 0 -114 31.5t-37 58t5.5 33.5t25.5 7t31 -12q45 -31 73 -34q125 0 125 230q0 300 -54 434q-27 66 -71 121q-6 -2 -21 -2z" />
    <glyph glyph-name="four" unicode="4" horiz-adv-x="554" 
d="M269 587l19 573q0 21 18 33.5t35 12.5l32 -36v-98q0 -319 -4 -476l59 5q61 0 61 -44q0 -50 -82 -50q-33 0 -33 -18q0 -69 5.5 -190t15.5 -144q-4 -24 -4 -44t9 -35v-37q0 -77 -48 -77q-31 0 -48 32t-17 65v7q11 38 11 74l-15 199l2 89q0 35 -4 63l-112 -11v-1
q-38 0 -80 33q0 46 9 79q-9 48 -9 116.5t15.5 209.5t15.5 207v379q0 20 7 30t31 10t43 -14t19 -37l-9 -159l-1 -37q0 -21 4 -37v-7q6 -54 6 -125t-14.5 -244.5t-14.5 -228.5t3 -78q35 1 75 11z" />
    <glyph glyph-name="five" unicode="5" horiz-adv-x="429" 
d="M260 -36l-35 -1q-112 0 -112 58q0 23 19.5 34.5t46.5 11.5t50 -17q49 17 77.5 112t28.5 157.5t-0.5 96t-2.5 86.5t-6.5 87t-12.5 79t-19.5 73.5t-29.5 60.5q-18 30 -40 48q-52 40 -122 41q-49 0 -63 39q-12 33 -12 78l11 104q0 128 -50 428l35 36h167q85 0 85 -52v-11
l-38 -31h-51v6h-87q5 -129 40 -486q5 -1 39 -4q35 -4 49 -6q51 -9 78 -27q47 -32 78 -144q50 -181 50 -387q0 -175 -10 -215t-23 -77q-12 -38 -30 -64q-42 -62 -110 -114z" />
    <glyph glyph-name="six" unicode="6" horiz-adv-x="562" 
d="M95 880q0 706 220 706q16 0 32 -12.5t16 -34t-24 -40t-54 -24.5q-26 -25 -47 -142q-33 -186 -42 -384q17 3 32 3q202 0 238 -505q8 -104 8 -179.5t-2 -105t-11.5 -66t-26.5 -58.5q-40 -52 -125 -52q-193 12 -214 611v283zM325 73q53 0 53 139t-18 312q-36 341 -120 358
q-28 -20 -36.5 -46t-8.5 -63.5t0.5 -72t2 -95.5t5.5 -115.5t10 -118t16 -113.5t23 -94q27 -90 73 -91z" />
    <glyph glyph-name="seven" unicode="7" horiz-adv-x="467" 
d="M118 1489q-48 23 -48 60q0 33 188 33h38q55 0 76 -16.5t28 -42.5q-37 -182 -71 -539q-62 -652 -136 -865q1 -5 1 -31t-22.5 -62.5t-57.5 -36.5l-39 35q1 42 17 93q85 259 141 659t63 718q-32 4 -56.5 4t-121.5 -9z" />
    <glyph glyph-name="eight" unicode="8" horiz-adv-x="531" 
d="M156 542q48 229 48 304.5t-22 151t-48 137.5q-70 165 -71 263q0 209 142 209h43q66 -40 84.5 -69.5t26.5 -47.5q7 -18 11 -50q6 -50 6 -101t-1 -76t-4.5 -52.5t-5.5 -48t-8 -52.5l-9 -48q-12 -64 -18 -88t-15 -64t-11 -48q70 -163 116 -369t46 -374q0 -43 -1 -47l-1 -11
v-1q-63 -142 -194 -142q-46 0 -79.5 29t-50.5 75q-32 86 -32 188.5t48 331.5zM261 750q-58 -191 -58 -560v-2q0 -52 26 -107v-10q2 -21 13.5 -43t29.5 -22q100 0 100 137t-29 279t-82 328zM212 1515h-21v1q-28 -31 -28 -101t26 -200.5t51 -207.5q45 159 45 305
q0 43 -14 123.5t-37 80.5z" />
    <glyph glyph-name="nine" unicode="9" horiz-adv-x="563" 
d="M464 1420l-24 -1183l-14 -147l1 -41q0 -34 -16.5 -58.5t-51.5 -24.5l-32 38q32 96 32 682l-4 245q-114 26 -187.5 111.5t-73.5 200.5q0 262 112 344q37 27 86 27q100 0 136 -46t36 -148zM357 1009q9 156 9 418q0 47 -14.5 73.5t-50.5 26.5t-57 -34.5t-31 -84.5
q-19 -95 -19 -140t2 -65.5t4.5 -36.5t9.5 -31t11 -25t16 -21.5t17.5 -17t22.5 -16t23.5 -14.5t27.5 -15.5t29 -16.5z" />
    <glyph glyph-name="colon" unicode=":" horiz-adv-x="443" 
d="M158.5 199.5q-20.5 22.5 -20.5 52t23 53.5t53 24t51.5 -24t21.5 -55.5t-23 -52t-54 -20.5t-51.5 22.5zM179 973.5q-20 22.5 -20 51.5t23 53.5t52.5 24.5t51.5 -24t22 -55.5t-23 -52t-54.5 -20.5t-51.5 22.5z" />
    <glyph glyph-name="semicolon" unicode=";" horiz-adv-x="438" 
d="M219 23q-44 -51 -80 -51t-36 25.5t25 46.5q25 37 39 119t28.5 139t48.5 57q71 0 71 -108q0 -47 -26 -112t-70 -116zM199 974.5q-20 22.5 -20 51.5t23 53.5t52.5 24.5t51.5 -24t22 -55.5t-23 -52t-54.5 -20.5t-51.5 22.5z" />
    <glyph glyph-name="less" unicode="&#x3c;" horiz-adv-x="524" 
d="M360 1447l7 -1l45 -35q-18 -134 -140 -374q-118 -232 -118 -335q0 -16 139 -305t172 -348h26q-2 -27 -15.5 -49t-47.5 -22t-84.5 61.5t-97.5 159t-86 192t-75 188t-48 119.5q1 31 67.5 214.5t146.5 359t109 175.5z" />
    <glyph glyph-name="equal" unicode="=" horiz-adv-x="684" 
d="M258 770l-78 -3q-123 0 -123 59q0 21 12.5 33.5t33.5 12.5h367q159 0 159 -54t-216 -54q-92 0 -146 6h-9zM571 579l-432 10q-82 0 -82 45q0 21 12.5 33.5t33.5 12.5h307q209 0 209 -54q0 -21 -13.5 -34t-34.5 -13z" />
    <glyph glyph-name="greater" unicode="&#x3e;" horiz-adv-x="523" 
d="M126 -19l-38 -4q-17 0 -30 13t-13 43.5t81 189.5t162 309.5t81 169.5q-1 102 -91 280q-38 74 -74 147q-90 177 -92 282l55 35v-2q40 -18 118.5 -186t139 -341t62.5 -219z" />
    <glyph glyph-name="question" unicode="?" horiz-adv-x="464" 
d="M286 70q0 -78 -83 -78q-29 0 -50.5 23.5t-21.5 52.5t25 54.5t53.5 25.5t52.5 -26.5t24 -51.5zM121 1203q-58 1 -58 133q0 72 11 111.5t44 69.5t82 30t82.5 -18.5t51.5 -44.5t28 -68q16 -61 16 -160.5t-20 -204.5q-18 -105 -42 -184q-62 -210 -63 -501q0 -99 1 -137
q-36 0 -41.5 -3t-9.5 -3q-38 0 -50 46q0 226 57.5 515t57.5 476t-61 187q-39 0 -39 -91q0 -16 14 -111q0 -9 -25 -25.5t-36 -16.5z" />
    <glyph glyph-name="at" unicode="@" horiz-adv-x="1030" 
d="M430 -120q-415 0 -415 1076q0 296 39 430q48 164 133 236q114 96 291 97q249 -1 379 -255q128 -251 128 -697q0 -125 -11 -174t-24 -82.5t-31 -54.5q-43 -50 -110 -50q-50 0 -103 113q-34 -94 -93.5 -153.5t-125.5 -59.5q-109 0 -161 100q-68 131 -68 445q0 152 7 200
t15 88.5t19.5 68t29.5 56.5q19 30 41 47q53 40 111.5 40t98 -24.5t66.5 -62t49 -96t34.5 -114.5t22.5 -130t15 -128.5t11 -125t10 -105.5v-9l29 -46q22 12 35 71q18 82 18 176t-4 165.5t-15.5 157t-30 159t-49.5 143.5t-72 120q-90 110 -231 110q-187 0 -263 -144
q-61 -116 -67 -307q-2 -46 -2 -111v-120q0 -800 212 -936q40 -26 104 -25.5t132.5 19t110.5 45.5q43 27 75 53q78 64 101 64t23 -20q0 -24 -29.5 -64t-83.5 -82.5t-147.5 -73t-203.5 -30.5zM491 1246q-58 0 -92 -126t-34 -295.5t36 -292t102 -122.5q43 0 89 74t46 121v154
q0 122 -21 246q-66 207 -126 241z" />
    <glyph glyph-name="A" unicode="A" horiz-adv-x="656" 
d="M527 1q-63 0 -63 53v267q-29 20 -104.5 34t-134.5 18q-21 -36 -34.5 -104t-28 -137t-38.5 -109q-80 0 -90 41q28 40 91 409t103.5 577.5t87.5 350.5t90 142t66 -18q0 -73 40 -395t40 -416.5t21.5 -314t21.5 -329.5q0 -69 -68 -69zM408.5 1015.5q-14.5 164.5 -14.5 199
t1 39.5q-32 -33 -92.5 -367t-64.5 -423q85 -23 142.5 -23t81.5 6q-3 41 -21 222.5t-32.5 346z" />
    <glyph glyph-name="B" unicode="B" horiz-adv-x="576" 
d="M214 1421q-29 0 -29 -73.5t4 -231t4 -228.5q53 12 91 88q31 64 51 123.5t26 73.5v73q0 60 -44.5 117.5t-102.5 57.5zM363 184q58 78 58 180t-17 179.5t-37.5 117t-47.5 67.5q-33 34 -54 41h-73q10 -283 10 -679q103 16 161 94zM88 538l-14 832v12q0 110 34 140
q17 15 43 15q146 0 228 -94t82 -242q0 -93 -49 -193t-117 -149q125 -84 178.5 -213.5t53.5 -271.5q0 -75 -37.5 -154t-75 -126t-98.5 -79t-134 -32h-8q-96 0 -96 51z" />
    <glyph glyph-name="C" unicode="C" horiz-adv-x="649" 
d="M176 999l-18 -143v-49q0 -238 10.5 -315t21.5 -138t28.5 -104t41.5 -81q48 -76 133 -76q35 0 87 36.5t79 36.5t58 -31q0 -103 -117 -147q-58 -21 -126 -21t-116 27.5t-80 71t-56 111.5t-38 135q-12 68 -20 156q-12 148 -13 324l2 245q0 117 14 189q-6 33 -6 64
q0 126 94 200.5t232 74.5q49 0 96 -27.5t47 -72.5q0 -22 -17 -34t-57.5 -12t-55.5 25v-1h-28v5q-119 0 -162 -74q-40 -68 -40 -234z" />
    <glyph glyph-name="D" unicode="D" horiz-adv-x="653" 
d="M211 310v-196q77 50 134 139.5t87 195.5q56 203 56 405q0 232 -58 366q-59 138 -146 182q-54 28 -122 27v-2q0 -185 24.5 -557t24.5 -560zM588 754l5 -43q1 -145 -77 -342q-88 -225 -208 -319q-68 -54 -140 -55q-38 0 -69 17.5t-31 52.5q45 47 45 241q0 114 -19 339
t-19 337l6 224q0 54 -22.5 145.5t-22.5 129.5q0 71 157 71h31q209 0 303 -234q66 -163 66 -450v-95q-5 -9 -5 -19z" />
    <glyph glyph-name="E" unicode="E" horiz-adv-x="457" 
d="M293 750l-51 2q-30 0 -42 -15v-632q105 6 114 6q117 0 117 -54v-7q-14 -28 -48 -43t-60 -17t-67 -2h-64q-76 0 -94 30q-8 14 -8 37v1190q0 35 -14 104t-14 105v7q34 56 51 72l152 18q31 0 62.5 -18.5t31.5 -48.5q0 -61 -93 -61l-59 2q-15 0 -22 -1l16 -338
q0 -41 -5 -119.5t-5 -114.5q11 2 30 7q42 11 65.5 11t42 -17t18.5 -41t-15 -43t-39 -19z" />
    <glyph glyph-name="F" unicode="F" horiz-adv-x="391" 
d="M230 94l-5 -13q4 -12 4 -31.5t-19 -35.5t-50 -16q-59 0 -59 131q0 195 -20.5 737t-41.5 574q1 106 145 113q22 1 59.5 1t59 -14t21.5 -57t-57 -43l-50 2q-57 0 -57 -23q0 -95 15 -278.5t16 -271.5q13 2 35 8q52 14 77 14t41.5 -19.5t16.5 -43.5q0 -67 -170 -67
q0 -111 19.5 -333t19.5 -334z" />
    <glyph glyph-name="G" unicode="G" horiz-adv-x="727" 
d="M525 371l-80 -8q-70 0 -70 58q0 50 132 65q26 3 57 3t53 -32t22 -85.5t20.5 -174.5t20.5 -163q0 -75 -50.5 -75t-67.5 43v2q-12 -5 -45 -23q-62 -34 -123 -34q-44 0 -88 18q-94 37 -144 125q-54 93 -71 178t-23 134q-7 50 -11 114q-5 81 -5 195l-1 151q0 198 13 284
t26.5 141t31.5 97.5t44 82.5q26 41 60 67q73 58 167 57.5t94 -58.5q0 -22 -16 -35t-38 -13l-59 10q-77 -1 -121 -93q-47 -101 -60 -192t-19 -147q-8 -55 -10 -125q-4 -97 -3 -194l-1 -127q0 -196 17.5 -279t36.5 -132q18 -50 44 -82q85 -65 149 -73q91 0 151 86
q-3 182 -33 234z" />
    <glyph glyph-name="H" unicode="H" horiz-adv-x="560" 
d="M440 -31q-52 0 -52 68q0 390 -18 722q-55 10 -103 10t-86 -16q0 -114 17 -345t17 -349q0 -20 -12 -37t-32 -17q-56 -1 -82 351q-35 477 -35 1154q0 37 35 37q19 0 41 -10.5t31 -22.5q-7 -73 -7 -154l14 -421l-2 -77q0 -29 4 -53l199 15l-8 672v54q78 0 93 -70
q7 -34 7 -173t19.5 -589.5t19.5 -674.5q0 -27 -17 -50.5t-43 -23.5z" />
    <glyph glyph-name="I" unicode="I" horiz-adv-x="432" 
d="M301 1442l-36 1q-20 0 -29.5 -8.5t-9.5 -33.5q0 -200 25 -599t25 -599v-79q21 3 42 3q85 0 85 -72v-12l-51 -35l-139 -5q-177 0 -177 61q0 49 62 49l43 -3q30 0 30 48q0 158 -19 473.5t-19 473.5l4 209q0 66 -5 114q-27 -9 -48 -9q-48 0 -48 49q0 25 31 43.5t77 26.5
q86 15 127.5 15t59.5 -16.5t18 -39t-13.5 -39t-34.5 -16.5z" />
    <glyph glyph-name="J" unicode="J" horiz-adv-x="419" 
d="M217 241l1 284q0 594 -54 920q-7 -1 -27 -6q-40 -10 -61.5 -10t-37 15.5t-15.5 36.5q0 72 245 72h26q92 0 92 -54.5t-85 -54.5l-6 1h-28v-16q0 -53 12 -158.5t12 -198.5t18.5 -358.5t18.5 -398.5l-1 -163q0 -121 -50.5 -216.5t-147.5 -129.5q-32 0 -53 16t-21 44t25.5 51
t54.5 35q28 36 55 116t27 173z" />
    <glyph glyph-name="K" unicode="K" horiz-adv-x="650" 
d="M97 660l3 389q0 102 -15 236t-15 175.5t16.5 61t41.5 19.5q76 0 76 -166q0 -1 -9 -421q7 17 39 100t66 167q35 83 74 173q88 202 128 202q23 0 40.5 -15.5t17.5 -37t-111.5 -255.5t-125.5 -297v-36q30 -76 163.5 -497t133.5 -446.5t-20 -42.5t-45 -17l-48 8
q-51 291 -106 507.5t-144 412.5q-61 -109 -64 -132q-6 -62 -6 -98l13 -380v-168q0 -109 -70 -109q-60 0 -60 103.5t13.5 287.5t13.5 276z" />
    <glyph glyph-name="L" unicode="L" horiz-adv-x="430" 
d="M191 775l2 -65v-9q8 -178 8 -534v-52h156q44 -30 44 -57t-15 -44.5t-31 -17.5t-37 7q-17 -4 -39 -4l-66 3q-21 -25 -52.5 -25t-53 19.5t-21.5 45.5l13 90q0 233 -20.5 698.5t-20.5 698.5q0 19 15 30.5t37.5 11.5t41 -17t18.5 -42z" />
    <glyph glyph-name="M" unicode="M" horiz-adv-x="824" 
d="M83 464l-7 793q0 133 3 265l57 32q61 -4 139 -326q63 -263 102 -472.5t43 -227.5q14 66 52 236t57 264q56 275 69 489v12q4 26 25 42t44 16t37.5 -16.5t14.5 -35.5q0 -245 18.5 -734t18.5 -734q0 -49 -26 -85t-50 -36q-50 0 -50 81l-8 862v104q-14 -79 -63 -276.5
t-63 -302.5v-13q-2 -8 -6 -38t-8.5 -49.5t-13.5 -43.5q-19 -48 -63 -48q-73 0 -73 191q0 189 -92 529q-46 170 -59 230q-4 -164 -4 -247l17 -842q0 -44 -31 -77q-53 0 -71.5 34t-18.5 92z" />
    <glyph glyph-name="N" unicode="N" horiz-adv-x="737" 
d="M67 1073l14 376v13q0 102 45 102q41 0 110 -190q126 -345 302 -1139l2 -10l8 714v606q12 51 67 51t55 -80v-12q-12 -25 -12 -60l-13 -757v-626q0 -31 -17 -61t-42 -30q-43 0 -168 421.5t-247 906.5v-672q0 -98 14.5 -292t14.5 -292q0 -19 -23 -31.5t-58.5 -12.5t-35.5 32
l10 147q0 106 -13 344t-13 291v261z" />
    <glyph glyph-name="O" unicode="O" horiz-adv-x="650" 
d="M582 618l-18 -259v-9q-13 -57 -13 -123t-23 -127.5t-70 -109t-103 -47.5t-102 38t-76 97.5t-53 142t-35.5 161t-20.5 165.5q-12 133 -11.5 206.5t-0.5 126t-2 94.5v46.5v54.5q1 59 3.5 106t9 101.5t16.5 96t27 81.5q18 41 40 67q50 58 115 58t111 -23.5t77.5 -75.5
t55 -101t37 -136.5t21.5 -141.5q8 -55 11 -157q4 -137 4 -214v-118zM349.5 1448.5q-30.5 28.5 -60.5 28.5t-49.5 -21t-33 -59.5t-24 -82.5t-16 -101.5t-9.5 -104.5q-3 -46 -5 -102q-2 -93 -3 -145v-9q0 -137 21 -295.5t43.5 -259.5t60.5 -171.5t85 -70.5q41 0 69 77
q28 78 40 192q20 204 20.5 286.5t0 120.5t-3 110.5t-8.5 136t-15.5 140.5t-25 137t-36 112.5t-51 81z" />
    <glyph glyph-name="P" unicode="P" horiz-adv-x="495" 
d="M86 58l10 731q0 482 -53 731q32 46 79 46q76 0 138.5 -34t101.5 -90q81 -117 81 -267t-65 -272.5t-191 -190.5l16 -638q0 -85 -68 -85q-25 0 -37 21.5t-12 47.5zM182 811q156 146 156 347v1q0 115 -28 161q-14 22 -22.5 34.5t-34.5 33.5q-31 25 -95 71q0 -108 12 -324
t12 -324z" />
    <glyph glyph-name="Q" unicode="Q" horiz-adv-x="676" 
d="M481 831q1 41 1 80q0 563 -209 563q-37 0 -63 -106q-26 -105 -36 -264q-18 -265 -17.5 -379.5t2.5 -159.5t8 -114.5t19.5 -128.5t33 -114.5t53 -89.5t75.5 -38v2q15 26 56 26v-1q77 71 77 220v504zM64 1052q0 524 226 524q114 0 180 -82q64 -82 90 -206q28 -139 30 -238
t4 -167q1 -34 1 -67q-1 -32 -1 -64q-2 -64 -1 -93v-92q0 -173 -22 -278t-104 -219q2 -8 7.5 -41t11.5 -63t16 -62q21 -73 52 -73h8q64 0 76 -16.5t12 -33.5q0 -63 -91 -63q-35 0 -85 29v1q-56 26 -78 91q-17 51 -24.5 107t-11.5 74h-84q-195 130 -216 426q-4 56 -4 128
l10 334z" />
    <glyph glyph-name="R" unicode="R" horiz-adv-x="548" 
d="M78 60l8 1201v252q0 24 10 34t52.5 10t86 -20.5t73.5 -54.5q29 -36 50 -80q40 -85 40 -185t-50 -229q-6 -14 -24 -59t-21 -53q1 -152 77 -395q26 -82 74 -224.5t60 -180.5v-5q0 -69 -16 -80.5t-34 -11.5q-38 0 -74 55v7q-10 186 -128 563q-54 172 -75 255v-807
q0 -31 -11 -48t-40 -17t-43.5 16.5t-14.5 40.5v16zM191 1463l-11 -418q0 -63 2 -94q35 33 69 79l32 177q3 14 3 32q0 49 -20 119q-28 96 -75 105z" />
    <glyph glyph-name="S" unicode="S" horiz-adv-x="523" 
d="M38 24q0 55 46 55q23 0 60.5 -15.5t65 -15.5t59.5 35t50 87q37 106 37 191.5t-30 183.5t-73 184t-87 172q-104 205 -103 374q-1 160 101 251q54 48 127 48q37 0 72 -20.5t49 -53.5l-35 -44q-51 0 -80 20q-38 -4 -66 -36q-51 -59 -51 -145.5t22 -168.5t55 -147t71 -141
q39 -76 72 -146q77 -162 77 -350q1 -132 -67 -254q-32 -58 -88 -95.5t-125 -37.5q-74 0 -116.5 22t-42.5 47z" />
    <glyph glyph-name="T" unicode="T" horiz-adv-x="492" 
d="M321 1189l-4 -264l18 -471l17 -368q0 -100 -59 -100q-34 0 -50 32t-16 71l16 327q0 106 -14 319t-14 319l3 179q0 147 -19 191l-111 -11q-26 0 -46.5 15.5t-20.5 40t49 41.5q50 18 120 26q123 14 207 14q25 0 45.5 -16.5t20.5 -41.5t-18 -39.5t-44 -14.5l-73 4
q-14 0 -21 -1q14 -118 14 -252z" />
    <glyph glyph-name="U" unicode="U" horiz-adv-x="699" 
d="M52 1115l2 320q-15 17 -15 42t17.5 44t41.5 19q74 0 74 -146l19 -712q12 -27 20.5 -109t8.5 -127.5t14.5 -112t40 -134.5t69 -116t82.5 -48t58 18.5t26 52.5q11 54 11 113v400q0 65 -13 193t-13 193v14l-4 119l-15 351q0 25 25 40.5t52 15.5l50 -48v-34l-15 -125
q0 -171 18.5 -515t18.5 -465.5t-3.5 -162t-15.5 -86.5t-33 -76q-49 -70 -150 -70q-125 -1 -201 109q-80 116 -112 278q-38 191 -46 335q-12 217 -12 430z" />
    <glyph glyph-name="V" unicode="V" horiz-adv-x="620" 
d="M88 1563q56 0 189 -861q52 -337 57 -363q14 115 50 369q76 524 75 820q32 41 75 41l43 -23q-5 -35 -22 -199t-32 -294t-29 -245.5t-30.5 -244t-31.5 -231t-30 -187.5q-32 -179 -52 -179q-29 0 -48 22q-50 206 -146 799.5t-125 735.5q12 40 57 40z" />
    <glyph glyph-name="W" unicode="W" horiz-adv-x="901" 
d="M697 43q0 -31 -15.5 -51t-45.5 -20q-74 0 -186 787q-16 116 -20 134q-38 -273 -58 -471.5t-20 -393.5q0 -22 -18.5 -39.5t-40.5 -17.5q-75 0 -75 156q0 96 -84.5 701.5t-107.5 662.5q26 49 73 49t85.5 -213t66 -516.5t28.5 -307.5q3 28 20.5 172.5t27.5 232.5
q30 266 30 378v39q0 22 16.5 42.5t37.5 20.5q73 0 73 -60v-31q0 -198 92 -573q40 -164 57 -263q11 113 40 327q63 466 63 718q0 45 15 65.5t49 20.5t53.5 -16t19.5 -41t-21 -46q0 -298 -77.5 -722.5t-77.5 -723.5z" />
    <glyph glyph-name="X" unicode="X" horiz-adv-x="520" 
d="M410 24q-60 0 -60 49q0 106 -18 189t-38.5 165.5t-26.5 110.5q-5 -21 -17 -94t-26 -144q-14 -72 -32 -146q-41 -166 -99 -167q-20 0 -37.5 13t-17.5 33q0 78 43 230t86 309.5t43 239.5t-20 174q-22 94 -46 166q-66 194 -65 321v5q19 42 48.5 42t50 -35t36.5 -94.5
t27 -112t21.5 -115.5t13.5 -76q4 10 26 142q55 321 116 321q23 0 42 -12t19 -47.5t-76.5 -330t-76.5 -364.5q0 -24 52 -280t54 -268v-12q2 -25 18 -76t16 -76.5t-17 -42.5t-39 -17z" />
    <glyph glyph-name="Y" unicode="Y" horiz-adv-x="453" 
d="M212 25l10 396q0 60 -19.5 177.5t-19.5 189t-24.5 174t-54.5 184.5q-79 215 -79 367q0 15 17.5 25.5t36.5 10.5t40.5 -47t39.5 -120t33.5 -146t28.5 -141.5t19 -88.5q4 18 9.5 85.5t12.5 138.5q8 72 20 144q27 165 81.5 165t54.5 -22q0 -115 -49 -343t-49 -346l-6 -71
v-31l11 -543l7 -102v-46q0 -27 -20.5 -43.5t-44.5 -16.5t-39.5 14.5t-15.5 35.5z" />
    <glyph glyph-name="Z" unicode="Z" horiz-adv-x="429" 
d="M139 1543l193 21q24 0 40 -17.5t16 -41.5q0 -536 -227 -1420l108 8q108 0 108 -63v-9l-32 -32l-253 -8q-39 0 -58 50q47 75 105.5 389.5t96 607.5t45.5 423q-70 -10 -117 -10q-111 0 -111 65v9l28 34v1q27 -7 58 -7z" />
    <glyph glyph-name="bracketleft" unicode="[" horiz-adv-x="467" 
d="M385 1465l-115 13q-38 0 -38 -20q0 -238 -40 -711.5t-40 -698.5v-42h21q182 0 182 -74q0 -44 -66 -44q-247 0 -247 77q0 84 21.5 252.5t21.5 295t26.5 462.5t26.5 505l-2 39q0 23 8 35.5t33 22.5h78q118 -1 164 -31q22 -14 22 -35t-17.5 -33.5t-38.5 -12.5z" />
    <glyph glyph-name="backslash" unicode="\" horiz-adv-x="511" 
d="M433 310.5q44 -239.5 44 -276t-46 -64.5v-1q-34 0 -79 120t-88.5 308.5t-79.5 366t-68 348.5t-38 196q-4 25 -16 64q-26 86 -26 120.5t16.5 48.5t38.5 14q41 0 110 -224t128.5 -502.5t103.5 -518z" />
    <glyph glyph-name="bracketright" unicode="]" horiz-adv-x="472" 
d="M225 1577l42 1q40 0 54.5 -17.5t14.5 -130t28 -435.5t28 -450t20.5 -308t20.5 -272q0 -77 -248 -77q-67 0 -67 44q0 74 182 74h21v42q-6 204 -43.5 678.5t-37.5 731.5v18l-134 -11q-74 0 -74 46q0 66 193 66z" />
    <glyph glyph-name="asciicircum" unicode="^" horiz-adv-x="280" 
d="M94.5 1530.5q-21.5 15.5 -21.5 45.5t16.5 55t46.5 25t52 -21.5t22 -50.5t-18 -49t-47 -20t-50.5 15.5z" />
    <glyph glyph-name="underscore" unicode="_" horiz-adv-x="844" 
d="M703 0l97 2q50 0 50 -38q0 -17 -16 -31.5t-58.5 -14.5t-70.5 -2l-632 -10q-32 0 -55.5 14t-23.5 32.5t14.5 33t35.5 14.5h659z" />
    <glyph glyph-name="grave" unicode="`" horiz-adv-x="506" 
d="M69.5 1723.5q21.5 28.5 43.5 28.5t175 -84t153 -111q0 -14 -24.5 -14t-196.5 55.5t-172 73.5q0 23 21.5 51.5z" />
    <glyph glyph-name="a" unicode="a" 
d="M411 375q-6 30 -6 104.5t-8.5 185t-24.5 257t-22 212.5q-93 -515 -120 -726q35 -23 181 -33zM518 416l22 -126q0 -25 19.5 -122t19.5 -127v-2q0 -45 -34 -58q-43 0 -67 14t-24 54q0 87 -30 253l-202 30q-19 -68 -29 -149t-19 -118q-18 -76 -67 -76q-24 0 -44.5 15.5
t-20.5 39.5l5 18q138 533 205 1038q2 14 6 82q10 150 38 191h69q28 0 49 -13t21 -39q0 -156 41.5 -463t41.5 -442z" />
    <glyph glyph-name="b" unicode="b" horiz-adv-x="491" 
d="M194 1068v-305q108 3 108 259t-84 266q-24 -52 -24 -220zM181 186l2 -10v-92q69 16 103.5 81.5t34.5 122t-1.5 89.5t-9.5 81t-20 84q-30 88 -93 101q-9 -132 -9 -310zM94 1173l-11 106v11q0 43 13.5 68t69 25t108.5 -29t84 -80q61 -100 61 -228t-19 -202.5t-64 -138.5
q80 -77 92 -253q2 -40 2.5 -96t-9.5 -110t-33 -103q-24 -49 -58 -85q-75 -78 -201 -78q-43 0 -55 38q-8 29 -9 70l20 436z" />
    <glyph glyph-name="c" unicode="c" horiz-adv-x="505" 
d="M47 495l-1 120v49q0 302 30 420q36 146 100 202q87 78 220 78q32 0 47.5 -15t15.5 -36t-12.5 -37.5t-31.5 -17.5h-96q-42 0 -73 -54q-30 -54 -44 -132q-26 -148 -25 -245v-10l-9 -395q0 -125 13.5 -173t28 -77.5t34.5 -48.5q46 -44 118 -44q24 0 44 18q24 0 43 -11
t19 -34q0 -81 -113 -81q-46 0 -96.5 13.5t-75.5 29.5q-136 88 -136 481z" />
    <glyph glyph-name="d" unicode="d" horiz-adv-x="610" 
d="M73 256l6 645q0 66 -12 201.5t-12 172.5t23 57.5t49 20.5q211 0 343 -247q76 -141 76 -298l-4 -103v-113q0 -206 -18.5 -275t-38.5 -115t-48 -82q-65 -82 -164 -132h-148q-52 0 -52 268zM216 141v-49q178 0 214 360q8 83 8 160q0 618 -238 646q-15 -81 -15 -222.5
t15.5 -442.5t15.5 -452z" />
    <glyph glyph-name="e" unicode="e" horiz-adv-x="455" 
d="M86 1034l-11 173q0 145 86 145q55 0 150 -25.5t95 -65.5q0 -42 -60 -64q-95 32 -155 39q3 -44 3 -88l-9 -294q0 -2 6 -32l73 3q99 0 99 -56q0 -22 -18 -38.5t-45.5 -16.5t-59.5 4h-52q6 -78 6 -155l-9 -371q0 -115 4 -115l151 5q78 0 78 -50q0 -31 -27 -45t-61 -14h-173
q-27 0 -49 18.5t-23 44.5v54l-13 346z" />
    <glyph glyph-name="f" unicode="f" horiz-adv-x="483" 
d="M220 1219l-19 -411v-55l38 1q99 0 99 -54q0 -27 -22 -43.5t-57.5 -16.5t-73.5 12v-580q0 -90 -53 -90q-32 0 -73 31q17 183 25.5 520.5t14.5 441.5v50q8 149 8 278q0 29 24.5 45t55 16t65.5 -2q36 -2 87 -10q116 -17 116 -71q0 -58 -104 -58q-41 20 -107 20h-24v-24z" />
    <glyph glyph-name="g" unicode="g" horiz-adv-x="638" 
d="M563 411l10 -217q0 -101 -70.5 -155.5t-164.5 -54.5q-142 0 -206 106q-46 75 -58 141.5t-17 102.5t-7 97q-4 85 -4 137v88q0 289 17 365.5t39 142.5t54 102q77 88 178 88t101 -52q0 -24 -20 -39.5t-45 -15.5l-43 5q-71 0 -107 -140q-52 -200 -52 -483q0 -193 12.5 -265.5
t27.5 -121.5q14 -50 34 -80q47 -71 121 -71q99 0 99 326v94q-15 8 -48 8l-40 -1q-71 0 -71 47q0 29 20.5 44t49.5 15v-1h28q184 0 184 -63z" />
    <glyph glyph-name="h" unicode="h" horiz-adv-x="571" 
d="M191 1233l-8 -511q37 -10 112 -10h74q5 9 5 66t-13.5 250.5t-13.5 291.5q0 23 18 38.5t34 15.5t26 -3t22 -8t19 -7q0 -266 19.5 -777.5t19.5 -528.5t-21.5 -33.5t-48 -16.5t-42.5 39t-21.5 115.5t-7.5 132.5q-1 24 0 55q0 42 1 96q2 95 2 110v8l3 59l-12 19v2
q-17 -4 -37 -4l-132 19v-235l12 -337q0 -29 -15 -51.5t-43 -22.5q-41 0 -56.5 74.5t-15.5 203.5l6 312q0 97 -3 107v10q8 107 8 120l-14 462q0 24 17 42.5t41 18.5q65 0 65 -122z" />
    <glyph glyph-name="i" unicode="i" horiz-adv-x="499" 
d="M286 681l10 -435v-61l-1 -57h27l59 2q84 0 84 -51q0 -26 -20.5 -44.5t-47.5 -18.5h-90q-93 0 -119 4q-16 -2 -25 -2q-73 0 -73 46q0 19 12 36t24 18h58l4 27l-14 435l11 456q0 117 -10 220h-39l-47 -2q-30 0 -47 11.5t-17 43.5q0 47 101 47h244q83 0 83 -43
q0 -19 -18 -35t-41 -16h-105q8 -84 8 -190z" />
    <glyph glyph-name="j" unicode="j" horiz-adv-x="520" 
d="M331 1245l21 -863v-218q0 -102 -16.5 -147.5t-31 -75.5t-38.5 -53t-54 -42q-63 -39 -171 -39q-24 0 -24 25l2 34q0 12 29 22q106 37 133 66q59 64 59 233l-23 1046v9q-78 0 -111.5 13.5t-39.5 20.5t-6 21.5t23 28t74.5 13.5t193 -12.5t141.5 -34t-16.5 -34.5t-39.5 -13
h-105z" />
    <glyph glyph-name="k" unicode="k" horiz-adv-x="637" 
d="M352 919l-4 -122q0 -88 70.5 -329t117.5 -319q6 -9 26.5 -37t30 -49t9.5 -44t-17.5 -38.5t-40.5 -15.5q-48 0 -100 101.5t-92 248.5q-69 251 -102 437q-74 -147 -74 -356v-379q0 -48 -42 -48q-31 0 -49.5 17.5t-18.5 47.5v622q0 111 19.5 331.5t19.5 330.5q18 39 52.5 39
t53 -18.5t18.5 -44.5v-6q-27 -47 -27 -373v-73q3 5 75 150q175 352 216 352q30 0 54.5 -14t24.5 -41q0 -2 -49 -82q-151 -247 -171 -288z" />
    <glyph glyph-name="l" unicode="l" horiz-adv-x="467" 
d="M190 1148l6 -492q-12 -28 -12 -70v-41l-8 -326q0 -141 69 -141l85 3q110 0 110 -60q0 -22 -19 -36.5t-43 -17.5q-75 24 -183 24q-33 -19 -63.5 -19t-47.5 21t-17 46q0 152 13 457.5t13 457.5v15q-12 128 -12 192q0 194 71 194q21 0 36.5 -15t15.5 -36z" />
    <glyph glyph-name="m" unicode="m" horiz-adv-x="1013" 
d="M824 21l1 262q0 91 -15 267t-15 237t4 145.5t4 126.5q-9 -27 -69 -283q-156 -662 -223 -662q-40 0 -62.5 24t-22.5 64q0 97 -76.5 399.5t-129.5 463.5q-39 -722 -39 -976l3 -61q0 -33 -14 -50.5t-44 -17.5t-49 14.5t-19 34.5q0 209 31.5 626t31.5 626q-12 19 -12 42.5
t25 35.5t54 12q44 0 174 -411.5t160 -569.5q9 30 37.5 151.5t60.5 252.5q32 132 70 266q86 308 146 308q27 0 51 -15t24 -41q0 -148 13 -442t13 -427l-5 -216v-1q0 -23 12 -146l4 -40q9 -22 9 -46.5t-19 -52.5t-50 -28q-64 0 -64 128z" />
    <glyph glyph-name="n" unicode="n" horiz-adv-x="827" 
d="M64 829l12 382q0 95 75 151v-13q8 5 15 5q48 0 120 -165.5t130 -363.5t115.5 -399.5t71.5 -236.5q41 429 41 1039l-3 55q0 61 51 61q29 0 43.5 -24t14.5 -56v-155q-2 -241 -21.5 -643.5t-52.5 -454.5q-56 -17 -77.5 -17t-33 14.5t-18.5 44.5t-12 40l1 9q0 76 -147 483
t-213 560v-1031q2 -4 8 -14q13 -22 13 -41t-18.5 -38t-43.5 -19q-67 0 -67 125z" />
    <glyph glyph-name="o" unicode="o" horiz-adv-x="651" 
d="M51 626l2 78q0 10 -3 10v37q0 322 37 458q31 115 60 142t57 27q238 0 328 -240q52 -138 52 -340v-15l4 -232q0 -589 -273 -589q-113 0 -173 125q-57 120 -70 236q-21 175 -21 303zM172 906l-10 -189q0 -297 48 -518q51 -129 97 -152q37 0 67 30t47.5 80.5t29.5 106.5
q11 55 17 118q10 109 10 186t-13.5 236t-13.5 237v36q-2 75 -49 133.5t-120 58.5q-70 0 -93 -79q-19 -66 -19 -163z" />
    <glyph glyph-name="p" unicode="p" horiz-adv-x="483" 
d="M84 885l3 195q0 125 -16 190q14 72 55 72h90q118 0 166 -98q42 -87 42 -200q0 -143 -7 -175.5t-15 -61.5t-19.5 -47t-29.5 -39.5t-41 -36.5q-51 -33 -123 -56v-219l16 -388q0 -25 -21 -42.5t-48 -17.5l-43 25q-25 113 -25 301l8 365q-12 27 -12 50v7q20 40 20 176z
M186 1115l4 -399v-3q122 16 122 346q0 97 -24 132q-26 37 -80 37q0 3 -22 3v-116z" />
    <glyph glyph-name="q" unicode="q" horiz-adv-x="644" 
d="M502 -434v2q-115 0 -158 47q0 53 -4.5 86.5t-6.5 51t-7.5 49t-8 43.5t-9.5 48t-9 45q-125 26 -183 142q-38 78 -48 149t-14 113q-3 44 -4 104q-1 40 -1 72q1 16 1 30q0 42 1 105.5t1 106.5t2.5 92.5t9.5 126t23 140t40 123t64.5 93.5t91.5 34q16 -7 47.5 -14.5t62 -20
t66 -46.5t57 -80.5t36 -93t20.5 -104.5q10 -98 10 -171.5t-0.5 -112t-2.5 -111.5t-7.5 -133.5t-13.5 -136t-22 -135t-32 -115.5q-38 -116 -105 -144q0 -67 25 -158.5t31 -118.5q95 0 95 -58q0 -21 -13.5 -35.5t-34.5 -14.5zM271 1288q-34 0 -60 -78q-25 -76 -37 -186
q-22 -214 -22.5 -287t0 -100t2 -91t5.5 -115t10 -118t17 -117t25 -96q29 -94 82 -94q29 12 60 12q36 0 78 207t42 286v358q0 419 -202 419z" />
    <glyph glyph-name="r" unicode="r" horiz-adv-x="504" 
d="M174 1289l-7 -29q0 -84 4 -242.5t4 -230.5q48 25 77.5 130.5t29.5 161.5t-3 82.5t-13 58.5q-20 66 -92 69zM166 686l-2 -222q0 -271 39 -427l-23 -55h-57l-27 30q2 92 2 206.5t-17.5 489.5t-17.5 560q0 97 68 97q107 0 180 -56t73 -160v-144q0 -59 -22 -107.5t-51 -102
t-32 -59.5q11 -50 39 -196q60 -319 133 -459q21 -40 21 -62.5t-12.5 -38t-33.5 -15.5q-43 0 -82.5 98.5t-63.5 218.5q-73 367 -89 404h-25z" />
    <glyph glyph-name="s" unicode="s" horiz-adv-x="445" 
d="M72 86l85 -15q39 0 68 34t43 85q27 98 27 173.5t-25 149.5t-61.5 137.5t-72.5 129.5q-86 156 -86 306q0 92 31 163q58 132 154 132q36 0 68.5 -23t32.5 -50q0 -47 -50 -47q-22 0 -43 12q-65 -3 -88 -145q-5 -31 -5 -72.5t18 -102.5t45.5 -108.5t59 -105t59.5 -111.5
q64 -125 63 -286q1 -124 -57 -237q-28 -56 -79.5 -91.5t-117.5 -36.5v-5q-84 12 -92 79z" />
    <glyph glyph-name="t" unicode="t" horiz-adv-x="493" 
d="M257 33l-4 157q0 1 3 70q-8 26 -32.5 462t-26.5 533h-8q-166 3 -166 61q0 19 22 31.5t43 12.5l278 -19l33 1q64 0 64 -49q0 -25 -21 -40.5t-47 -15.5l-94 14l-4 -21q0 -194 34 -581t34 -582q0 -24 -22 -42.5t-48 -18.5z" />
    <glyph glyph-name="u" unicode="u" horiz-adv-x="641" 
d="M560 913l2 -35q0 -909 -264 -909q-102 -1 -151 83q-51 86 -62 171q-17 131 -19.5 300.5t-2.5 489.5l-9 293q19 43 43.5 43t43.5 -37.5t19 -79.5v-557q0 -73 14.5 -217t14.5 -217q0 -150 130 -150q146 0 146 1101v115l-1 34q0 24 11 36t38.5 12t41.5 -9q13 -8 19 -24
q8 -25 9 -66l-14 -206z" />
    <glyph glyph-name="v" unicode="v" horiz-adv-x="666" 
d="M343 247q45 226 110.5 653t77.5 496h46q18 0 32.5 -13t14.5 -32q0 -115 -49 -289.5t-57.5 -225t-17.5 -163.5t-21 -222t-32 -222t-56.5 -183t-86.5 -70l-38 31q0 249 -47.5 508t-93 435t-61.5 223q-36 111 -36 138t15.5 41t34.5 14q57 0 109 -196q52 -197 78 -368.5
t39 -262.5t24.5 -182.5t14.5 -109.5z" />
    <glyph glyph-name="w" unicode="w" horiz-adv-x="802" 
d="M634 1327q0 50 57.5 50t57.5 -48q0 -65 -5 -84v-11q-28 -85 -28 -188v-150q0 -128 -31.5 -385.5t-31.5 -371.5q0 -208 -79 -208q-59 0 -59 87.5t-6 176.5t-19.5 196t-23.5 176.5t-30 199t-27 175.5q-7 -68 -7 -137t-15.5 -260.5t-54 -389.5t-87.5 -198q-79 1 -119 429
q-18 184 -32 370q-36 476 -63 537q17 36 59 36q66 0 66 -148.5t43 -453t48 -444.5q87 593 87 903l55 24q25 0 43 -13t18 -37v-17q58 -197 92 -571q16 -171 30 -265q38 284 38 677q0 52 15.5 154t15.5 154q-7 18 -7 35z" />
    <glyph glyph-name="x" unicode="x" horiz-adv-x="471" 
d="M268 1158l-1 67q0 54 18 85.5t74 46.5l38 -48q-31 -47 -33 -91t-2 -85v-24q-24 -65 -51 -228t-27 -235.5t37 -195t74 -235t37 -148t-16.5 -50t-36 -14.5t-36 19t-29.5 52.5t-24.5 72t-20.5 84t-16 81.5t-13 72t-9 49q-5 -30 -18.5 -153t-33.5 -187q1 -7 1 -24
q0 -76 -53 -76q-23 0 -42.5 12.5t-19.5 34.5q0 89 29 199.5l58 221t29 184t-51.5 307t-75.5 267.5v22q-19 19 -19 45q0 48 61 48q42 0 76 -132q30 -116 44.5 -205t17.5 -103q2 13 9 50.5t10 56t7 49.5q8 62 8 108z" />
    <glyph glyph-name="y" unicode="y" horiz-adv-x="513" 
d="M355 109q0 -137 -67 -137q-37 0 -57 45q23 45 23 347q0 55 -11 156t-13 144v53q-4 9 -64 162q-136 343 -136 409v11l46 34q63 -1 150 -317q38 -138 38 -139q8 23 32 153q61 332 128 332q19 0 34.5 -12t15.5 -31q0 -102 -58.5 -296.5t-60.5 -296.5v-617z" />
    <glyph glyph-name="z" unicode="z" horiz-adv-x="493" 
d="M290 12l-121 6q-13 0 -36 -11t-40.5 -11t-34.5 13.5t-17 47.5q0 183 138 638t165 561l-167 -12q-22 0 -37.5 17.5t-15.5 39.5q0 58 225 58q101 0 101 -57q0 -72 -44.5 -195.5t-52.5 -173.5q-26 -163 -107 -475t-89 -353h35l86 6v1q83 0 83 -50q0 -25 -22 -37.5t-49 -12.5
z" />
    <glyph glyph-name="braceleft" unicode="{" horiz-adv-x="649" 
d="M428 39l121 23q8 0 12.5 -17.5t4.5 -35t-24 -33.5q-38 -24 -99 -24q-116 0 -159.5 62.5t-43.5 183.5v423q0 86 -50 96q-20 5 -40 5q-49 1 -49 44q0 48 49 50q20 2 40 6q50 11 50 94l-10 214q0 74 13 96q-5 30 -5 54q0 94 53 154.5t152 60.5q65 0 104 -19.5t39 -41
t-17.5 -33.5t-39.5 -12l-101 19q-98 0 -98 -251l8 -210q0 -132 -36 -179q34 -42 34 -146v-440q0 -143 92 -143z" />
    <glyph glyph-name="bar" unicode="|" horiz-adv-x="467" 
d="M242 1533l4 -1154v-408q0 -21 -15.5 -36t-36.5 -15q-51 0 -51 194l-14 1396q0 74 71 74q18 0 30 -16t12 -35z" />
    <glyph glyph-name="braceright" unicode="}" horiz-adv-x="649" 
d="M259 1408l-121 -23q-8 0 -12.5 17.5t-4.5 35.5q0 16 24 32q38 24 99 25q114 0 157.5 -63t44.5 -183l1 -373q0 -86 46 -96q19 -4 37 -6q46 -2 46 -43q0 -48 -46 -50q-20 -1 -38 -5q-46 -10 -45 -95l8 -251q0 -91 -11 -109q4 -25 4 -55q0 -94 -52.5 -154t-151.5 -60
q-65 0 -104 19.5t-39 41t17.5 33.5t39.5 12l101 -19q98 0 98 250l-10 245q0 147 38 195q-37 47 -37 146l10 252q0 281 -99 281z" />
    <glyph glyph-name="asciitilde" unicode="~" horiz-adv-x="675" 
d="M558 1210q11 13 37.5 13t43.5 -16t17 -37q0 -53 -39.5 -92.5t-92.5 -39.5q-190 0 -271 42q-85 44 -117 45q-29 -11 -24 -39t-29 -40q-31 0 -52.5 15t-21.5 54t40 74t99.5 35t185.5 -41.5t156 -41.5t40.5 13t13.5 28t14 28z" />
    <glyph glyph-name="exclamdown" unicode="&#xa1;" horiz-adv-x="286" 
d="M41 0zM56 1306q0 72 101 72q23 0 45.5 -21.5t22.5 -57t-25 -64t-62 -28.5t-59.5 29t-22.5 70zM84 789l-2 97q0 140 38 140q21 0 38.5 -50t17.5 -126l-8 -339l10 -672q0 -32 -27 -55.5t-54 -23.5t-41.5 14.5t-14.5 35.5q0 164 21.5 490t21.5 489z" />
    <glyph glyph-name="cent" unicode="&#xa2;" horiz-adv-x="613" 
d="M218 1125q-65 -95 -65 -335q0 -345 123 -366q-2 416 -58 701zM369 222l14 -194q0 -20 -14.5 -34t-33.5 -14h-9l-38 35q4 23 4 48t-4 71t-4 69l-3 -1l8 111q-88 33 -123.5 69t-53 59t-28 57t-17 59.5t-9.5 68.5q-4 57 -4 130t1 108t6 87.5t15 90.5t28 80q35 82 113 132
q-11 104 -11 114q0 88 52 88h7l30 -20q-5 -37 -5 -70.5t10 -111.5q9 -3 33.5 -9.5t39.5 -11t37.5 -14t36.5 -19.5q33 -24 37 -60h-2v-5q0 -17 -12.5 -34t-32 -17t-38 16.5t-27.5 39.5l-58 29h-5q2 -118 31.5 -365t29.5 -376l-2 -25q0 -4 2 -12q55 2 83 32q35 37 69 88
q59 0 59 -60q0 -53 -72.5 -99t-131.5 -51q-8 -52 -8 -79z" />
    <glyph glyph-name="sterling" unicode="&#xa3;" horiz-adv-x="712" 
d="M542 125l110 21q23 0 39 -15t16 -39.5t-38.5 -44.5t-105 -20t-157.5 18.5t-128 22.5v3q-25 -1 -87.5 -26t-96.5 -43v4q-22 2 -40 14t-18 38t21.5 44t57.5 31.5t50 24.5q31 24 46.5 95t15.5 140t-15.5 149.5t-48.5 196t-43 155.5q-94 0 -94 24v6q0 12 3 20q9 22 74 22
q-1 42 -13 133t-12 133t3 83t14.5 100.5t30.5 105t54.5 78.5t82.5 33h25q37 0 77.5 -42.5t65 -96.5t24.5 -82.5t-6 -40t-31 -11.5t-43.5 18t-26.5 44t-15 52q-17 62 -64 62q-64 1 -87 -193q-5 -42 -5 -72v-27q0 -176 19 -267l205 3q20 0 36 -15t16 -28.5t-9.5 -17t-33.5 -6
t-47 -4t-68 -4t-78 -4.5q11 -62 40 -164q67 -236 67 -358q0 -64 -22 -131t-25 -78q39 -3 127.5 -23.5t137.5 -20.5z" />
    <glyph glyph-name="currency" unicode="&#xa4;" horiz-adv-x="895" 
d="M268 1172q90 113 130 113q116 0 222 -69q8 10 30 51q46 84 99 84h10l43 -47q-3 -42 -72 -126q-23 -28 -23 -37q0 -60 45 -181.5t45 -186.5t-33.5 -188.5t-33.5 -188.5q0 -30 38.5 -74t38.5 -70t-14.5 -41.5t-39.5 -15.5t-47.5 14t-26.5 39l-25 45q-99 -88 -239 -88
q-95 0 -182 85q-1 -2 -10 -23q-28 -66 -76 -66q-31 0 -47.5 21.5t-16.5 46t16.5 46t39.5 44t30 33.5q-32 60 -32 175q0 404 72 511q-6 12 -51.5 57.5t-45.5 69t14.5 37t28 13.5t21 -1.5t13 -3.5t12.5 -6.5t11.5 -7t11 -9.5t9.5 -10t9.5 -11t8.5 -11t9 -12t8 -11zM301 421
q0 -116 150 -116q54 0 96 36.5t66 89.5q23 53 39 121q26 113 26 199t-18.5 188t-42.5 132q-21 4 -35.5 21.5t-16.5 39.5q-45 49 -123 49q-17 0 -54.5 -30.5t-52.5 -50.5l15 -14q0 -77 -47 -77q-17 0 -36.5 -122.5t-19.5 -190.5h3q2 -18 2 -27l-5 -84q0 -117 54 -164z" />
    <glyph glyph-name="yen" unicode="&#xa5;" horiz-adv-x="876" 
d="M163 1056l158 -4q54 0 102 7v12q-89 87 -165 253l-64 136q-76 157 -176 245v59l3 -5q34 15 50 15q34 0 97.5 -79t118 -170t114 -195t71.5 -123q9 23 41 135.5t63 214.5t73.5 188.5t75.5 86.5q23 0 40.5 -15.5t17.5 -38.5q-2 -9 -39.5 -117.5t-55.5 -158.5
q-51 -146 -69 -220t-42 -132.5t-32 -90.5l25 -3l155 10q127 0 127 -61q0 -57 -113 -57h-9l-191 2v-63l148 8q160 0 160 -75q0 -22 -18.5 -38t-41.5 -16h-108l21 10h-166q0 -104 -15.5 -315t-15.5 -319l1 -48q0 -46 -14 -74t-46 -28q-74 0 -74 48v5q18 44 30.5 319t12.5 409
h-7l-190 -11h-14l-31 1q-36 20 -54 60l16 52q135 0 289 8q2 24 2 71l-1 4l-153 -10q-132 0 -132 62v7z" />
    <glyph glyph-name="brokenbar" unicode="&#xa6;" horiz-adv-x="325" 
d="M220 1393l-2 -108l-3 -408q0 -21 -15.5 -36t-36.5 -15q-51 0 -51 194l-8 490q0 74 71 74q45 0 45 -191zM157 695q61 0 61 -74l2 -637q0 -64 -51 -64q-21 0 -36.5 15t-15.5 36l-3 368l1 305q0 19 12 35t30 16z" />
    <glyph glyph-name="section" unicode="&#xa7;" horiz-adv-x="520" 
d="M323.5 746.5q-16.5 36.5 -21 47t-18.5 35t-18.5 31.5t-21.5 34t-20 31q-44 -55 -44 -114.5t18.5 -107t38 -77t54.5 -77.5q49 42 49 101.5t-16.5 96zM415 795.5q25 -76.5 25 -175t-89 -155.5q74 -116 74 -219q1 -130 -83 -206q-44 -40 -91 -39.5t-79.5 23.5t-32.5 50
q0 47 50 47q22 0 43 -12q42 1 67.5 51t25.5 96.5t-18 92.5t-45.5 82.5t-59.5 80.5q-30 44 -58 86q-64 96 -64 222q0 58 23.5 111.5t67.5 86.5q-58 120 -58 257q0 168 167 168q30 0 65.5 -13t35.5 -37t-19 -32.5t-46.5 -9t-55 -2.5t-46.5 -19.5t-19 -66.5t25 -110.5
t61.5 -114.5t72.5 -109.5t61 -133z" />
    <glyph glyph-name="dieresis" unicode="&#xa8;" horiz-adv-x="631" 
d="M220.5 975q-25.5 -21 -55 -21t-45 19t-15.5 49t20 51.5t49.5 21.5t50.5 -20t21 -49.5t-25.5 -50.5zM404 975q-19 21 -19 49t22 51t50 23t48.5 -22.5t20.5 -52t-23 -49.5t-51.5 -20t-47.5 21z" />
    <glyph glyph-name="copyright" unicode="&#xa9;" horiz-adv-x="1207" 
d="M144 329q-21 97 -33.5 319.5t-12.5 284t3.5 131t15.5 160t31 169.5t53.5 158t78.5 135q100 126 259 126q95 0 176.5 -40.5t139 -107.5t103.5 -158t74 -187t46 -201q32 -184 32.5 -313.5t-5 -202.5t-21 -153.5t-40.5 -146.5t-65.5 -127t-94.5 -103q-117 -92 -289 -92
t-274 62q-133 80 -177 287zM973 483l24 106v305q0 59 -17.5 132t-31 144t-40 156.5t-84.5 177.5q-62 100 -180 180q-42 28 -98 28.5t-114.5 -40.5t-95 -111.5t-62 -150.5t-37.5 -173q-22 -170 -22 -297h1q0 -41 9.5 -195t13 -207t8 -98t25 -128t52 -123t92.5 -74t150.5 -34
t160.5 26.5t119 79.5q87 97 130 277q-3 9 -3 19zM441 911h-1q-9 -37 -9 -102v-51q0 -303 101 -393q37 -33 78 -33t68.5 17t42.5 37q40 54 73 54q60 0 60 -68q0 -40 -42 -76q-83 -70 -184 -71q-53 0 -115 30t-77 36q-83 158 -104 247.5t-21 274.5v12q0 174 8 241t18 123
t23.5 96.5t35.5 83t50 69.5q62 61 144 61t163.5 -73.5t81.5 -150.5q0 -21 -14.5 -36.5t-39 -15.5t-45 17t-33.5 41t-25 48q-30 58 -70.5 58t-69 -28.5t-44 -68t-27.5 -98.5t-16 -102.5t-8 -99t-6 -69.5z" />
    <glyph glyph-name="ordfeminine" unicode="&#xaa;" 
d="M475 76l-382 -10q-32 0 -55.5 14t-23.5 32.5t14.5 33t35.5 14.5h506q50 0 50 -36q0 -17 -16 -31.5t-58.5 -14.5t-70.5 -2zM451 645q-11 57 -33 246t-38 293q-89 -378 -110 -506q35 -23 181 -33zM619 311v-2q0 -45 -34 -58q-43 0 -67 14t-24 54q0 87 -30 253l-202 30
q-19 -68 -29 -149t-19 -118q-18 -76 -67 -76q-24 0 -44.5 15.5t-20.5 39.5q0 154 72 392q80 267 98 394q2 14 6 82q10 150 38 191h69q46 0 95 -148q48 -147 82 -339q76 -438 77 -575z" />
    <glyph glyph-name="guillemotleft" unicode="&#xab;" horiz-adv-x="681" 
d="M573 1447l7 -1l45 -35q-17 -134 -139 -374q-118 -232 -119 -335q0 -15 137.5 -292t173.5 -341l26 -20q-2 -27 -15.5 -49t-40 -22t-38.5 4q-32 10 -360 716q2 56 106 282t111.5 252.5t14.5 56t14 51.5q6 22 18 50q24 58 59 57zM307 1485l19 4q24 0 43.5 -13t20.5 -36
q-47 -108 -139.5 -365t-154.5 -388q20 -100 191 -382q166 -274 166 -318q0 -22 -20.5 -34t-42.5 -12t-122 169.5t-191.5 356.5t-91.5 220t55.5 173t125 306.5t80.5 194.5q3 27 22 64t39 58v2z" />
    <glyph glyph-name="logicalnot" unicode="&#xac;" horiz-adv-x="467" 
d="M591 733l-561 -22q-21 0 -36 15.5t-15 36.5q0 72 218 72l183 -7l335 20q25 0 46 -17t21 -47.5t-19 -63.5q0 -108 24 -183q-3 -24 -17.5 -43t-36.5 -19q-63 0 -63 117l2 67q0 41 -5 68z" />
    <glyph glyph-name="uni00AD" unicode="&#xad;" horiz-adv-x="646" 
d="M523 781.5q21 -16.5 21 -42t-48 -43.5q-49 -18 -120 -26q-128 -14 -207 -14q-26 0 -46.5 17t-20.5 42t48 43q50 18 120 26q123 14 206 14q26 0 47 -16.5z" />
    <glyph glyph-name="registered" unicode="&#xae;" horiz-adv-x="1216" 
d="M778 -165.5q-65 -24.5 -144.5 -24.5t-148 20t-119 53t-91.5 84.5t-68 105.5t-47 125.5t-31 135.5t-17 144q-10 118 -10 279v160q0 263 19 382t39 197.5t47 140t67.5 119.5t90.5 96q111 86 267 86q88 0 170 -52t140 -131q43 -26 78 -155q36 -130 55 -290q39 -329 39 -455
t-0.5 -172t-5 -136t-12.5 -149.5t-24.5 -143.5t-39.5 -140.5t-60 -119t-83 -99t-111 -61zM1000 706l1 160q0 253 -24 440.5t-103 348.5q-25 50 -101.5 113.5t-125.5 63.5q-425 0 -425 -878q0 -773 140 -927q21 -23 65.5 -52t57.5 -39l60 -12l19 -8q196 3 298 139
q63 85 86 171t32 138q8 50 13 118q7 94 7 224zM424 208l1 48q0 167 -17.5 273.5t-17.5 146.5v399q0 63 -12.5 189t-12.5 190q0 105 53 143t138 38t129 -23t68.5 -58t39.5 -86q24 -82 24 -174.5t-13.5 -145t-33.5 -81t-39.5 -46.5t-35.5 -30.5t-19 -21.5q3 -69 182 -655h7
q0 -22 15 -58.5t15 -55.5t-20 -38t-37 -19q-42 0 -87.5 106t-76 234t-62 263.5t-44.5 167.5l-55 -23q-5 -80 -5 -136.5t22.5 -251.5t22.5 -293q0 -67 -56 -67q-28 0 -50.5 18.5t-22.5 46.5zM479 1407l8 -144q0 -173 23 -263q185 75 185 272v8q0 109 -11 142t-22 56
q-22 47 -80 47t-80.5 -30.5t-22.5 -87.5z" />
    <glyph glyph-name="macron" unicode="&#xaf;" horiz-adv-x="651" 
d="M194 800l144 4q208 0 208 -55q0 -45 -66 -45l-148 -4q-228 0 -228 56q0 44 90 44z" />
    <glyph glyph-name="degree" unicode="&#xb0;" horiz-adv-x="728" 
d="M165 902.5q64 67.5 168 67.5q187 0 259 -116q36 -57 35.5 -103.5t-7 -80.5t-26.5 -76t-50 -76q-72 -80 -210 -80q-68 0 -116.5 29t-72.5 76q-44 86 -44 189t64 170.5zM343 901q-61 0 -100 -38q-65 -63 -65 -198q0 -48 50.5 -99t108 -51t98 16.5t63 41t36.5 55.5
q24 52 24.5 90t-9.5 65t-32 55t-67.5 45.5t-106.5 17.5z" />
    <glyph glyph-name="plusminus" unicode="&#xb1;" horiz-adv-x="773" 
d="M614 145l-432 -10q-82 0 -82 65q0 21 12.5 33.5t33.5 12.5h302l126 7q98 0 98 -61q0 -47 -58 -47zM428 553l20 -164q0 -25 -21 -40.5t-46 -15.5t-46 14.5t-21 37.5l6 199l-18 15l-114 -9q-88 0 -88 65q0 21 12.5 37t33.5 16l122 -7q25 0 46 4l-12 150q0 113 66 113
q24 0 42 -17.5t18 -41.5v-5l-8 -20q0 -183 28 -183l118 8q106 0 106 -62q0 -24 -17 -40t-41 -16l-120 11q-66 0 -66 -49z" />
    <glyph glyph-name="uni00B2" unicode="&#xb2;" horiz-adv-x="529" 
d="M38 0zM425 4l-312 -19q-29 0 -52 17t-23 45v8q43 51 72 134.5t41 109.5q117 259 174 475t57 467t-98 259q-34 -18 -46 -98q-12 -75 -61 -75t-49 63q0 100 58 162q32 34 74 34v1q106 0 154 -66q35 -49 44.5 -88t13 -62t5.5 -59q3 -54 3 -157t-36 -268t-78.5 -279.5
t-106.5 -275.5t-92 -246q124 21 242 21q43 -31 43 -55.5t-27 -47.5z" />
    <glyph glyph-name="uni00B3" unicode="&#xb3;" horiz-adv-x="545" 
d="M0 0zM222 847q-63 0 -63 42q0 32 45 80q86 93 86 181q0 79 -14 163q-27 164 -93 164q-25 0 -41.5 -18.5t-23.5 -40t-24.5 -40t-43 -18.5t-42.5 16.5t-21 39.5q28 69 79.5 113t110.5 44t97 -31t59.5 -78t35.5 -110q23 -104 23 -182t-9.5 -107t-19 -44.5t-32.5 -48.5
t-31 -45q126 -75 163 -425q8 -76 8 -131t-2 -90.5t-8.5 -83.5t-20.5 -83q-16 -36 -38 -68q-46 -66 -143 -66q-77 0 -114 31.5t-37 58t5.5 33.5t25.5 7t31 -12q45 -31 73 -34q125 0 125 230q0 300 -54 434q-27 66 -71 121q-6 -2 -21 -2z" />
    <glyph glyph-name="acute" unicode="&#xb4;" horiz-adv-x="453" 
d="M41 1318q0 11 28.5 37.5t129 112.5t121.5 105q12 4 27 4t36 -25.5t21 -49.5t-15 -34q-78 -57 -298 -173q-8 -4 -19 -4t-21 8t-10 19z" />
    <glyph glyph-name="uni00B5" unicode="&#xb5;" horiz-adv-x="641" 
d="M465 1307l-1 34q0 24 11 36t39 12q27 -1 41 -9q13 -8 19 -24q8 -25 9 -66l-14 -206l-9 -171l2 -35q0 -9 -5 -32t-10 -116t-7 -187t-15.5 -200t-36 -186.5t-71.5 -134t-118 -53.5t-117 42q4 -118 4 -177q0 -82 -65 -82q-21 0 -33.5 12.5t-12.5 33.5v301l-7 376v9l11 529
q0 177 -25 293l22 49q84 0 84 -123v-557q0 -73 14.5 -217t14.5 -217q0 -210 130 -210q32 0 57 69.5t38 166.5q25 187 25 292q26 462 26 748z" />
    <glyph glyph-name="uni00B5" unicode="&#x3bc;" horiz-adv-x="641" 
d="M465 1307l-1 34q0 24 11 36t39 12q27 -1 41 -9q13 -8 19 -24q8 -25 9 -66l-14 -206l-9 -171l2 -35q0 -9 -5 -32t-10 -116t-7 -187t-15.5 -200t-36 -186.5t-71.5 -134t-118 -53.5t-117 42q4 -118 4 -177q0 -82 -65 -82q-21 0 -33.5 12.5t-12.5 33.5v301l-7 376v9l11 529
q0 177 -25 293l22 49q84 0 84 -123v-557q0 -73 14.5 -217t14.5 -217q0 -210 130 -210q32 0 57 69.5t38 166.5q25 187 25 292q26 462 26 748z" />
    <glyph glyph-name="paragraph" unicode="&#xb6;" horiz-adv-x="887" 
d="M506 1200l-20 497l2 43q-27 8 -82 8q-106 0 -181.5 -93t-75.5 -201l-1 1q0 -189 139 -235q74 -24 204 -24zM803 1738l-23 1l14 -597l-12 -877l12 -229q0 -24 -17 -40t-41 -16q-75 0 -75 123l19 1074l-15 446l3 66q0 80 -62 80q-9 0 -9 -99.5t13.5 -335.5t13.5 -371.5
t-19 -440.5t-19 -458q0 -36 -12.5 -54t-43 -18t-48 18.5t-17.5 45.5q0 152 21.5 454t21.5 454l-4 134q-215 0 -325 56q-45 22 -81 66q-42 49 -54 129q-4 23 -8 35q0 182 56 276q59 99 165.5 139t273.5 55q22 22 50 22t57.5 -8t34.5 -9l-1 -1l56 7l9 -11q78 -5 109 -34
q14 -13 14 -32.5t-17 -34.5t-40 -15z" />
    <glyph glyph-name="periodcentered" unicode="&#xb7;" horiz-adv-x="295" 
d="M94.5 655.5q-20.5 22.5 -20.5 52t23 53.5t53 24t52 -24t22 -55.5t-23 -52t-54.5 -20.5t-52 22.5z" />
    <glyph glyph-name="cedilla" unicode="&#xb8;" horiz-adv-x="404" 
d="M82 -207l9 166q0 39 6 59h56q-10 -51 -13 -109q109 -15 159 -78t50 -136t-53 -126t-107 -53t-92.5 15t-38.5 38.5t14 36.5t30.5 13t42.5 -11t51.5 -11t45.5 28.5t20 66t-26.5 63.5t-88.5 26t-65 12z" />
    <glyph glyph-name="uni00B9" unicode="&#xb9;" horiz-adv-x="559" 
d="M0 0zM241 -8l-61 -1q-34 0 -49 10.5t-15 39.5t9.5 37t49 8t39.5 34q0 201 -31 599t-31 589l3 75q0 96 -71 96l-47 -2q-58 0 -58 44q0 54 165 54q86 0 105 -34q-12 -56 -12 -102.5t15.5 -171.5t15.5 -237t22 -435.5t22 -485.5v-13q48 6 75 6v1q87 0 87 -51q0 -60 -233 -60
z" />
    <glyph glyph-name="ordmasculine" unicode="&#xba;" 
d="M51 736l-2 144q0 498 155 498q238 0 328 -194q52 -112 52 -276v-15l4 -232q0 -392 -273 -392q-113 0 -173 88q-57 85 -70 166q-21 122 -21 213zM478 674l1 134q0 218 -31 309q-36 102 -90 133q-34 19 -72.5 19t-61.5 -18q-24 -17 -35 -51q-19 -58 -19 -143l2 -41
l-10 -189q0 -291 78 -403q28 -40 63.5 -40t62 13t44 33.5t30.5 48.5t20 55q8 26 12 56q6 42 6 84zM564 78l-471 -12q-32 0 -55.5 14t-23.5 32.5t14.5 33t35.5 14.5h506q50 0 50 -36q0 -17 -16 -31.5t-40 -14.5z" />
    <glyph glyph-name="guillemotright" unicode="&#xbb;" horiz-adv-x="682" 
d="M70 -19l-38 -4q-25 0 -39 22.5t-15 49.5l25 20q40 75 175 347t135 286q-1 102 -91 280q-38 74 -74 147q-90 177 -92 282l45 35l10 -2q42 -20 60 -62q16 -39 24 -76t17 -69t113 -256t106 -283l-357 -717h-4zM357 1490l15 -4h3v-2l1 1q21 -21 39.5 -57t22.5 -65
q10 -26 80 -194q180 -432 180 -471.5t-91.5 -227t-191 -357t-122 -169.5t-43 12t-20.5 36t51.5 118t114.5 198q172 285 192 381q-60 126 -111 295q-92 309 -185 449q2 25 20.5 41t44.5 16z" />
    <glyph glyph-name="onequarter" unicode="&#xbc;" horiz-adv-x="1551" 
d="M0 0zM1340 587l19 573q0 21 18 33.5t35 12.5l32 -36v-98q0 -319 -4 -476l59 5q61 0 61 -44q0 -50 -82 -50q-33 0 -33 -18q0 -69 5.5 -190t15.5 -144q-4 -24 -4 -44t9 -35v-37q0 -77 -48 -77q-31 0 -48 32t-17 65v7q11 38 11 74l-15 199l2 89q0 35 -4 63l-112 -11v-1
q-38 0 -80 33q0 46 9 79q-9 48 -9 116.5t15.5 209.5t15.5 207v379q0 20 7 30t31 10t43 -14t19 -37l-9 -159l-1 -37q0 -21 4 -37v-7q6 -54 6 -125t-14.5 -244.5t-14.5 -228.5t3 -78q35 1 75 11zM614 -54q-24 0 -24 45q0 17 9.5 50t174.5 701.5t208 810.5q5 14 19.5 14
t26 -12.5t11.5 -26t-21.5 -125.5t-170.5 -704t-213 -730q-5 -23 -20 -23zM241 -8l-61 -1q-34 0 -49 10.5t-15 39.5t9.5 37t49 8t39.5 34q0 201 -31 599t-31 589l3 75q0 96 -71 96l-47 -2q-58 0 -58 44q0 54 165 54q86 0 105 -34q-12 -56 -12 -102.5t15.5 -171.5t15.5 -237
t22 -435.5t22 -485.5v-13q48 6 75 6v1q87 0 87 -51q0 -60 -233 -60z" />
    <glyph glyph-name="onehalf" unicode="&#xbd;" horiz-adv-x="1600" 
d="M0 0zM1496 4l-312 -19q-29 0 -52 17t-23 45v8q43 51 72 134.5t41 109.5q117 259 174 475t57 467t-98 259q-34 -18 -46 -98q-12 -75 -61 -75t-49 63q0 100 58 162q32 34 74 34v1q106 0 154 -66q35 -49 44.5 -88t13 -62t5.5 -59q3 -54 3 -157t-36 -268t-78.5 -279.5
t-106.5 -275.5t-92 -246q124 21 242 21q43 -31 43 -55.5t-27 -47.5zM614 -54q-24 0 -24 45q0 17 9.5 50t174.5 701.5t208 810.5q5 14 19.5 14t26 -12.5t11.5 -26t-21.5 -125.5t-170.5 -704t-213 -730q-5 -23 -20 -23zM241 -8l-61 -1q-34 0 -49 10.5t-15 39.5t9.5 37t49 8
t39.5 34q0 201 -31 599t-31 589l3 75q0 96 -71 96l-47 -2q-58 0 -58 44q0 54 165 54q86 0 105 -34q-12 -56 -12 -102.5t15.5 -171.5t15.5 -237t22 -435.5t22 -485.5v-13q48 6 75 6v1q87 0 87 -51q0 -60 -233 -60z" />
    <glyph glyph-name="threequarters" unicode="&#xbe;" horiz-adv-x="1537" 
d="M0 0zM1326 587l19 573q0 21 18 33.5t35 12.5l32 -36v-98q0 -319 -4 -476l59 5q61 0 61 -44q0 -50 -82 -50q-33 0 -33 -18q0 -69 5.5 -190t15.5 -144q-4 -24 -4 -44t9 -35v-37q0 -77 -48 -77q-31 0 -48 32t-17 65v7q11 38 11 74l-15 199l2 89q0 35 -4 63l-112 -11v-1
q-38 0 -80 33q0 46 9 79q-9 48 -9 116.5t15.5 209.5t15.5 207v379q0 20 7 30t31 10t43 -14t19 -37l-9 -159l-1 -37q0 -21 4 -37v-7q6 -54 6 -125t-14.5 -244.5t-14.5 -228.5t3 -78q35 1 75 11zM600 -54q-24 0 -24 45q0 17 9.5 50t174.5 701.5t208 810.5q5 14 19.5 14
t26 -12.5t11.5 -26t-21.5 -125.5t-170.5 -704t-213 -730q-5 -23 -20 -23zM222 847q-63 0 -63 42q0 32 45 80q86 93 86 181q0 79 -14 163q-27 164 -93 164q-25 0 -41.5 -18.5t-23.5 -40t-24.5 -40t-43 -18.5t-42.5 16.5t-21 39.5q28 69 79.5 113t110.5 44t97 -31t59.5 -78
t35.5 -110q23 -104 23 -182t-9.5 -107t-19 -44.5t-32.5 -48.5t-31 -45q126 -75 163 -425q8 -76 8 -131t-2 -90.5t-8.5 -83.5t-20.5 -83q-16 -36 -38 -68q-46 -66 -143 -66q-77 0 -114 31.5t-37 58t5.5 33.5t25.5 7t31 -12q45 -31 73 -34q125 0 125 230q0 300 -54 434
q-27 66 -71 121q-6 -2 -21 -2z" />
    <glyph glyph-name="questiondown" unicode="&#xbf;" horiz-adv-x="480" 
d="M85 0zM177 1296q0 78 83 78q29 0 50.5 -23.5t21.5 -52.5t-25 -54.5t-53.5 -25.5t-52.5 26.5t-24 51.5zM342 163q58 -1 58 -133q0 -72 -11 -111.5t-44 -69.5t-82 -30t-82.5 18.5t-51.5 44.5t-28 68q-16 61 -16 160.5t20 204.5q18 105 42 184q62 210 63 501q0 99 -1 137
q36 0 41.5 3t9.5 3q38 0 50 -46q0 -226 -57.5 -515t-57.5 -476t61 -187q39 0 39 91q0 16 -14 111q0 9 25 25.5t36 16.5z" />
    <glyph glyph-name="Agrave" unicode="&#xc0;" horiz-adv-x="656" 
d="M34 1zM58.5 1867.5q21.5 28.5 43.5 28.5t175 -84t153 -111q0 -14 -24.5 -14t-196.5 55.5t-172 73.5q0 23 21.5 51.5zM527 1q-63 0 -63 53v267q-29 20 -104.5 34t-134.5 18q-21 -36 -34.5 -104t-28 -137t-38.5 -109q-80 0 -90 41q28 40 91 409t103.5 577.5t87.5 350.5
t90 142t66 -18q0 -73 40 -395t40 -416.5t21.5 -314t21.5 -329.5q0 -69 -68 -69zM408.5 1015.5q-14.5 164.5 -14.5 199t1 39.5q-32 -33 -92.5 -367t-64.5 -423q85 -23 142.5 -23t81.5 6q-3 41 -21 222.5t-32.5 346z" />
    <glyph glyph-name="Aacute" unicode="&#xc1;" horiz-adv-x="656" 
d="M34 1zM317 1714q0 11 28.5 37.5t129 112.5t121.5 105q12 4 27 4t36 -25.5t21 -49.5t-15 -34q-78 -57 -298 -173q-8 -4 -19 -4t-21 8t-10 19zM527 1q-63 0 -63 53v267q-29 20 -104.5 34t-134.5 18q-21 -36 -34.5 -104t-28 -137t-38.5 -109q-80 0 -90 41q28 40 91 409
t103.5 577.5t87.5 350.5t90 142t66 -18q0 -73 40 -395t40 -416.5t21.5 -314t21.5 -329.5q0 -69 -68 -69zM408.5 1015.5q-14.5 164.5 -14.5 199t1 39.5q-32 -33 -92.5 -367t-64.5 -423q85 -23 142.5 -23t81.5 6q-3 41 -21 222.5t-32.5 346z" />
    <glyph glyph-name="Acircumflex" unicode="&#xc2;" horiz-adv-x="656" 
d="M34 1zM336 1704.5q-12 -13.5 -25.5 -13.5t-27 19t-13.5 50.5t33 123t81.5 173.5t83.5 82t83.5 -157t48.5 -238q0 -24 -18.5 -40.5t-41.5 -16.5q-55 1 -77 189q-10 86 -13 97q0 -6 -15.5 -48.5t-27 -74.5t-23 -58t-24 -50t-24.5 -37.5zM527 1q-63 0 -63 53v267
q-29 20 -104.5 34t-134.5 18q-21 -36 -34.5 -104t-28 -137t-38.5 -109q-80 0 -90 41q28 40 91 409t103.5 577.5t87.5 350.5t90 142t66 -18q0 -73 40 -395t40 -416.5t21.5 -314t21.5 -329.5q0 -69 -68 -69zM408.5 1015.5q-14.5 164.5 -14.5 199t1 39.5q-32 -33 -92.5 -367
t-64.5 -423q85 -23 142.5 -23t81.5 6q-3 41 -21 222.5t-32.5 346z" />
    <glyph glyph-name="Atilde" unicode="&#xc3;" horiz-adv-x="656" 
d="M34 1zM553 1859q11 13 37.5 13t43.5 -16t17 -37q0 -53 -39.5 -92.5t-93 -39.5t-89.5 14q-34 14 -48 30q-36 44 -80 43q-29 -11 -24 -39t-29 -40q-31 0 -52.5 15t-21.5 54t40 74t108 35q25 0 89 -41.5t84 -41.5t30.5 13t13.5 28t14 28zM527 1q-63 0 -63 53v267
q-29 20 -104.5 34t-134.5 18q-21 -36 -34.5 -104t-28 -137t-38.5 -109q-80 0 -90 41q28 40 91 409t103.5 577.5t87.5 350.5t90 142t66 -18q0 -73 40 -395t40 -416.5t21.5 -314t21.5 -329.5q0 -69 -68 -69zM408.5 1015.5q-14.5 164.5 -14.5 199t1 39.5q-32 -33 -92.5 -367
t-64.5 -423q85 -23 142.5 -23t81.5 6q-3 41 -21 222.5t-32.5 346z" />
    <glyph glyph-name="Adieresis" unicode="&#xc4;" horiz-adv-x="656" 
d="M34 1zM339.5 1708q-25.5 -21 -55 -21t-45 19t-15.5 49t20 51.5t49.5 21.5t50.5 -20t21 -49.5t-25.5 -50.5zM523 1708q-19 21 -19 49t22 51t50 23t48.5 -22.5t20.5 -52t-23 -49.5t-51.5 -20t-47.5 21zM527 1q-63 0 -63 53v267q-29 20 -104.5 34t-134.5 18
q-21 -36 -34.5 -104t-28 -137t-38.5 -109q-80 0 -90 41q28 40 91 409t103.5 577.5t87.5 350.5t90 142t66 -18q0 -73 40 -395t40 -416.5t21.5 -314t21.5 -329.5q0 -69 -68 -69zM408.5 1015.5q-14.5 164.5 -14.5 199t1 39.5q-32 -33 -92.5 -367t-64.5 -423q85 -23 142.5 -23
t81.5 6q-3 41 -21 222.5t-32.5 346z" />
    <glyph glyph-name="Aring" unicode="&#xc5;" horiz-adv-x="656" 
d="M34 1zM244.5 2031.5q63.5 67.5 168.5 67.5q97 0 144 -23t70.5 -42.5t37.5 -40.5q14 -22 24 -46q18 -43 18 -78.5t-7 -69.5t-27 -76q-19 -42 -50 -76q-74 -80 -210 -80q-150 0 -205 141q-27 69 -27 162.5t63.5 161zM511.5 2018q-39.5 12 -87.5 12t-82 -21q-33 -21 -51 -57
q-34 -69 -34 -158q0 -48 50.5 -99t104 -51t89 11.5t58.5 30.5t40 41q16 22 24 48q16 51 16 77.5t-6 48t-21 45.5t-38 42t-62.5 30zM527 1q-63 0 -63 53v267q-29 20 -104.5 34t-134.5 18q-21 -36 -34.5 -104t-28 -137t-38.5 -109q-80 0 -90 41q28 40 91 409t103.5 577.5
t87.5 350.5t90 142t66 -18q0 -73 40 -395t40 -416.5t21.5 -314t21.5 -329.5q0 -69 -68 -69zM408.5 1015.5q-14.5 164.5 -14.5 199t1 39.5q-32 -33 -92.5 -367t-64.5 -423q85 -23 142.5 -23t81.5 6q-3 41 -21 222.5t-32.5 346z" />
    <glyph glyph-name="AE" unicode="&#xc6;" horiz-adv-x="879" 
d="M453 706q1 50 4.5 206t3.5 242t-2 129q-113 -377 -159 -595q97 6 153 18zM555 82l227 21q25 0 46.5 -13.5t21.5 -36.5q0 -65 -244 -65h-32q-16 0 -42 -14.5t-39 -16.5l-45 45l2 1q17 176 17 250l-10 380q-15 -1 -43 -3q-29 0 -47 -2q-52 -4 -87 -17l-101 -385
q-2 -9 -10.5 -54t-16.5 -78t-26.5 -63t-38 -30t-31.5 15t-12 32q0 232 352 1332q0 16 10 41t18 46.5t16 30.5q7 8 18 22q19 24 54 24l158 10q87 0 87 -56v-6l-21 -42q-103 0 -194 -10l14 -274l-6 -450q20 2 70 10.5t78 8.5h10l42 -48q0 -66 -113 -66h-9l-79 1z" />
    <glyph glyph-name="Ccedilla" unicode="&#xc7;" horiz-adv-x="649" 
d="M51 0zM338 -241l9 166q0 39 6 59h56q-10 -51 -13 -109q109 -15 159 -78t50 -136t-53 -126t-107 -53t-92.5 15t-38.5 38.5t14 36.5t30.5 13t42.5 -11t51.5 -11t45.5 28.5t20 66t-26.5 63.5t-88.5 26t-65 12zM176 999l-18 -143v-49q0 -238 10.5 -315t21.5 -138t28.5 -104
t41.5 -81q48 -76 133 -76q35 0 87 36.5t79 36.5t58 -31q0 -103 -117 -147q-58 -21 -126 -21t-116 27.5t-80 71t-56 111.5t-38 135q-12 68 -20 156q-12 148 -13 324l2 245q0 117 14 189q-6 33 -6 64q0 126 94 200.5t232 74.5q49 0 96 -27.5t47 -72.5q0 -22 -17 -34t-57.5 -12
t-55.5 25v-1h-28v5q-119 0 -162 -74q-40 -68 -40 -234z" />
    <glyph glyph-name="Egrave" unicode="&#xc8;" horiz-adv-x="457" 
d="M0 0zM-173.5 1867.5q21.5 28.5 43.5 28.5t175 -84t153 -111q0 -14 -24.5 -14t-196.5 55.5t-172 73.5q0 23 21.5 51.5zM293 750l-51 2q-30 0 -42 -15v-632q105 6 114 6q117 0 117 -54v-7q-14 -28 -48 -43t-60 -17t-67 -2h-64q-76 0 -94 30q-8 14 -8 37v1190q0 35 -14 104
t-14 105v7q34 56 51 72l152 18q31 0 62.5 -18.5t31.5 -48.5q0 -61 -93 -61l-59 2q-15 0 -22 -1l16 -338q0 -41 -5 -119.5t-5 -114.5q11 2 30 7q42 11 65.5 11t42 -17t18.5 -41t-15 -43t-39 -19z" />
    <glyph glyph-name="Eacute" unicode="&#xc9;" horiz-adv-x="457" 
d="M62 0zM141 1714q0 11 28.5 37.5t129 112.5t121.5 105q12 4 27 4t36 -25.5t21 -49.5t-15 -34q-78 -57 -298 -173q-8 -4 -19 -4t-21 8t-10 19zM293 750l-51 2q-30 0 -42 -15v-632q105 6 114 6q117 0 117 -54v-7q-14 -28 -48 -43t-60 -17t-67 -2h-64q-76 0 -94 30
q-8 14 -8 37v1190q0 35 -14 104t-14 105v7q34 56 51 72l152 18q31 0 62.5 -18.5t31.5 -48.5q0 -61 -93 -61l-59 2q-15 0 -22 -1l16 -338q0 -41 -5 -119.5t-5 -114.5q11 2 30 7q42 11 65.5 11t42 -17t18.5 -41t-15 -43t-39 -19z" />
    <glyph glyph-name="Ecircumflex" unicode="&#xca;" horiz-adv-x="457" 
d="M14 0zM80 1704.5q-12 -13.5 -25.5 -13.5t-27 19t-13.5 50.5t33 123t81.5 173.5t83.5 82t83.5 -157t48.5 -238q0 -24 -18.5 -40.5t-41.5 -16.5q-55 1 -77 189q-10 86 -13 97q0 -6 -15.5 -48.5t-27 -74.5t-23 -58t-24 -50t-24.5 -37.5zM293 750l-51 2q-30 0 -42 -15v-632
q105 6 114 6q117 0 117 -54v-7q-14 -28 -48 -43t-60 -17t-67 -2h-64q-76 0 -94 30q-8 14 -8 37v1190q0 35 -14 104t-14 105v7q34 56 51 72l152 18q31 0 62.5 -18.5t31.5 -48.5q0 -61 -93 -61l-59 2q-15 0 -22 -1l16 -338q0 -41 -5 -119.5t-5 -114.5q11 2 30 7q42 11 65.5 11
t42 -17t18.5 -41t-15 -43t-39 -19z" />
    <glyph glyph-name="Edieresis" unicode="&#xcb;" horiz-adv-x="457" 
d="M0 0zM83.5 1708q-25.5 -21 -55 -21t-45 19t-15.5 49t20 51.5t49.5 21.5t50.5 -20t21 -49.5t-25.5 -50.5zM267 1708q-19 21 -19 49t22 51t50 23t48.5 -22.5t20.5 -52t-23 -49.5t-51.5 -20t-47.5 21zM293 750l-51 2q-30 0 -42 -15v-632q105 6 114 6q117 0 117 -54v-7
q-14 -28 -48 -43t-60 -17t-67 -2h-64q-76 0 -94 30q-8 14 -8 37v1190q0 35 -14 104t-14 105v7q34 56 51 72l152 18q31 0 62.5 -18.5t31.5 -48.5q0 -61 -93 -61l-59 2q-15 0 -22 -1l16 -338q0 -41 -5 -119.5t-5 -114.5q11 2 30 7q42 11 65.5 11t42 -17t18.5 -41t-15 -43
t-39 -19z" />
    <glyph glyph-name="Igrave" unicode="&#xcc;" horiz-adv-x="432" 
d="M0 3zM-29.5 1867.5q21.5 28.5 43.5 28.5t175 -84t153 -111q0 -14 -24.5 -14t-196.5 55.5t-172 73.5q0 23 21.5 51.5zM301 1442l-36 1q-20 0 -29.5 -8.5t-9.5 -33.5q0 -200 25 -599t25 -599v-79q21 3 42 3q85 0 85 -72v-12l-51 -35l-139 -5q-177 0 -177 61q0 49 62 49
l43 -3q30 0 30 48q0 158 -19 473.5t-19 473.5l4 209q0 66 -5 114q-27 -9 -48 -9q-48 0 -48 49q0 25 31 43.5t77 26.5q86 15 127.5 15t59.5 -16.5t18 -39t-13.5 -39t-34.5 -16.5z" />
    <glyph glyph-name="Iacute" unicode="&#xcd;" horiz-adv-x="432" 
d="M36 3zM108 1714q0 11 28.5 37.5t129 112.5t121.5 105q12 4 27 4t36 -25.5t21 -49.5t-15 -34q-78 -57 -298 -173q-8 -4 -19 -4t-21 8t-10 19zM301 1442l-36 1q-20 0 -29.5 -8.5t-9.5 -33.5q0 -200 25 -599t25 -599v-79q21 3 42 3q85 0 85 -72v-12l-51 -35l-139 -5
q-177 0 -177 61q0 49 62 49l43 -3q30 0 30 48q0 158 -19 473.5t-19 473.5l4 209q0 66 -5 114q-27 -9 -48 -9q-48 0 -48 49q0 25 31 43.5t77 26.5q86 15 127.5 15t59.5 -16.5t18 -39t-13.5 -39t-34.5 -16.5z" />
    <glyph glyph-name="Icircumflex" unicode="&#xce;" horiz-adv-x="432" 
d="M0 3zM47 1704.5q-12 -13.5 -25.5 -13.5t-27 19t-13.5 50.5t33 123t81.5 173.5t83.5 82t83.5 -157t48.5 -238q0 -24 -18.5 -40.5t-41.5 -16.5q-55 1 -77 189q-10 86 -13 97q0 -6 -15.5 -48.5t-27 -74.5t-23 -58t-24 -50t-24.5 -37.5zM301 1442l-36 1q-20 0 -29.5 -8.5
t-9.5 -33.5q0 -200 25 -599t25 -599v-79q21 3 42 3q85 0 85 -72v-12l-51 -35l-139 -5q-177 0 -177 61q0 49 62 49l43 -3q30 0 30 48q0 158 -19 473.5t-19 473.5l4 209q0 66 -5 114q-27 -9 -48 -9q-48 0 -48 49q0 25 31 43.5t77 26.5q86 15 127.5 15t59.5 -16.5t18 -39
t-13.5 -39t-34.5 -16.5z" />
    <glyph glyph-name="Idieresis" unicode="&#xcf;" horiz-adv-x="432" 
d="M0 3zM50.5 1708q-25.5 -21 -55 -21t-45 19t-15.5 49t20 51.5t49.5 21.5t50.5 -20t21 -49.5t-25.5 -50.5zM234 1708q-19 21 -19 49t22 51t50 23t48.5 -22.5t20.5 -52t-23 -49.5t-51.5 -20t-47.5 21zM301 1442l-36 1q-20 0 -29.5 -8.5t-9.5 -33.5q0 -200 25 -599t25 -599
v-79q21 3 42 3q85 0 85 -72v-12l-51 -35l-139 -5q-177 0 -177 61q0 49 62 49l43 -3q30 0 30 48q0 158 -19 473.5t-19 473.5l4 209q0 66 -5 114q-27 -9 -48 -9q-48 0 -48 49q0 25 31 43.5t77 26.5q86 15 127.5 15t59.5 -16.5t18 -39t-13.5 -39t-34.5 -16.5z" />
    <glyph glyph-name="Eth" unicode="&#xd0;" horiz-adv-x="810" 
d="M588 754l5 -43q1 -145 -77 -342q-88 -225 -208 -319q-68 -54 -140 -55q-38 0 -69 17.5t-31 52.5q45 47 45 241q0 121 -14 283.5t-17 212.5q-42 -7 -70 -7t-42 17.5t-14 41.5t22 38q33 22 98 22q-1 23 -1 68l6 224q0 54 -22.5 145.5t-22.5 129.5q0 71 157 71h31
q209 0 303 -234q66 -163 66 -450v-95q-5 -9 -5 -19zM190 814q21 -321 21 -504v-196q77 50 134 139.5t87 195.5q56 203 56 405q0 232 -58 366q-59 138 -146 182q-54 28 -122 27v-2q0 -184 21 -503q126 16 159.5 16t51.5 -25t20 -55l-34 -41q-111 0 -190 -5z" />
    <glyph glyph-name="Ntilde" unicode="&#xd1;" horiz-adv-x="737" 
d="M67 0zM467 1870q11 13 37.5 13t43.5 -16t17 -37q0 -53 -39.5 -92.5t-93 -39.5t-89.5 14q-34 14 -48 30q-36 44 -80 43q-29 -11 -24 -39t-29 -40q-31 0 -52.5 15t-21.5 54t40 74t108 35q25 0 89 -41.5t84 -41.5t30.5 13t13.5 28t14 28zM67 1073l14 376v13q0 102 45 102
q41 0 110 -190q126 -345 302 -1139l2 -10l8 714v606q12 51 67 51t55 -80v-12q-12 -25 -12 -60l-13 -757v-626q0 -31 -17 -61t-42 -30q-43 0 -168 421.5t-247 906.5v-672q0 -98 14.5 -292t14.5 -292q0 -19 -23 -31.5t-58.5 -12.5t-35.5 32l10 147q0 106 -13 344t-13 291v261z
" />
    <glyph glyph-name="Ograve" unicode="&#xd2;" horiz-adv-x="650" 
d="M0 0zM-84.5 1867.5q21.5 28.5 43.5 28.5t175 -84t153 -111q0 -14 -24.5 -14t-196.5 55.5t-172 73.5q0 23 21.5 51.5zM582 618l-18 -259v-9q-13 -57 -13 -123t-23 -127.5t-70 -109t-103 -47.5t-102 38t-76 97.5t-53 142t-35.5 161t-20.5 165.5q-12 133 -11.5 206.5
t-0.5 126t-2 94.5v46.5v54.5q1 59 3.5 106t9 101.5t16.5 96t27 81.5q18 41 40 67q50 58 115 58t111 -23.5t77.5 -75.5t55 -101t37 -136.5t21.5 -141.5q8 -55 11 -157q4 -137 4 -214v-118zM349.5 1448.5q-30.5 28.5 -60.5 28.5t-49.5 -21t-33 -59.5t-24 -82.5t-16 -101.5
t-9.5 -104.5q-3 -46 -5 -102q-2 -93 -3 -145v-9q0 -137 21 -295.5t43.5 -259.5t60.5 -171.5t85 -70.5q41 0 69 77q28 78 40 192q20 204 20.5 286.5t0 120.5t-3 110.5t-8.5 136t-15.5 140.5t-25 137t-36 112.5t-51 81z" />
    <glyph glyph-name="Oacute" unicode="&#xd3;" horiz-adv-x="650" 
d="M54 0zM230 1714q0 11 28.5 37.5t129 112.5t121.5 105q12 4 27 4t36 -25.5t21 -49.5t-15 -34q-78 -57 -298 -173q-8 -4 -19 -4t-21 8t-10 19zM582 618l-18 -259v-9q-13 -57 -13 -123t-23 -127.5t-70 -109t-103 -47.5t-102 38t-76 97.5t-53 142t-35.5 161t-20.5 165.5
q-12 133 -11.5 206.5t-0.5 126t-2 94.5v46.5v54.5q1 59 3.5 106t9 101.5t16.5 96t27 81.5q18 41 40 67q50 58 115 58t111 -23.5t77.5 -75.5t55 -101t37 -136.5t21.5 -141.5q8 -55 11 -157q4 -137 4 -214v-118zM349.5 1448.5q-30.5 28.5 -60.5 28.5t-49.5 -21t-33 -59.5
t-24 -82.5t-16 -101.5t-9.5 -104.5q-3 -46 -5 -102q-2 -93 -3 -145v-9q0 -137 21 -295.5t43.5 -259.5t60.5 -171.5t85 -70.5q41 0 69 77q28 78 40 192q20 204 20.5 286.5t0 120.5t-3 110.5t-8.5 136t-15.5 140.5t-25 137t-36 112.5t-51 81z" />
    <glyph glyph-name="Ocircumflex" unicode="&#xd4;" horiz-adv-x="650" 
d="M54 0zM170 1704.5q-12 -13.5 -25.5 -13.5t-27 19t-13.5 50.5t33 123t81.5 173.5t83.5 82t83.5 -157t48.5 -238q0 -24 -18.5 -40.5t-41.5 -16.5q-55 1 -77 189q-10 86 -13 97q0 -6 -15.5 -48.5t-27 -74.5t-23 -58t-24 -50t-24.5 -37.5zM582 618l-18 -259v-9
q-13 -57 -13 -123t-23 -127.5t-70 -109t-103 -47.5t-102 38t-76 97.5t-53 142t-35.5 161t-20.5 165.5q-12 133 -11.5 206.5t-0.5 126t-2 94.5v46.5v54.5q1 59 3.5 106t9 101.5t16.5 96t27 81.5q18 41 40 67q50 58 115 58t111 -23.5t77.5 -75.5t55 -101t37 -136.5
t21.5 -141.5q8 -55 11 -157q4 -137 4 -214v-118zM349.5 1448.5q-30.5 28.5 -60.5 28.5t-49.5 -21t-33 -59.5t-24 -82.5t-16 -101.5t-9.5 -104.5q-3 -46 -5 -102q-2 -93 -3 -145v-9q0 -137 21 -295.5t43.5 -259.5t60.5 -171.5t85 -70.5q41 0 69 77q28 78 40 192
q20 204 20.5 286.5t0 120.5t-3 110.5t-8.5 136t-15.5 140.5t-25 137t-36 112.5t-51 81z" />
    <glyph glyph-name="Otilde" unicode="&#xd5;" horiz-adv-x="650" 
d="M29 0zM408 1859q11 13 37.5 13t43.5 -16t17 -37q0 -53 -39.5 -92.5t-93 -39.5t-89.5 14q-34 14 -48 30q-36 44 -80 43q-29 -11 -24 -39t-29 -40q-31 0 -52.5 15t-21.5 54t40 74t108 35q25 0 89 -41.5t84 -41.5t30.5 13t13.5 28t14 28zM582 618l-18 -259v-9
q-13 -57 -13 -123t-23 -127.5t-70 -109t-103 -47.5t-102 38t-76 97.5t-53 142t-35.5 161t-20.5 165.5q-12 133 -11.5 206.5t-0.5 126t-2 94.5v46.5v54.5q1 59 3.5 106t9 101.5t16.5 96t27 81.5q18 41 40 67q50 58 115 58t111 -23.5t77.5 -75.5t55 -101t37 -136.5
t21.5 -141.5q8 -55 11 -157q4 -137 4 -214v-118zM349.5 1448.5q-30.5 28.5 -60.5 28.5t-49.5 -21t-33 -59.5t-24 -82.5t-16 -101.5t-9.5 -104.5q-3 -46 -5 -102q-2 -93 -3 -145v-9q0 -137 21 -295.5t43.5 -259.5t60.5 -171.5t85 -70.5q41 0 69 77q28 78 40 192
q20 204 20.5 286.5t0 120.5t-3 110.5t-8.5 136t-15.5 140.5t-25 137t-36 112.5t-51 81z" />
    <glyph glyph-name="Odieresis" unicode="&#xd6;" horiz-adv-x="650" 
d="M54 0zM173.5 1708q-25.5 -21 -55 -21t-45 19t-15.5 49t20 51.5t49.5 21.5t50.5 -20t21 -49.5t-25.5 -50.5zM357 1708q-19 21 -19 49t22 51t50 23t48.5 -22.5t20.5 -52t-23 -49.5t-51.5 -20t-47.5 21zM582 618l-18 -259v-9q-13 -57 -13 -123t-23 -127.5t-70 -109
t-103 -47.5t-102 38t-76 97.5t-53 142t-35.5 161t-20.5 165.5q-12 133 -11.5 206.5t-0.5 126t-2 94.5v46.5v54.5q1 59 3.5 106t9 101.5t16.5 96t27 81.5q18 41 40 67q50 58 115 58t111 -23.5t77.5 -75.5t55 -101t37 -136.5t21.5 -141.5q8 -55 11 -157q4 -137 4 -214v-118z
M349.5 1448.5q-30.5 28.5 -60.5 28.5t-49.5 -21t-33 -59.5t-24 -82.5t-16 -101.5t-9.5 -104.5q-3 -46 -5 -102q-2 -93 -3 -145v-9q0 -137 21 -295.5t43.5 -259.5t60.5 -171.5t85 -70.5q41 0 69 77q28 78 40 192q20 204 20.5 286.5t0 120.5t-3 110.5t-8.5 136t-15.5 140.5
t-25 137t-36 112.5t-51 81z" />
    <glyph glyph-name="multiply" unicode="&#xd7;" horiz-adv-x="684" 
d="M479 412q-8 8 -43 46q-92 101 -103 104q-11 -1 -35 -34q-73 -98 -117 -98q-23 0 -42.5 19t-19.5 38.5t27 47.5t62 58.5t45 44.5q-5 5 -58 47q-107 85 -107 138q0 23 18.5 40t36 17t55.5 -32t85 -76.5t54 -50.5q28 14 62 60q63 85 111 85q21 0 37.5 -17t16.5 -38.5
t-22 -44.5q-21 -24 -47 -40q-69 -44 -69 -83q0 -35 79.5 -82.5t79.5 -82t-22.5 -57t-50.5 -22.5z" />
    <glyph glyph-name="Oslash" unicode="&#xd8;" horiz-adv-x="728" 
d="M329 1477q-49 -1 -77 -81q-31 -88 -38 -164.5t-11 -123.5q-3 -46 -5 -102q-2 -93 -3 -145v-9q0 -204 45 -456l182 1019q-40 62 -93 62zM471 1299l-195 -1060q53 -184 129 -184q41 0 69 77q28 78 40 192q20 204 21 329q0 427 -64 646zM628 618l-18 -259v-9
q-13 -57 -13 -123t-23 -127.5t-70 -109t-99 -47.5t-87 26t-68 78l-72 -327l-45 56l62 367q-53 138 -72.5 324t-19.5 332l-3 240q0 208 17.5 287.5t34 122.5t38.5 72q50 64 125.5 64t129.5 -40l45 254h79l-64 -318q124 -181 124 -747z" />
    <glyph glyph-name="Ugrave" unicode="&#xd9;" horiz-adv-x="699" 
d="M0 0zM-45.5 1867.5q21.5 28.5 43.5 28.5t175 -84t153 -111q0 -14 -24.5 -14t-196.5 55.5t-172 73.5q0 23 21.5 51.5zM52 1115l2 320q-15 17 -15 42t17.5 44t41.5 19q74 0 74 -146l19 -712q12 -27 20.5 -109t8.5 -127.5t14.5 -112t40 -134.5t69 -116t82.5 -48t58 18.5
t26 52.5q11 54 11 113v400q0 65 -13 193t-13 193v14l-4 119l-15 351q0 25 25 40.5t52 15.5l50 -48v-34l-15 -125q0 -171 18.5 -515t18.5 -465.5t-3.5 -162t-15.5 -86.5t-33 -76q-49 -70 -150 -70q-125 -1 -201 109q-80 116 -112 278q-38 191 -46 335q-12 217 -12 430z" />
    <glyph glyph-name="Uacute" unicode="&#xda;" horiz-adv-x="699" 
d="M39 0zM269 1714q0 11 28.5 37.5t129 112.5t121.5 105q12 4 27 4t36 -25.5t21 -49.5t-15 -34q-78 -57 -298 -173q-8 -4 -19 -4t-21 8t-10 19zM52 1115l2 320q-15 17 -15 42t17.5 44t41.5 19q74 0 74 -146l19 -712q12 -27 20.5 -109t8.5 -127.5t14.5 -112t40 -134.5
t69 -116t82.5 -48t58 18.5t26 52.5q11 54 11 113v400q0 65 -13 193t-13 193v14l-4 119l-15 351q0 25 25 40.5t52 15.5l50 -48v-34l-15 -125q0 -171 18.5 -515t18.5 -465.5t-3.5 -162t-15.5 -86.5t-33 -76q-49 -70 -150 -70q-125 -1 -201 109q-80 116 -112 278
q-38 191 -46 335q-12 217 -12 430z" />
    <glyph glyph-name="Ucircumflex" unicode="&#xdb;" horiz-adv-x="699" 
d="M39 0zM208 1704.5q-12 -13.5 -25.5 -13.5t-27 19t-13.5 50.5t33 123t81.5 173.5t83.5 82t83.5 -157t48.5 -238q0 -24 -18.5 -40.5t-41.5 -16.5q-55 1 -77 189q-10 86 -13 97q0 -6 -15.5 -48.5t-27 -74.5t-23 -58t-24 -50t-24.5 -37.5zM52 1115l2 320q-15 17 -15 42
t17.5 44t41.5 19q74 0 74 -146l19 -712q12 -27 20.5 -109t8.5 -127.5t14.5 -112t40 -134.5t69 -116t82.5 -48t58 18.5t26 52.5q11 54 11 113v400q0 65 -13 193t-13 193v14l-4 119l-15 351q0 25 25 40.5t52 15.5l50 -48v-34l-15 -125q0 -171 18.5 -515t18.5 -465.5t-3.5 -162
t-15.5 -86.5t-33 -76q-49 -70 -150 -70q-125 -1 -201 109q-80 116 -112 278q-38 191 -46 335q-12 217 -12 430z" />
    <glyph glyph-name="Udieresis" unicode="&#xdc;" horiz-adv-x="699" 
d="M39 0zM211.5 1708q-25.5 -21 -55 -21t-45 19t-15.5 49t20 51.5t49.5 21.5t50.5 -20t21 -49.5t-25.5 -50.5zM395 1708q-19 21 -19 49t22 51t50 23t48.5 -22.5t20.5 -52t-23 -49.5t-51.5 -20t-47.5 21zM52 1115l2 320q-15 17 -15 42t17.5 44t41.5 19q74 0 74 -146l19 -712
q12 -27 20.5 -109t8.5 -127.5t14.5 -112t40 -134.5t69 -116t82.5 -48t58 18.5t26 52.5q11 54 11 113v400q0 65 -13 193t-13 193v14l-4 119l-15 351q0 25 25 40.5t52 15.5l50 -48v-34l-15 -125q0 -171 18.5 -515t18.5 -465.5t-3.5 -162t-15.5 -86.5t-33 -76q-49 -70 -150 -70
q-125 -1 -201 109q-80 116 -112 278q-38 191 -46 335q-12 217 -12 430z" />
    <glyph glyph-name="Yacute" unicode="&#xdd;" horiz-adv-x="453" 
d="M25 0zM172 1714q0 11 28.5 37.5t129 112.5t121.5 105q12 4 27 4t36 -25.5t21 -49.5t-15 -34q-78 -57 -298 -173q-8 -4 -19 -4t-21 8t-10 19zM212 25l10 396q0 60 -19.5 177.5t-19.5 189t-24.5 174t-54.5 184.5q-79 215 -79 367q0 15 17.5 25.5t36.5 10.5t40.5 -47
t39.5 -120t33.5 -146t28.5 -141.5t19 -88.5q4 18 9.5 85.5t12.5 138.5q8 72 20 144q27 165 81.5 165t54.5 -22q0 -115 -49 -343t-49 -346l-6 -71v-31l11 -543l7 -102v-46q0 -27 -20.5 -43.5t-44.5 -16.5t-39.5 14.5t-15.5 35.5z" />
    <glyph glyph-name="Thorn" unicode="&#xde;" horiz-adv-x="495" 
d="M182 601q155 147 155 347q0 150 -54 212q-28 32 -99 89h-6q0 -108 2 -324t2 -324zM86 58l-22 1239l-2 190q0 61 51 61q70 0 70 -124l-2 -71q85 -12 147 -76q114 -119 115 -312q0 -150 -65 -272.5t-191 -190.5l16 -428q0 -85 -68 -85q-25 0 -37 21.5t-12 47.5z" />
    <glyph glyph-name="germandbls" unicode="&#xdf;" horiz-adv-x="576" 
d="M88 538l-15 711q0 241 114 313q37 24 88 23.5t91 -35t60 -90.5q36 -102 35 -211q0 -183 -126 -390q110 -83 147.5 -173.5t37.5 -223.5q0 -269 -182 -413l-15 -4q-17 0 -33 10t-16 26t23 50t50.5 70t50.5 93t23 139t-18.5 159.5t-44.5 116t-52 63.5t-44.5 43.5t-18.5 36.5
q-1 17 29 88q88 213 89 334q0 49 -14 100q-40 84 -76 99q-73 0 -93 -127q-4 -28 -4.5 -144t15 -531.5t15.5 -624.5q0 -43 -13.5 -68t-52.5 -25q-60 0 -60 51z" />
    <glyph glyph-name="agrave" unicode="&#xe0;" 
d="M41 0zM62.5 1660.5q21.5 28.5 43.5 28.5t175 -84t153 -111q0 -14 -24.5 -14t-196.5 55.5t-172 73.5q0 23 21.5 51.5zM411 375q-6 30 -6 104.5t-8.5 185t-24.5 257t-22 212.5q-93 -515 -120 -726q35 -23 181 -33zM518 416l22 -126q0 -25 19.5 -122t19.5 -127v-2
q0 -45 -34 -58q-43 0 -67 14t-24 54q0 87 -30 253l-202 30q-19 -68 -29 -149t-19 -118q-18 -76 -67 -76q-24 0 -44.5 15.5t-20.5 39.5l5 18q138 533 205 1038q2 14 6 82q10 150 38 191h69q28 0 49 -13t21 -39q0 -156 41.5 -463t41.5 -442z" />
    <glyph glyph-name="aacute" unicode="&#xe1;" 
d="M42 0zM199 1507q0 11 28.5 37.5t129 112.5t121.5 105q12 4 27 4t36 -25.5t21 -49.5t-15 -34q-78 -57 -298 -173q-8 -4 -19 -4t-21 8t-10 19zM411 375q-6 30 -6 104.5t-8.5 185t-24.5 257t-22 212.5q-93 -515 -120 -726q35 -23 181 -33zM518 416l22 -126q0 -25 19.5 -122
t19.5 -127v-2q0 -45 -34 -58q-43 0 -67 14t-24 54q0 87 -30 253l-202 30q-19 -68 -29 -149t-19 -118q-18 -76 -67 -76q-24 0 -44.5 15.5t-20.5 39.5l5 18q138 533 205 1038q2 14 6 82q10 150 38 191h69q28 0 49 -13t21 -39q0 -156 41.5 -463t41.5 -442z" />
    <glyph glyph-name="acircumflex" unicode="&#xe2;" 
d="M42 0zM274 1497.5q-12 -13.5 -25.5 -13.5t-27 19t-13.5 50.5t33 123t81.5 173.5t83.5 82t83.5 -157t48.5 -238q0 -24 -18.5 -40.5t-41.5 -16.5q-55 1 -77 189q-10 86 -13 97q0 -6 -15.5 -48.5t-27 -74.5t-23 -58t-24 -50t-24.5 -37.5zM411 375q-6 30 -6 104.5t-8.5 185
t-24.5 257t-22 212.5q-93 -515 -120 -726q35 -23 181 -33zM518 416l22 -126q0 -25 19.5 -122t19.5 -127v-2q0 -45 -34 -58q-43 0 -67 14t-24 54q0 87 -30 253l-202 30q-19 -68 -29 -149t-19 -118q-18 -76 -67 -76q-24 0 -44.5 15.5t-20.5 39.5l5 18q138 533 205 1038
q2 14 6 82q10 150 38 191h69q28 0 49 -13t21 -39q0 -156 41.5 -463t41.5 -442z" />
    <glyph glyph-name="atilde" unicode="&#xe3;" 
d="M42 0zM497 1652q11 13 37.5 13t43.5 -16t17 -37q0 -53 -39.5 -92.5t-93 -39.5t-89.5 14q-34 14 -48 30q-36 44 -80 43q-29 -11 -24 -39t-29 -40q-31 0 -52.5 15t-21.5 54t40 74t108 35q25 0 89 -41.5t84 -41.5t30.5 13t13.5 28t14 28zM411 375q-6 30 -6 104.5t-8.5 185
t-24.5 257t-22 212.5q-93 -515 -120 -726q35 -23 181 -33zM518 416l22 -126q0 -25 19.5 -122t19.5 -127v-2q0 -45 -34 -58q-43 0 -67 14t-24 54q0 87 -30 253l-202 30q-19 -68 -29 -149t-19 -118q-18 -76 -67 -76q-24 0 -44.5 15.5t-20.5 39.5l5 18q138 533 205 1038
q2 14 6 82q10 150 38 191h69q28 0 49 -13t21 -39q0 -156 41.5 -463t41.5 -442z" />
    <glyph glyph-name="adieresis" unicode="&#xe4;" 
d="M42 0zM280.5 1501q-25.5 -21 -55 -21t-45 19t-15.5 49t20 51.5t49.5 21.5t50.5 -20t21 -49.5t-25.5 -50.5zM464 1501q-19 21 -19 49t22 51t50 23t48.5 -22.5t20.5 -52t-23 -49.5t-51.5 -20t-47.5 21zM411 375q-6 30 -6 104.5t-8.5 185t-24.5 257t-22 212.5
q-93 -515 -120 -726q35 -23 181 -33zM518 416l22 -126q0 -25 19.5 -122t19.5 -127v-2q0 -45 -34 -58q-43 0 -67 14t-24 54q0 87 -30 253l-202 30q-19 -68 -29 -149t-19 -118q-18 -76 -67 -76q-24 0 -44.5 15.5t-20.5 39.5l5 18q138 533 205 1038q2 14 6 82q10 150 38 191h69
q28 0 49 -13t21 -39q0 -156 41.5 -463t41.5 -442z" />
    <glyph glyph-name="aring" unicode="&#xe5;" 
d="M42 0zM183.5 1944.5q63.5 67.5 168.5 67.5q97 0 144 -23t70.5 -42.5t37.5 -40.5q14 -22 24 -46q18 -43 18 -78.5t-7 -69.5t-27 -76q-19 -42 -50 -76q-74 -80 -210 -80q-150 0 -205 141q-27 69 -27 162.5t63.5 161zM450.5 1931q-39.5 12 -87.5 12t-82 -21q-33 -21 -51 -57
q-34 -69 -34 -158q0 -48 50.5 -99t104 -51t89 11.5t58.5 30.5t40 41q16 22 24 48q16 51 16 77.5t-6 48t-21 45.5t-38 42t-62.5 30zM411 375q-6 30 -6 104.5t-8.5 185t-24.5 257t-22 212.5q-93 -515 -120 -726q35 -23 181 -33zM518 416l22 -126q0 -25 19.5 -122t19.5 -127v-2
q0 -45 -34 -58q-43 0 -67 14t-24 54q0 87 -30 253l-202 30q-19 -68 -29 -149t-19 -118q-18 -76 -67 -76q-24 0 -44.5 15.5t-20.5 39.5l5 18q138 533 205 1038q2 14 6 82q10 150 38 191h69q28 0 49 -13t21 -39q0 -156 41.5 -463t41.5 -442z" />
    <glyph glyph-name="ae" unicode="&#xe6;" horiz-adv-x="879" 
d="M573 -14l-80 1q-14 0 -28 9t-14 23l16 234l-10 340q-15 -1 -43 -3q-29 0 -47 -2q-52 -4 -87 -17l-101 -345q-3 -10 -11 -54.5t-16 -78t-26 -63t-38 -29.5t-32 15t-12 32q0 69 47 236t96 309t123.5 348.5t82 228t16 51t14.5 43.5q5 15 17 35q22 39 85 47t147.5 8t84.5 -56
v-6l-21 -42q-64 -10 -194 -10l14 -274l-6 -290l158 9l42 -38q0 -50 -100 -50h-22l-79 1l6 -516l227 21q25 0 46.5 -13.5t21.5 -36.5q0 -67 -277 -67zM453 666q1 32 4.5 132t3.5 171t-2 114q-14 -36 -36 -89t-38 -93.5t-24.5 -65t-20.5 -59.5q-23 -65 -40 -128q87 3 153 18z
" />
    <glyph glyph-name="ccedilla" unicode="&#xe7;" horiz-adv-x="505" 
d="M46 0zM278 -237l9 166q0 39 6 59h56q-10 -51 -13 -109q109 -15 159 -78t50 -136t-53 -126t-107 -53t-92.5 15t-38.5 38.5t14 36.5t30.5 13t42.5 -11t51.5 -11t45.5 28.5t20 66t-26.5 63.5t-88.5 26t-65 12zM47 495l-1 120v49q0 302 30 420q36 146 100 202q87 78 220 78
q32 0 47.5 -15t15.5 -36t-12.5 -37.5t-31.5 -17.5h-96q-42 0 -73 -54q-30 -54 -44 -132q-26 -148 -25 -245v-10l-9 -395q0 -125 13.5 -173t28 -77.5t34.5 -48.5q46 -44 118 -44q24 0 44 18q24 0 43 -11t19 -34q0 -81 -113 -81q-46 0 -96.5 13.5t-75.5 29.5q-136 88 -136 481
z" />
    <glyph glyph-name="egrave" unicode="&#xe8;" horiz-adv-x="455" 
d="M0 0zM-150.5 1660.5q21.5 28.5 43.5 28.5t175 -84t153 -111q0 -14 -24.5 -14t-196.5 55.5t-172 73.5q0 23 21.5 51.5zM86 1034l-11 173q0 145 86 145q55 0 150 -25.5t95 -65.5q0 -42 -60 -64q-95 32 -155 39q3 -44 3 -88l-9 -294q0 -2 6 -32l73 3q99 0 99 -56
q0 -22 -18 -38.5t-45.5 -16.5t-59.5 4h-52q6 -78 6 -155l-9 -371q0 -115 4 -115l151 5q78 0 78 -50q0 -31 -27 -45t-61 -14h-173q-27 0 -49 18.5t-23 44.5v54l-13 346z" />
    <glyph glyph-name="eacute" unicode="&#xe9;" horiz-adv-x="455" 
d="M72 0zM164 1507q0 11 28.5 37.5t129 112.5t121.5 105q12 4 27 4t36 -25.5t21 -49.5t-15 -34q-78 -57 -298 -173q-8 -4 -19 -4t-21 8t-10 19zM86 1034l-11 173q0 145 86 145q55 0 150 -25.5t95 -65.5q0 -42 -60 -64q-95 32 -155 39q3 -44 3 -88l-9 -294q0 -2 6 -32l73 3
q99 0 99 -56q0 -22 -18 -38.5t-45.5 -16.5t-59.5 4h-52q6 -78 6 -155l-9 -371q0 -115 4 -115l151 5q78 0 78 -50q0 -31 -27 -45t-61 -14h-173q-27 0 -49 18.5t-23 44.5v54l-13 346z" />
    <glyph glyph-name="ecircumflex" unicode="&#xea;" horiz-adv-x="455" 
d="M38 0zM104 1497.5q-12 -13.5 -25.5 -13.5t-27 19t-13.5 50.5t33 123t81.5 173.5t83.5 82t83.5 -157t48.5 -238q0 -24 -18.5 -40.5t-41.5 -16.5q-55 1 -77 189q-10 86 -13 97q0 -6 -15.5 -48.5t-27 -74.5t-23 -58t-24 -50t-24.5 -37.5zM86 1034l-11 173q0 145 86 145
q55 0 150 -25.5t95 -65.5q0 -42 -60 -64q-95 32 -155 39q3 -44 3 -88l-9 -294q0 -2 6 -32l73 3q99 0 99 -56q0 -22 -18 -38.5t-45.5 -16.5t-59.5 4h-52q6 -78 6 -155l-9 -371q0 -115 4 -115l151 5q78 0 78 -50q0 -31 -27 -45t-61 -14h-173q-27 0 -49 18.5t-23 44.5v54
l-13 346z" />
    <glyph glyph-name="edieresis" unicode="&#xeb;" horiz-adv-x="455" 
d="M0 0zM107.5 1501q-25.5 -21 -55 -21t-45 19t-15.5 49t20 51.5t49.5 21.5t50.5 -20t21 -49.5t-25.5 -50.5zM291 1501q-19 21 -19 49t22 51t50 23t48.5 -22.5t20.5 -52t-23 -49.5t-51.5 -20t-47.5 21zM86 1034l-11 173q0 145 86 145q55 0 150 -25.5t95 -65.5q0 -42 -60 -64
q-95 32 -155 39q3 -44 3 -88l-9 -294q0 -2 6 -32l73 3q99 0 99 -56q0 -22 -18 -38.5t-45.5 -16.5t-59.5 4h-52q6 -78 6 -155l-9 -371q0 -115 4 -115l151 5q78 0 78 -50q0 -31 -27 -45t-61 -14h-173q-27 0 -49 18.5t-23 44.5v54l-13 346z" />
    <glyph glyph-name="igrave" unicode="&#xec;" horiz-adv-x="499" 
d="M7 0zM28.5 1660.5q21.5 28.5 43.5 28.5t175 -84t153 -111q0 -14 -24.5 -14t-196.5 55.5t-172 73.5q0 23 21.5 51.5zM286 681l15 -435l-3 -62l-2 1q0 -39 10 -54l16 -3l59 2q84 0 84 -51q0 -26 -20.5 -44.5t-47.5 -18.5l-68 7q-5 0 -31 -11.5t-57.5 -11.5t-52.5 20
q-16 -2 -25 -2q-57 0 -76 37q0 40 32 55l7 8h58l4 27l-14 435l11 456q0 115 -10 218l-39 2q-8 1 -24 -0.5t-34.5 -1.5t-35.5 11.5t-17 43.5q0 47 101 47h17q263 0 263 -83q0 -11 -12 -38l-70 -5l-35 12q8 -75 8 -170z" />
    <glyph glyph-name="iacute" unicode="&#xed;" horiz-adv-x="499" 
d="M25 0zM166 1507q0 11 28.5 37.5t129 112.5t121.5 105q12 4 27 4t36 -25.5t21 -49.5t-15 -34q-78 -57 -298 -173q-8 -4 -19 -4t-21 8t-10 19zM286 681l15 -435l-3 -62l-2 1q0 -39 10 -54l16 -3l59 2q84 0 84 -51q0 -26 -20.5 -44.5t-47.5 -18.5l-68 7q-5 0 -31 -11.5
t-57.5 -11.5t-52.5 20q-16 -2 -25 -2q-57 0 -76 37q0 40 32 55l7 8h58l4 27l-14 435l11 456q0 115 -10 218l-39 2q-8 1 -24 -0.5t-34.5 -1.5t-35.5 11.5t-17 43.5q0 47 101 47h17q263 0 263 -83q0 -11 -12 -38l-70 -5l-35 12q8 -75 8 -170z" />
    <glyph glyph-name="icircumflex" unicode="&#xee;" horiz-adv-x="499" 
d="M25 0zM105 1497.5q-12 -13.5 -25.5 -13.5t-27 19t-13.5 50.5t33 123t81.5 173.5t83.5 82t83.5 -157t48.5 -238q0 -24 -18.5 -40.5t-41.5 -16.5q-55 1 -77 189q-10 86 -13 97q0 -6 -15.5 -48.5t-27 -74.5t-23 -58t-24 -50t-24.5 -37.5zM286 681l15 -435l-3 -62l-2 1
q0 -39 10 -54l16 -3l59 2q84 0 84 -51q0 -26 -20.5 -44.5t-47.5 -18.5l-68 7q-5 0 -31 -11.5t-57.5 -11.5t-52.5 20q-16 -2 -25 -2q-57 0 -76 37q0 40 32 55l7 8h58l4 27l-14 435l11 456q0 115 -10 218l-39 2q-8 1 -24 -0.5t-34.5 -1.5t-35.5 11.5t-17 43.5q0 47 101 47h17
q263 0 263 -83q0 -11 -12 -38l-70 -5l-35 12q8 -75 8 -170z" />
    <glyph glyph-name="idieresis" unicode="&#xef;" horiz-adv-x="499" 
d="M0 0zM109.5 1501q-25.5 -21 -55 -21t-45 19t-15.5 49t20 51.5t49.5 21.5t50.5 -20t21 -49.5t-25.5 -50.5zM293 1501q-19 21 -19 49t22 51t50 23t48.5 -22.5t20.5 -52t-23 -49.5t-51.5 -20t-47.5 21zM286 681l15 -435l-3 -62l-2 1q0 -39 10 -54l16 -3l59 2q84 0 84 -51
q0 -26 -20.5 -44.5t-47.5 -18.5l-68 7q-5 0 -31 -11.5t-57.5 -11.5t-52.5 20q-16 -2 -25 -2q-57 0 -76 37q0 40 32 55l7 8h58l4 27l-14 435l11 456q0 115 -10 218l-39 2q-8 1 -24 -0.5t-34.5 -1.5t-35.5 11.5t-17 43.5q0 47 101 47h17q263 0 263 -83q0 -11 -12 -38l-70 -5
l-35 12q8 -75 8 -170z" />
    <glyph glyph-name="eth" unicode="&#xf0;" horiz-adv-x="473" 
d="M187 390l-1 -65q0 -253 68 -253q60 0 67 80q1 12 1.5 32t11.5 162.5t11 322.5t-59 216q-99 -26 -99 -495zM476 1355q17 0 17 -29q0 -39 -105 -59q52 -242 52 -626l-9 -358q0 -164 -40 -230q-41 -68 -132 -68q-79 0 -116 54.5t-44 109.5q-11 78 -11 156q-3 35 -3 97.5
t3.5 126t17 144.5t35.5 140.5t63 101t95 41.5q8 0 26 -2q-25 189 -48 297q-84 -9 -169 -9q-17 0 -17 30q0 47 166 68q-29 111 -56 133q-30 5 -56 22t-26 39.5t17 35t36 12.5q127 0 194 -231q74 4 110 4z" />
    <glyph glyph-name="ntilde" unicode="&#xf1;" horiz-adv-x="827" 
d="M64 0zM507 1652q11 13 37.5 13t43.5 -16t17 -37q0 -53 -39.5 -92.5t-93 -39.5t-89.5 14q-34 14 -48 30q-36 44 -80 43q-29 -11 -24 -39t-29 -40q-31 0 -52.5 15t-21.5 54t40 74t108 35q25 0 89 -41.5t84 -41.5t30.5 13t13.5 28t14 28zM64 829l12 382q0 95 75 151v-13
q8 5 15 5q48 0 120 -165.5t130 -363.5t115.5 -399.5t71.5 -236.5q41 429 41 1039l-3 55q0 61 51 61q29 0 43.5 -24t14.5 -56v-155q-2 -241 -21.5 -643.5t-52.5 -454.5q-56 -17 -77.5 -17t-33 14.5t-18.5 44.5t-12 40l1 9q0 76 -147 483t-213 560v-1031q2 -4 8 -14
q13 -22 13 -41t-18.5 -38t-43.5 -19q-67 0 -67 125z" />
    <glyph glyph-name="ograve" unicode="&#xf2;" horiz-adv-x="651" 
d="M0 0zM-75.5 1660.5q21.5 28.5 43.5 28.5t175 -84t153 -111q0 -14 -24.5 -14t-196.5 55.5t-172 73.5q0 23 21.5 51.5zM51 626l2 78q0 10 -3 10v37q0 322 37 458q31 115 60 142t57 27q238 0 328 -240q52 -138 52 -340v-15l4 -232q0 -589 -273 -589q-113 0 -173 125
q-57 120 -70 236q-21 175 -21 303zM172 906l-10 -189q0 -297 48 -518q51 -129 97 -152q37 0 67 30t47.5 80.5t29.5 106.5q11 55 17 118q10 109 10 186t-13.5 236t-13.5 237v36q-2 75 -49 133.5t-120 58.5q-70 0 -93 -79q-19 -66 -19 -163z" />
    <glyph glyph-name="oacute" unicode="&#xf3;" horiz-adv-x="651" 
d="M50 0zM239 1507q0 11 28.5 37.5t129 112.5t121.5 105q12 4 27 4t36 -25.5t21 -49.5t-15 -34q-78 -57 -298 -173q-8 -4 -19 -4t-21 8t-10 19zM51 626l2 78q0 10 -3 10v37q0 322 37 458q31 115 60 142t57 27q238 0 328 -240q52 -138 52 -340v-15l4 -232q0 -589 -273 -589
q-113 0 -173 125q-57 120 -70 236q-21 175 -21 303zM172 906l-10 -189q0 -297 48 -518q51 -129 97 -152q37 0 67 30t47.5 80.5t29.5 106.5q11 55 17 118q10 109 10 186t-13.5 236t-13.5 237v36q-2 75 -49 133.5t-120 58.5q-70 0 -93 -79q-19 -66 -19 -163z" />
    <glyph glyph-name="ocircumflex" unicode="&#xf4;" horiz-adv-x="651" 
d="M50 0zM178 1497.5q-12 -13.5 -25.5 -13.5t-27 19t-13.5 50.5t33 123t81.5 173.5t83.5 82t83.5 -157t48.5 -238q0 -24 -18.5 -40.5t-41.5 -16.5q-55 1 -77 189q-10 86 -13 97q0 -6 -15.5 -48.5t-27 -74.5t-23 -58t-24 -50t-24.5 -37.5zM51 626l2 78q0 10 -3 10v37
q0 322 37 458q31 115 60 142t57 27q238 0 328 -240q52 -138 52 -340v-15l4 -232q0 -589 -273 -589q-113 0 -173 125q-57 120 -70 236q-21 175 -21 303zM172 906l-10 -189q0 -297 48 -518q51 -129 97 -152q37 0 67 30t47.5 80.5t29.5 106.5q11 55 17 118q10 109 10 186
t-13.5 236t-13.5 237v36q-2 75 -49 133.5t-120 58.5q-70 0 -93 -79q-19 -66 -19 -163z" />
    <glyph glyph-name="otilde" unicode="&#xf5;" horiz-adv-x="651" 
d="M37 0zM416 1652q11 13 37.5 13t43.5 -16t17 -37q0 -53 -39.5 -92.5t-93 -39.5t-89.5 14q-34 14 -48 30q-36 44 -80 43q-29 -11 -24 -39t-29 -40q-31 0 -52.5 15t-21.5 54t40 74t108 35q25 0 89 -41.5t84 -41.5t30.5 13t13.5 28t14 28zM51 626l2 78q0 10 -3 10v37
q0 322 37 458q31 115 60 142t57 27q238 0 328 -240q52 -138 52 -340v-15l4 -232q0 -589 -273 -589q-113 0 -173 125q-57 120 -70 236q-21 175 -21 303zM172 906l-10 -189q0 -297 48 -518q51 -129 97 -152q37 0 67 30t47.5 80.5t29.5 106.5q11 55 17 118q10 109 10 186
t-13.5 236t-13.5 237v36q-2 75 -49 133.5t-120 58.5q-70 0 -93 -79q-19 -66 -19 -163z" />
    <glyph glyph-name="odieresis" unicode="&#xf6;" horiz-adv-x="651" 
d="M50 0zM181.5 1501q-25.5 -21 -55 -21t-45 19t-15.5 49t20 51.5t49.5 21.5t50.5 -20t21 -49.5t-25.5 -50.5zM365 1501q-19 21 -19 49t22 51t50 23t48.5 -22.5t20.5 -52t-23 -49.5t-51.5 -20t-47.5 21zM51 626l2 78q0 10 -3 10v37q0 322 37 458q31 115 60 142t57 27
q238 0 328 -240q52 -138 52 -340v-15l4 -232q0 -589 -273 -589q-113 0 -173 125q-57 120 -70 236q-21 175 -21 303zM172 906l-10 -189q0 -297 48 -518q51 -129 97 -152q37 0 67 30t47.5 80.5t29.5 106.5q11 55 17 118q10 109 10 186t-13.5 236t-13.5 237v36q-2 75 -49 133.5
t-120 58.5q-70 0 -93 -79q-19 -66 -19 -163z" />
    <glyph glyph-name="divide" unicode="&#xf7;" horiz-adv-x="684" 
d="M390 484.5q21 -25.5 21 -55t-19 -45t-49 -15.5t-51.5 20t-21.5 49.5t20 50.5t49.5 21t50.5 -25.5zM390 808q-21 -19 -49 -19t-51 22t-23 50t22.5 48.5t52 20.5t49.5 -23t20 -51.5t-21 -47.5zM571 600l-432 -10q-82 0 -82 65q0 21 12.5 33.5t33.5 12.5h301l126 7
q99 0 99 -61q0 -47 -58 -47z" />
    <glyph glyph-name="oslash" unicode="&#xf8;" horiz-adv-x="741" 
d="M636 783l4 -232q0 -589 -273 -589q-44 0 -81 21l-44 -257l-50 47l38 259q-100 122 -122 448q-5 72 -5 146l2 78q0 10 -3 10v37q0 322 37 458q31 115 60 142t57 27q97 0 170 -40l36 222h61l-40 -264q153 -140 153 -498v-15zM302 89q25 -42 59.5 -42t64.5 30t47.5 80.5
t29.5 106.5q11 55 17 118q10 109 10 186t-13.5 236t-13.5 237v36q-2 63 -35 115zM224 906l-10 -189q0 -310 44 -502l154 1032q-36 22 -74.5 22t-62 -20.5t-34.5 -58.5q-19 -66 -19 -163z" />
    <glyph glyph-name="ugrave" unicode="&#xf9;" horiz-adv-x="641" 
d="M0 0zM-60.5 1671.5q21.5 28.5 43.5 28.5t175 -84t153 -111q0 -14 -24.5 -14t-196.5 55.5t-172 73.5q0 23 21.5 51.5zM560 913l2 -35q0 -909 -264 -909q-102 -1 -151 83q-51 86 -62 171q-17 131 -19.5 300.5t-2.5 489.5l-9 293q19 43 43.5 43t43.5 -37.5t19 -79.5v-557
q0 -73 14.5 -217t14.5 -217q0 -150 130 -150q146 0 146 1101v115l-1 34q0 24 11 36t38.5 12t41.5 -9q13 -8 19 -24q8 -25 9 -66l-14 -206z" />
    <glyph glyph-name="uacute" unicode="&#xfa;" horiz-adv-x="641" 
d="M54 0zM254 1518q0 11 28.5 37.5t129 112.5t121.5 105q12 4 27 4t36 -25.5t21 -49.5t-15 -34q-78 -57 -298 -173q-8 -4 -19 -4t-21 8t-10 19zM560 913l2 -35q0 -909 -264 -909q-102 -1 -151 83q-51 86 -62 171q-17 131 -19.5 300.5t-2.5 489.5l-9 293q19 43 43.5 43
t43.5 -37.5t19 -79.5v-557q0 -73 14.5 -217t14.5 -217q0 -150 130 -150q146 0 146 1101v115l-1 34q0 24 11 36t38.5 12t41.5 -9q13 -8 19 -24q8 -25 9 -66l-14 -206z" />
    <glyph glyph-name="ucircumflex" unicode="&#xfb;" horiz-adv-x="641" 
d="M54 0zM194 1508.5q-12 -13.5 -25.5 -13.5t-27 19t-13.5 50.5t33 123t81.5 173.5t83.5 82t83.5 -157t48.5 -238q0 -24 -18.5 -40.5t-41.5 -16.5q-55 1 -77 189q-10 86 -13 97q0 -6 -15.5 -48.5t-27 -74.5t-23 -58t-24 -50t-24.5 -37.5zM560 913l2 -35q0 -909 -264 -909
q-102 -1 -151 83q-51 86 -62 171q-17 131 -19.5 300.5t-2.5 489.5l-9 293q19 43 43.5 43t43.5 -37.5t19 -79.5v-557q0 -73 14.5 -217t14.5 -217q0 -150 130 -150q146 0 146 1101v115l-1 34q0 24 11 36t38.5 12t41.5 -9q13 -8 19 -24q8 -25 9 -66l-14 -206z" />
    <glyph glyph-name="udieresis" unicode="&#xfc;" horiz-adv-x="641" 
d="M54 0zM197.5 1512q-25.5 -21 -55 -21t-45 19t-15.5 49t20 51.5t49.5 21.5t50.5 -20t21 -49.5t-25.5 -50.5zM381 1512q-19 21 -19 49t22 51t50 23t48.5 -22.5t20.5 -52t-23 -49.5t-51.5 -20t-47.5 21zM560 913l2 -35q0 -909 -264 -909q-102 -1 -151 83q-51 86 -62 171
q-17 131 -19.5 300.5t-2.5 489.5l-9 293q19 43 43.5 43t43.5 -37.5t19 -79.5v-557q0 -73 14.5 -217t14.5 -217q0 -150 130 -150q146 0 146 1101v115l-1 34q0 24 11 36t38.5 12t41.5 -9q13 -8 19 -24q8 -25 9 -66l-14 -206z" />
    <glyph glyph-name="yacute" unicode="&#xfd;" horiz-adv-x="513" 
d="M30 0zM202 1507q0 11 28.5 37.5t129 112.5t121.5 105q12 4 27 4t36 -25.5t21 -49.5t-15 -34q-78 -57 -298 -173q-8 -4 -19 -4t-21 8t-10 19zM355 109q0 -137 -67 -137q-37 0 -57 45q23 45 23 347q0 55 -11 156t-13 144v53q-4 9 -64 162q-136 343 -136 409v11l46 34
q63 -1 150 -317q38 -138 38 -139q8 23 32 153q61 332 128 332q19 0 34.5 -12t15.5 -31q0 -102 -58.5 -296.5t-60.5 -296.5v-617z" />
    <glyph glyph-name="thorn" unicode="&#xfe;" horiz-adv-x="495" 
d="M182 571q155 106 155 248q0 75 -5 113t-24.5 72.5t-44.5 58t-79 66.5h-6q0 -93 2 -279t2 -279zM86 58l-22 1120l-2 309q0 61 51 61q75 0 75 -168l-7 -147q85 -12 147 -76q114 -119 115 -312q0 -129 -67.5 -225t-188.5 -148l16 -398q0 -85 -68 -85q-25 0 -37 21t-12 48z
" />
    <glyph glyph-name="ydieresis" unicode="&#xff;" horiz-adv-x="513" 
d="M30 0zM145.5 1501q-25.5 -21 -55 -21t-45 19t-15.5 49t20 51.5t49.5 21.5t50.5 -20t21 -49.5t-25.5 -50.5zM329 1501q-19 21 -19 49t22 51t50 23t48.5 -22.5t20.5 -52t-23 -49.5t-51.5 -20t-47.5 21zM355 109q0 -137 -67 -137q-37 0 -57 45q23 45 23 347q0 55 -11 156
t-13 144v53q-4 9 -64 162q-136 343 -136 409v11l46 34q63 -1 150 -317q38 -138 38 -139q8 23 32 153q61 332 128 332q19 0 34.5 -12t15.5 -31q0 -102 -58.5 -296.5t-60.5 -296.5v-617z" />
    <glyph glyph-name="Amacron" unicode="&#x100;" horiz-adv-x="656" 
d="M34 1zM253 1787l144 4q208 0 208 -55q0 -45 -66 -45l-148 -4q-228 0 -228 56q0 44 90 44zM527 1q-63 0 -63 53v267q-29 20 -104.5 34t-134.5 18q-21 -36 -34.5 -104t-28 -137t-38.5 -109q-80 0 -90 41q28 40 91 409t103.5 577.5t87.5 350.5t90 142t66 -18q0 -73 40 -395
t40 -416.5t21.5 -314t21.5 -329.5q0 -69 -68 -69zM408.5 1015.5q-14.5 164.5 -14.5 199t1 39.5q-32 -33 -92.5 -367t-64.5 -423q85 -23 142.5 -23t81.5 6q-3 41 -21 222.5t-32.5 346z" />
    <glyph glyph-name="amacron" unicode="&#x101;" 
d="M42 0zM227 1580l144 4q208 0 208 -55q0 -45 -66 -45l-148 -4q-228 0 -228 56q0 44 90 44zM411 375q-6 30 -6 104.5t-8.5 185t-24.5 257t-22 212.5q-93 -515 -120 -726q35 -23 181 -33zM518 416l22 -126q0 -25 19.5 -122t19.5 -127v-2q0 -45 -34 -58q-43 0 -67 14t-24 54
q0 87 -30 253l-202 30q-19 -68 -29 -149t-19 -118q-18 -76 -67 -76q-24 0 -44.5 15.5t-20.5 39.5l5 18q138 533 205 1038q2 14 6 82q10 150 38 191h69q28 0 49 -13t21 -39q0 -156 41.5 -463t41.5 -442z" />
    <glyph glyph-name="Abreve" unicode="&#x102;" horiz-adv-x="656" 
d="M34 1zM591 1852v-1q-52 -133 -108 -154q-26 -10 -75 -10t-89 37q-72 65 -72 196v10l38 32q46 0 60 -75q15 -81 48 -105h44q14 0 30 32t16 52t1 31t6 26.5t17.5 22.5t33.5 7t37.5 -15.5t16.5 -28.5t-8 -41zM527 1q-63 0 -63 53v267q-29 20 -104.5 34t-134.5 18
q-21 -36 -34.5 -104t-28 -137t-38.5 -109q-80 0 -90 41q28 40 91 409t103.5 577.5t87.5 350.5t90 142t66 -18q0 -73 40 -395t40 -416.5t21.5 -314t21.5 -329.5q0 -69 -68 -69zM408.5 1015.5q-14.5 164.5 -14.5 199t1 39.5q-32 -33 -92.5 -367t-64.5 -423q85 -23 142.5 -23
t81.5 6q-3 41 -21 222.5t-32.5 346z" />
    <glyph glyph-name="abreve" unicode="&#x103;" 
d="M42 0zM553 1645v-1q-52 -133 -108 -154q-26 -10 -75 -10t-89 37q-72 65 -72 196v10l38 32q46 0 60 -75q15 -81 48 -105h44q14 0 30 32t16 52t1 31t6 26.5t17.5 22.5t33.5 7t37.5 -15.5t16.5 -28.5t-8 -41zM411 375q-6 30 -6 104.5t-8.5 185t-24.5 257t-22 212.5
q-93 -515 -120 -726q35 -23 181 -33zM518 416l22 -126q0 -25 19.5 -122t19.5 -127v-2q0 -45 -34 -58q-43 0 -67 14t-24 54q0 87 -30 253l-202 30q-19 -68 -29 -149t-19 -118q-18 -76 -67 -76q-24 0 -44.5 15.5t-20.5 39.5l5 18q138 533 205 1038q2 14 6 82q10 150 38 191h69
q28 0 49 -13t21 -39q0 -156 41.5 -463t41.5 -442z" />
    <glyph glyph-name="Aogonek" unicode="&#x104;" horiz-adv-x="656" 
d="M34 0zM421 -283q40 0 86 33l14 -34q0 -27 -38 -45.5t-74 -18.5t-60.5 32t-24.5 75q0 82 56 156t136 123l55 -27q-12 -8 -31.5 -25.5t-37.5 -33t-24.5 -22.5t-21 -22.5t-21 -25.5t-16.5 -26t-14 -28q-11 -34 -11 -72.5t27 -38.5zM527 1q-63 0 -63 53v267q-29 20 -104.5 34
t-134.5 18q-21 -36 -34.5 -104t-28 -137t-38.5 -109q-80 0 -90 41q28 40 91 409t103.5 577.5t87.5 350.5t90 142t66 -18q0 -73 40 -395t40 -416.5t21.5 -314t21.5 -329.5q0 -69 -68 -69zM408.5 1015.5q-14.5 164.5 -14.5 199t1 39.5q-32 -33 -92.5 -367t-64.5 -423
q85 -23 142.5 -23t81.5 6q-3 41 -21 222.5t-32.5 346z" />
    <glyph glyph-name="aogonek" unicode="&#x105;" 
d="M42 0zM407 -297q40 0 86 33l14 -34q0 -27 -38 -45.5t-74 -18.5t-60.5 32t-24.5 75q0 82 56 156t136 123l55 -27q-12 -8 -31.5 -25.5t-37.5 -33t-24.5 -22.5t-21 -22.5t-21 -25.5t-16.5 -26t-14 -28q-11 -34 -11 -72.5t27 -38.5zM411 375q-6 30 -6 104.5t-8.5 185
t-24.5 257t-22 212.5q-93 -515 -120 -726q35 -23 181 -33zM518 416l22 -126q0 -25 19.5 -122t19.5 -127v-2q0 -45 -34 -58q-43 0 -67 14t-24 54q0 87 -30 253l-202 30q-19 -68 -29 -149t-19 -118q-18 -76 -67 -76q-24 0 -44.5 15.5t-20.5 39.5l5 18q138 533 205 1038
q2 14 6 82q10 150 38 191h69q28 0 49 -13t21 -39q0 -156 41.5 -463t41.5 -442z" />
    <glyph glyph-name="Cacute" unicode="&#x106;" horiz-adv-x="649" 
d="M51 0zM234 1714q0 11 28.5 37.5t129 112.5t121.5 105q12 4 27 4t36 -25.5t21 -49.5t-15 -34q-78 -57 -298 -173q-8 -4 -19 -4t-21 8t-10 19zM176 999l-18 -143v-49q0 -238 10.5 -315t21.5 -138t28.5 -104t41.5 -81q48 -76 133 -76q35 0 87 36.5t79 36.5t58 -31
q0 -103 -117 -147q-58 -21 -126 -21t-116 27.5t-80 71t-56 111.5t-38 135q-12 68 -20 156q-12 148 -13 324l2 245q0 117 14 189q-6 33 -6 64q0 126 94 200.5t232 74.5q49 0 96 -27.5t47 -72.5q0 -22 -17 -34t-57.5 -12t-55.5 25v-1h-28v5q-119 0 -162 -74q-40 -68 -40 -234z
" />
    <glyph glyph-name="cacute" unicode="&#x107;" horiz-adv-x="505" 
d="M46 0zM184 1507q0 11 28.5 37.5t129 112.5t121.5 105q12 4 27 4t36 -25.5t21 -49.5t-15 -34q-78 -57 -298 -173q-8 -4 -19 -4t-21 8t-10 19zM47 495l-1 120v49q0 302 30 420q36 146 100 202q87 78 220 78q32 0 47.5 -15t15.5 -36t-12.5 -37.5t-31.5 -17.5h-96
q-42 0 -73 -54q-30 -54 -44 -132q-26 -148 -25 -245v-10l-9 -395q0 -125 13.5 -173t28 -77.5t34.5 -48.5q46 -44 118 -44q24 0 44 18q24 0 43 -11t19 -34q0 -81 -113 -81q-46 0 -96.5 13.5t-75.5 29.5q-136 88 -136 481z" />
    <glyph glyph-name="Ccircumflex" unicode="&#x108;" horiz-adv-x="649" 
d="M51 0zM173 1704.5q-12 -13.5 -25.5 -13.5t-27 19t-13.5 50.5t33 123t81.5 173.5t83.5 82t83.5 -157t48.5 -238q0 -24 -18.5 -40.5t-41.5 -16.5q-55 1 -77 189q-10 86 -13 97q0 -6 -15.5 -48.5t-27 -74.5t-23 -58t-24 -50t-24.5 -37.5zM176 999l-18 -143v-49
q0 -238 10.5 -315t21.5 -138t28.5 -104t41.5 -81q48 -76 133 -76q35 0 87 36.5t79 36.5t58 -31q0 -103 -117 -147q-58 -21 -126 -21t-116 27.5t-80 71t-56 111.5t-38 135q-12 68 -20 156q-12 148 -13 324l2 245q0 117 14 189q-6 33 -6 64q0 126 94 200.5t232 74.5
q49 0 96 -27.5t47 -72.5q0 -22 -17 -34t-57.5 -12t-55.5 25v-1h-28v5q-119 0 -162 -74q-40 -68 -40 -234z" />
    <glyph glyph-name="ccircumflex" unicode="&#x109;" horiz-adv-x="505" 
d="M46 0zM123 1497.5q-12 -13.5 -25.5 -13.5t-27 19t-13.5 50.5t33 123t81.5 173.5t83.5 82t83.5 -157t48.5 -238q0 -24 -18.5 -40.5t-41.5 -16.5q-55 1 -77 189q-10 86 -13 97q0 -6 -15.5 -48.5t-27 -74.5t-23 -58t-24 -50t-24.5 -37.5zM47 495l-1 120v49q0 302 30 420
q36 146 100 202q87 78 220 78q32 0 47.5 -15t15.5 -36t-12.5 -37.5t-31.5 -17.5h-96q-42 0 -73 -54q-30 -54 -44 -132q-26 -148 -25 -245v-10l-9 -395q0 -125 13.5 -173t28 -77.5t34.5 -48.5q46 -44 118 -44q24 0 44 18q24 0 43 -11t19 -34q0 -81 -113 -81q-46 0 -96.5 13.5
t-75.5 29.5q-136 88 -136 481z" />
    <glyph glyph-name="Cdotaccent" unicode="&#x10a;" horiz-adv-x="649" 
d="M51 0zM217.5 1709.5q-20.5 22.5 -20.5 52t23 53.5t53 24t52 -24t22 -55.5t-23 -52t-54.5 -20.5t-52 22.5zM176 999l-18 -143v-49q0 -238 10.5 -315t21.5 -138t28.5 -104t41.5 -81q48 -76 133 -76q35 0 87 36.5t79 36.5t58 -31q0 -103 -117 -147q-58 -21 -126 -21
t-116 27.5t-80 71t-56 111.5t-38 135q-12 68 -20 156q-12 148 -13 324l2 245q0 117 14 189q-6 33 -6 64q0 126 94 200.5t232 74.5q49 0 96 -27.5t47 -72.5q0 -22 -17 -34t-57.5 -12t-55.5 25v-1h-28v5q-119 0 -162 -74q-40 -68 -40 -234z" />
    <glyph glyph-name="cdotaccent" unicode="&#x10b;" horiz-adv-x="505" 
d="M46 0zM167.5 1502.5q-20.5 22.5 -20.5 52t23 53.5t53 24t52 -24t22 -55.5t-23 -52t-54.5 -20.5t-52 22.5zM47 495l-1 120v49q0 302 30 420q36 146 100 202q87 78 220 78q32 0 47.5 -15t15.5 -36t-12.5 -37.5t-31.5 -17.5h-96q-42 0 -73 -54q-30 -54 -44 -132
q-26 -148 -25 -245v-10l-9 -395q0 -125 13.5 -173t28 -77.5t34.5 -48.5q46 -44 118 -44q24 0 44 18q24 0 43 -11t19 -34q0 -81 -113 -81q-46 0 -96.5 13.5t-75.5 29.5q-136 88 -136 481z" />
    <glyph glyph-name="Ccaron" unicode="&#x10c;" horiz-adv-x="649" 
d="M51 0zM411 2079l-15 -31v-37l-29 -112q-29 -112 -29 -146q0 -66 -52 -66q-40 0 -112.5 166t-72.5 223q0 16 15 27.5t34 11.5q43 0 101 -211l27 -94q4 22 9 69t10 84q6 37 14 76q18 83 57 83q18 0 30.5 -11.5t12.5 -31.5zM176 999l-18 -143v-49q0 -238 10.5 -315
t21.5 -138t28.5 -104t41.5 -81q48 -76 133 -76q35 0 87 36.5t79 36.5t58 -31q0 -103 -117 -147q-58 -21 -126 -21t-116 27.5t-80 71t-56 111.5t-38 135q-12 68 -20 156q-12 148 -13 324l2 245q0 117 14 189q-6 33 -6 64q0 126 94 200.5t232 74.5q49 0 96 -27.5t47 -72.5
q0 -22 -17 -34t-57.5 -12t-55.5 25v-1h-28v5q-119 0 -162 -74q-40 -68 -40 -234z" />
    <glyph glyph-name="ccaron" unicode="&#x10d;" horiz-adv-x="505" 
d="M46 0zM361 1872l-15 -31v-37l-29 -112q-29 -112 -29 -146q0 -66 -52 -66q-40 0 -112.5 166t-72.5 223q0 16 15 27.5t34 11.5q43 0 101 -211l27 -94q4 22 9 69t10 84q6 37 14 76q18 83 57 83q18 0 30.5 -11.5t12.5 -31.5zM47 495l-1 120v49q0 302 30 420q36 146 100 202
q87 78 220 78q32 0 47.5 -15t15.5 -36t-12.5 -37.5t-31.5 -17.5h-96q-42 0 -73 -54q-30 -54 -44 -132q-26 -148 -25 -245v-10l-9 -395q0 -125 13.5 -173t28 -77.5t34.5 -48.5q46 -44 118 -44q24 0 44 18q24 0 43 -11t19 -34q0 -81 -113 -81q-46 0 -96.5 13.5t-75.5 29.5
q-136 88 -136 481z" />
    <glyph glyph-name="Dcaron" unicode="&#x10e;" horiz-adv-x="653" 
d="M36 0zM408 2079l-15 -31v-37l-29 -112q-29 -112 -29 -146q0 -66 -52 -66q-40 0 -112.5 166t-72.5 223q0 16 15 27.5t34 11.5q43 0 101 -211l27 -94q4 22 9 69t10 84q6 37 14 76q18 83 57 83q18 0 30.5 -11.5t12.5 -31.5zM211 310v-196q77 50 134 139.5t87 195.5
q56 203 56 405q0 232 -58 366q-59 138 -146 182q-54 28 -122 27v-2q0 -185 24.5 -557t24.5 -560zM588 754l5 -43q1 -145 -77 -342q-88 -225 -208 -319q-68 -54 -140 -55q-38 0 -69 17.5t-31 52.5q45 47 45 241q0 114 -19 339t-19 337l6 224q0 54 -22.5 145.5t-22.5 129.5
q0 71 157 71h31q209 0 303 -234q66 -163 66 -450v-95q-5 -9 -5 -19z" />
    <glyph glyph-name="dcaron" unicode="&#x10f;" horiz-adv-x="610" 
d="M55 0zM408 1824l-15 -31v-37l-29 -112q-29 -112 -29 -146q0 -66 -52 -66q-40 0 -112.5 166t-72.5 223q0 16 15 27.5t34 11.5q43 0 101 -211l27 -94q4 22 9 69t10 84q6 37 14 76q18 83 57 83q18 0 30.5 -11.5t12.5 -31.5zM73 256l6 645q0 66 -12 201.5t-12 172.5t23 57.5
t49 20.5q211 0 343 -247q76 -141 76 -298l-4 -103v-113q0 -206 -18.5 -275t-38.5 -115t-48 -82q-65 -82 -164 -132h-148q-52 0 -52 268zM216 141v-49q178 0 214 360q8 83 8 160q0 618 -238 646q-15 -81 -15 -222.5t15.5 -442.5t15.5 -452z" />
    <glyph glyph-name="Dcroat" unicode="&#x110;" horiz-adv-x="653" 
d="M305 746l-110 -4q16 -256 16 -432v-196q77 50 134 139.5t87 195.5q56 203 56 405q0 232 -58 366q-59 138 -146 182q-54 28 -122 27v-2q1 -210 26 -580h11q72 0 122 -14t50 -42q0 -45 -66 -45zM588 754l5 -43q1 -145 -77 -342q-88 -225 -208 -319q-68 -54 -140 -55
q-38 0 -69 17.5t-31 52.5q45 47 45 241q0 132 -27 438q-157 8 -157 53t90 45q32 0 60 1q-4 61 -4 139l6 224q0 54 -22.5 145.5t-22.5 129.5q0 71 157 71h31q209 0 303 -234q66 -163 66 -450v-95q-5 -9 -5 -19z" />
    <glyph glyph-name="dcroat" unicode="&#x111;" horiz-adv-x="610" 
d="M83 819l-4 82q0 66 -12 201.5t-12 172.5t23 57.5t49 20.5q211 0 343 -247q76 -141 76 -298l-4 -103v-113q0 -206 -18.5 -275t-38.5 -115t-48 -82q-65 -82 -164 -132h-148q-52 0 -52 268q0 139 4 417q-136 6 -136 34q0 44 90 44q43 0 49 35q4 18 3 33zM267 676l-71 -4
q20 -393 20 -531v-49q178 0 214 360q8 83 8 160q0 618 -238 646q-15 -81 -15 -195t8 -308q140 -2 140 -54q0 -25 -66 -25z" />
    <glyph glyph-name="Emacron" unicode="&#x112;" horiz-adv-x="457" 
d="M0 0zM79 1787l144 4q208 0 208 -55q0 -45 -66 -45l-148 -4q-228 0 -228 56q0 44 90 44zM293 750l-51 2q-30 0 -42 -15v-632q105 6 114 6q117 0 117 -54v-7q-14 -28 -48 -43t-60 -17t-67 -2h-64q-76 0 -94 30q-8 14 -8 37v1190q0 35 -14 104t-14 105v7q34 56 51 72l152 18
q31 0 62.5 -18.5t31.5 -48.5q0 -61 -93 -61l-59 2q-15 0 -22 -1l16 -338q0 -41 -5 -119.5t-5 -114.5q11 2 30 7q42 11 65.5 11t42 -17t18.5 -41t-15 -43t-39 -19z" />
    <glyph glyph-name="emacron" unicode="&#x113;" horiz-adv-x="455" 
d="M12 0zM102 1580l144 4q208 0 208 -55q0 -45 -66 -45l-148 -4q-228 0 -228 56q0 44 90 44zM86 1034l-11 173q0 145 86 145q55 0 150 -25.5t95 -65.5q0 -42 -60 -64q-95 32 -155 39q3 -44 3 -88l-9 -294q0 -2 6 -32l73 3q99 0 99 -56q0 -22 -18 -38.5t-45.5 -16.5t-59.5 4
h-52q6 -78 6 -155l-9 -371q0 -115 4 -115l151 5q78 0 78 -50q0 -31 -27 -45t-61 -14h-173q-27 0 -49 18.5t-23 44.5v54l-13 346z" />
    <glyph glyph-name="Edotaccent" unicode="&#x116;" horiz-adv-x="457" 
d="M62 0zM124.5 1709.5q-20.5 22.5 -20.5 52t23 53.5t53 24t52 -24t22 -55.5t-23 -52t-54.5 -20.5t-52 22.5zM293 750l-51 2q-30 0 -42 -15v-632q105 6 114 6q117 0 117 -54v-7q-14 -28 -48 -43t-60 -17t-67 -2h-64q-76 0 -94 30q-8 14 -8 37v1190q0 35 -14 104t-14 105v7
q34 56 51 72l152 18q31 0 62.5 -18.5t31.5 -48.5q0 -61 -93 -61l-59 2q-15 0 -22 -1l16 -338q0 -41 -5 -119.5t-5 -114.5q11 2 30 7q42 11 65.5 11t42 -17t18.5 -41t-15 -43t-39 -19z" />
    <glyph glyph-name="edotaccent" unicode="&#x117;" horiz-adv-x="455" 
d="M72 0zM148.5 1502.5q-20.5 22.5 -20.5 52t23 53.5t53 24t52 -24t22 -55.5t-23 -52t-54.5 -20.5t-52 22.5zM86 1034l-11 173q0 145 86 145q55 0 150 -25.5t95 -65.5q0 -42 -60 -64q-95 32 -155 39q3 -44 3 -88l-9 -294q0 -2 6 -32l73 3q99 0 99 -56q0 -22 -18 -38.5
t-45.5 -16.5t-59.5 4h-52q6 -78 6 -155l-9 -371q0 -115 4 -115l151 5q78 0 78 -50q0 -31 -27 -45t-61 -14h-173q-27 0 -49 18.5t-23 44.5v54l-13 346z" />
    <glyph glyph-name="Eogonek" unicode="&#x118;" horiz-adv-x="457" 
d="M62 0zM160 -296q40 0 86 33l14 -34q0 -27 -38 -45.5t-74 -18.5t-60.5 32t-24.5 75q0 82 56 156t136 123l55 -27q-12 -8 -31.5 -25.5t-37.5 -33t-24.5 -22.5t-21 -22.5t-21 -25.5t-16.5 -26t-14 -28q-11 -34 -11 -72.5t27 -38.5zM293 750l-51 2q-30 0 -42 -15v-632
q105 6 114 6q117 0 117 -54v-7q-14 -28 -48 -43t-60 -17t-67 -2h-64q-76 0 -94 30q-8 14 -8 37v1190q0 35 -14 104t-14 105v7q34 56 51 72l152 18q31 0 62.5 -18.5t31.5 -48.5q0 -61 -93 -61l-59 2q-15 0 -22 -1l16 -338q0 -41 -5 -119.5t-5 -114.5q11 2 30 7q42 11 65.5 11
t42 -17t18.5 -41t-15 -43t-39 -19z" />
    <glyph glyph-name="eogonek" unicode="&#x119;" horiz-adv-x="455" 
d="M65 0zM162 -314q40 0 86 33l14 -34q0 -27 -38 -45.5t-74 -18.5t-60.5 32t-24.5 75q0 82 56 156t136 123l55 -27q-12 -8 -31.5 -25.5t-37.5 -33t-24.5 -22.5t-21 -22.5t-21 -25.5t-16.5 -26t-14 -28q-11 -34 -11 -72.5t27 -38.5zM86 1034l-11 173q0 145 86 145
q55 0 150 -25.5t95 -65.5q0 -42 -60 -64q-95 32 -155 39q3 -44 3 -88l-9 -294q0 -2 6 -32l73 3q99 0 99 -56q0 -22 -18 -38.5t-45.5 -16.5t-59.5 4h-52q6 -78 6 -155l-9 -371q0 -115 4 -115l151 5q78 0 78 -50q0 -31 -27 -45t-61 -14h-173q-27 0 -49 18.5t-23 44.5v54
l-13 346z" />
    <glyph glyph-name="Ecaron" unicode="&#x11a;" horiz-adv-x="457" 
d="M8 0zM318 2079l-15 -31v-37l-29 -112q-29 -112 -29 -146q0 -66 -52 -66q-40 0 -112.5 166t-72.5 223q0 16 15 27.5t34 11.5q43 0 101 -211l27 -94q4 22 9 69t10 84q6 37 14 76q18 83 57 83q18 0 30.5 -11.5t12.5 -31.5zM293 750l-51 2q-30 0 -42 -15v-632q105 6 114 6
q117 0 117 -54v-7q-14 -28 -48 -43t-60 -17t-67 -2h-64q-76 0 -94 30q-8 14 -8 37v1190q0 35 -14 104t-14 105v7q34 56 51 72l152 18q31 0 62.5 -18.5t31.5 -48.5q0 -61 -93 -61l-59 2q-15 0 -22 -1l16 -338q0 -41 -5 -119.5t-5 -114.5q11 2 30 7q42 11 65.5 11t42 -17
t18.5 -41t-15 -43t-39 -19z" />
    <glyph glyph-name="ecaron" unicode="&#x11b;" horiz-adv-x="455" 
d="M32 0zM342 1872l-15 -31v-37l-29 -112q-29 -112 -29 -146q0 -66 -52 -66q-40 0 -112.5 166t-72.5 223q0 16 15 27.5t34 11.5q43 0 101 -211l27 -94q4 22 9 69t10 84q6 37 14 76q18 83 57 83q18 0 30.5 -11.5t12.5 -31.5zM86 1034l-11 173q0 145 86 145q55 0 150 -25.5
t95 -65.5q0 -42 -60 -64q-95 32 -155 39q3 -44 3 -88l-9 -294q0 -2 6 -32l73 3q99 0 99 -56q0 -22 -18 -38.5t-45.5 -16.5t-59.5 4h-52q6 -78 6 -155l-9 -371q0 -115 4 -115l151 5q78 0 78 -50q0 -31 -27 -45t-61 -14h-173q-27 0 -49 18.5t-23 44.5v54l-13 346z" />
    <glyph glyph-name="Gcircumflex" unicode="&#x11c;" horiz-adv-x="727" 
d="M51 0zM199 1710.5q-12 -13.5 -25.5 -13.5t-27 19t-13.5 50.5t33 123t81.5 173.5t83.5 82t83.5 -157t48.5 -238q0 -24 -18.5 -40.5t-41.5 -16.5q-55 1 -77 189q-10 86 -13 97q0 -6 -15.5 -48.5t-27 -74.5t-23 -58t-24 -50t-24.5 -37.5zM525 371l-80 -8q-70 0 -70 58
q0 50 132 65q26 3 57 3t53 -32t22 -85.5t20.5 -174.5t20.5 -163q0 -75 -50.5 -75t-67.5 43v2q-12 -5 -45 -23q-62 -34 -123 -34q-44 0 -88 18q-94 37 -144 125q-54 93 -71 178t-23 134q-7 50 -11 114q-5 81 -5 195l-1 151q0 198 13 284t26.5 141t31.5 97.5t44 82.5
q26 41 60 67q73 58 167 57.5t94 -58.5q0 -22 -16 -35t-38 -13l-59 10q-77 -1 -121 -93q-47 -101 -60 -192t-19 -147q-8 -55 -10 -125q-4 -97 -3 -194l-1 -127q0 -196 17.5 -279t36.5 -132q18 -50 44 -82q85 -65 149 -73q91 0 151 86q-3 182 -33 234z" />
    <glyph glyph-name="gcircumflex" unicode="&#x11d;" horiz-adv-x="638" 
d="M46 0zM171 1497.5q-12 -13.5 -25.5 -13.5t-27 19t-13.5 50.5t33 123t81.5 173.5t83.5 82t83.5 -157t48.5 -238q0 -24 -18.5 -40.5t-41.5 -16.5q-55 1 -77 189q-10 86 -13 97q0 -6 -15.5 -48.5t-27 -74.5t-23 -58t-24 -50t-24.5 -37.5zM563 411l10 -217
q0 -101 -70.5 -155.5t-164.5 -54.5q-142 0 -206 106q-46 75 -58 141.5t-17 102.5t-7 97q-4 85 -4 137v88q0 289 17 365.5t39 142.5t54 102q77 88 178 88t101 -52q0 -24 -20 -39.5t-45 -15.5l-43 5q-71 0 -107 -140q-52 -200 -52 -483q0 -193 12.5 -265.5t27.5 -121.5
q14 -50 34 -80q47 -71 121 -71q99 0 99 326v94q-15 8 -48 8l-40 -1q-71 0 -71 47q0 29 20.5 44t49.5 15v-1h28q184 0 184 -63z" />
    <glyph glyph-name="Gbreve" unicode="&#x11e;" horiz-adv-x="727" 
d="M51 0zM461 1858v-1q-52 -133 -108 -154q-26 -10 -75 -10t-89 37q-72 65 -72 196v10l38 32q46 0 60 -75q15 -81 48 -105h44q14 0 30 32t16 52t1 31t6 26.5t17.5 22.5t33.5 7t37.5 -15.5t16.5 -28.5t-8 -41zM525 371l-80 -8q-70 0 -70 58q0 50 132 65q26 3 57 3t53 -32
t22 -85.5t20.5 -174.5t20.5 -163q0 -75 -50.5 -75t-67.5 43v2q-12 -5 -45 -23q-62 -34 -123 -34q-44 0 -88 18q-94 37 -144 125q-54 93 -71 178t-23 134q-7 50 -11 114q-5 81 -5 195l-1 151q0 198 13 284t26.5 141t31.5 97.5t44 82.5q26 41 60 67q73 58 167 57.5t94 -58.5
q0 -22 -16 -35t-38 -13l-59 10q-77 -1 -121 -93q-47 -101 -60 -192t-19 -147q-8 -55 -10 -125q-4 -97 -3 -194l-1 -127q0 -196 17.5 -279t36.5 -132q18 -50 44 -82q85 -65 149 -73q91 0 151 86q-3 182 -33 234z" />
    <glyph glyph-name="gbreve" unicode="&#x11f;" horiz-adv-x="638" 
d="M46 0zM432 1645v-1q-52 -133 -108 -154q-26 -10 -75 -10t-89 37q-72 65 -72 196v10l38 32q46 0 60 -75q15 -81 48 -105h44q14 0 30 32t16 52t1 31t6 26.5t17.5 22.5t33.5 7t37.5 -15.5t16.5 -28.5t-8 -41zM563 411l10 -217q0 -101 -70.5 -155.5t-164.5 -54.5
q-142 0 -206 106q-46 75 -58 141.5t-17 102.5t-7 97q-4 85 -4 137v88q0 289 17 365.5t39 142.5t54 102q77 88 178 88t101 -52q0 -24 -20 -39.5t-45 -15.5l-43 5q-71 0 -107 -140q-52 -200 -52 -483q0 -193 12.5 -265.5t27.5 -121.5q14 -50 34 -80q47 -71 121 -71
q99 0 99 326v94q-15 8 -48 8l-40 -1q-71 0 -71 47q0 29 20.5 44t49.5 15v-1h28q184 0 184 -63z" />
    <glyph glyph-name="Gdotaccent" unicode="&#x120;" horiz-adv-x="727" 
d="M51 0zM243.5 1715.5q-20.5 22.5 -20.5 52t23 53.5t53 24t52 -24t22 -55.5t-23 -52t-54.5 -20.5t-52 22.5zM525 371l-80 -8q-70 0 -70 58q0 50 132 65q26 3 57 3t53 -32t22 -85.5t20.5 -174.5t20.5 -163q0 -75 -50.5 -75t-67.5 43v2q-12 -5 -45 -23q-62 -34 -123 -34
q-44 0 -88 18q-94 37 -144 125q-54 93 -71 178t-23 134q-7 50 -11 114q-5 81 -5 195l-1 151q0 198 13 284t26.5 141t31.5 97.5t44 82.5q26 41 60 67q73 58 167 57.5t94 -58.5q0 -22 -16 -35t-38 -13l-59 10q-77 -1 -121 -93q-47 -101 -60 -192t-19 -147q-8 -55 -10 -125
q-4 -97 -3 -194l-1 -127q0 -196 17.5 -279t36.5 -132q18 -50 44 -82q85 -65 149 -73q91 0 151 86q-3 182 -33 234z" />
    <glyph glyph-name="gdotaccent" unicode="&#x121;" horiz-adv-x="638" 
d="M46 0zM215.5 1502.5q-20.5 22.5 -20.5 52t23 53.5t53 24t52 -24t22 -55.5t-23 -52t-54.5 -20.5t-52 22.5zM563 411l10 -217q0 -101 -70.5 -155.5t-164.5 -54.5q-142 0 -206 106q-46 75 -58 141.5t-17 102.5t-7 97q-4 85 -4 137v88q0 289 17 365.5t39 142.5t54 102
q77 88 178 88t101 -52q0 -24 -20 -39.5t-45 -15.5l-43 5q-71 0 -107 -140q-52 -200 -52 -483q0 -193 12.5 -265.5t27.5 -121.5q14 -50 34 -80q47 -71 121 -71q99 0 99 326v94q-15 8 -48 8l-40 -1q-71 0 -71 47q0 29 20.5 44t49.5 15v-1h28q184 0 184 -63z" />
    <glyph glyph-name="Gcedilla" unicode="&#x122;" horiz-adv-x="727" 
d="M51 0zM242 -207l9 166q0 39 6 59h56q-10 -51 -13 -109q109 -15 159 -78t50 -136t-53 -126t-107 -53t-92.5 15t-38.5 38.5t14 36.5t30.5 13t42.5 -11t51.5 -11t45.5 28.5t20 66t-26.5 63.5t-88.5 26t-65 12zM525 371l-80 -8q-70 0 -70 58q0 50 132 65q26 3 57 3t53 -32
t22 -85.5t20.5 -174.5t20.5 -163q0 -75 -50.5 -75t-67.5 43v2q-12 -5 -45 -23q-62 -34 -123 -34q-44 0 -88 18q-94 37 -144 125q-54 93 -71 178t-23 134q-7 50 -11 114q-5 81 -5 195l-1 151q0 198 13 284t26.5 141t31.5 97.5t44 82.5q26 41 60 67q73 58 167 57.5t94 -58.5
q0 -22 -16 -35t-38 -13l-59 10q-77 -1 -121 -93q-47 -101 -60 -192t-19 -147q-8 -55 -10 -125q-4 -97 -3 -194l-1 -127q0 -196 17.5 -279t36.5 -132q18 -50 44 -82q85 -65 149 -73q91 0 151 86q-3 182 -33 234z" />
    <glyph glyph-name="gcedilla" unicode="&#x123;" horiz-adv-x="638" 
d="M46 0zM277 -207l9 166q0 39 6 59h56q-10 -51 -13 -109q109 -15 159 -78t50 -136t-53 -126t-107 -53t-92.5 15t-38.5 38.5t14 36.5t30.5 13t42.5 -11t51.5 -11t45.5 28.5t20 66t-26.5 63.5t-88.5 26t-65 12zM563 411l10 -217q0 -101 -70.5 -155.5t-164.5 -54.5
q-142 0 -206 106q-46 75 -58 141.5t-17 102.5t-7 97q-4 85 -4 137v88q0 289 17 365.5t39 142.5t54 102q77 88 178 88t101 -52q0 -24 -20 -39.5t-45 -15.5l-43 5q-71 0 -107 -140q-52 -200 -52 -483q0 -193 12.5 -265.5t27.5 -121.5q14 -50 34 -80q47 -71 121 -71
q99 0 99 326v94q-15 8 -48 8l-40 -1q-71 0 -71 47q0 29 20.5 44t49.5 15v-1h28q184 0 184 -63z" />
    <glyph glyph-name="Hcircumflex" unicode="&#x124;" horiz-adv-x="560" 
d="M54 0zM145 1704.5q-12 -13.5 -25.5 -13.5t-27 19t-13.5 50.5t33 123t81.5 173.5t83.5 82t83.5 -157t48.5 -238q0 -24 -18.5 -40.5t-41.5 -16.5q-55 1 -77 189q-10 86 -13 97q0 -6 -15.5 -48.5t-27 -74.5t-23 -58t-24 -50t-24.5 -37.5zM440 -31q-52 0 -52 68
q0 390 -18 722q-55 10 -103 10t-86 -16q0 -114 17 -345t17 -349q0 -20 -12 -37t-32 -17q-56 -1 -82 351q-35 477 -35 1154q0 37 35 37q19 0 41 -10.5t31 -22.5q-7 -73 -7 -154l14 -421l-2 -77q0 -29 4 -53l199 15l-8 672v54q78 0 93 -70q7 -34 7 -173t19.5 -589.5
t19.5 -674.5q0 -27 -17 -50.5t-43 -23.5z" />
    <glyph glyph-name="hcircumflex" unicode="&#x125;" horiz-adv-x="571" 
d="M68 0zM134 1497.5q-12 -13.5 -25.5 -13.5t-27 19t-13.5 50.5t33 123t81.5 173.5t83.5 82t83.5 -157t48.5 -238q0 -24 -18.5 -40.5t-41.5 -16.5q-55 1 -77 189q-10 86 -13 97q0 -6 -15.5 -48.5t-27 -74.5t-23 -58t-24 -50t-24.5 -37.5zM191 1233l-8 -511q37 -10 112 -10
h74q5 9 5 66t-13.5 250.5t-13.5 291.5q0 23 18 38.5t34 15.5t26 -3t22 -8t19 -7q0 -266 19.5 -777.5t19.5 -528.5t-21.5 -33.5t-48 -16.5t-42.5 39t-21.5 115.5t-7.5 132.5q-1 24 0 55q0 42 1 96q2 95 2 110v8l3 59l-12 19v2q-17 -4 -37 -4l-132 19v-235l12 -337
q0 -29 -15 -51.5t-43 -22.5q-41 0 -56.5 74.5t-15.5 203.5l6 312q0 97 -3 107v10q8 107 8 120l-14 462q0 24 17 42.5t41 18.5q65 0 65 -122z" />
    <glyph glyph-name="Hbar" unicode="&#x126;" horiz-adv-x="560" 
d="M170 809l199 15q0 38 -14 442q-24 -1 -84 -1l-115 -4l12 -322l-2 -77q0 -29 4 -53zM161 1515l-7 -155v-25q112 4 130.5 4t68.5 -2q-2 53 -2 159l-1 15q0 21 4.5 27t15.5 6h7q84 0 84 -51v-179q24 -11 24 -31.5t-23 -20.5q3 -177 20.5 -588t17.5 -631q0 -27 -17 -50.5
t-43 -23.5q-52 0 -52 68q0 390 -18 722q-55 10 -103 10t-86 -16q0 -114 17 -345t17 -349q0 -20 -12 -37q-13 -17 -33 -17q-34 0 -50 27.5t-20.5 145t-5.5 257.5t-3 167q-28 384 -34 667q-14 8 -14 23t13 26q-3 100 -3 202q0 14 20 24t35.5 10t34 -12t18.5 -27z" />
    <glyph glyph-name="hbar" unicode="&#x127;" horiz-adv-x="571" 
d="M369 712q5 9 5 57t-16 297q-26 -1 -77 -1t-92 -3q-6 -226 -6 -340q37 -10 112 -10h74zM71 283l6 312q0 79 -8 107l5 10q8 107 8 138.5t-7 213.5q-32 6 -32 27q0 26 29 36q-4 73 -4 167q0 24 17 42.5t41 18.5q65 0 65 -122q0 -64 -1 -96q50 2 81.5 2t81.5 -2q-6 91 -6 183
q0 23 18 38.5t34 15.5t26 -3t22 -8t19 -7q0 -115 3 -246q16 -11 16 -28.5t-15 -19.5q6 -239 20 -604q15 -378 15 -396q1 -30 -21 -46t-46 -16q-53 0 -56 38q-11 349 -11 510l-4 8l3 59l-1 19l-11 2q-17 -4 -37 -4l-132 19l-6 -226l6 -9l12 -337q0 -29 -15 -51.5t-43 -22.5
q-41 0 -56.5 74.5t-15.5 203.5z" />
    <glyph glyph-name="Itilde" unicode="&#x128;" horiz-adv-x="432" 
d="M0 3zM375 1859q11 13 37.5 13t43.5 -16t17 -37q0 -53 -39.5 -92.5t-93 -39.5t-89.5 14q-34 14 -48 30q-36 44 -80 43q-29 -11 -24 -39t-29 -40q-31 0 -52.5 15t-21.5 54t40 74t108 35q25 0 89 -41.5t84 -41.5t30.5 13t13.5 28t14 28zM301 1442l-36 1q-20 0 -29.5 -8.5
t-9.5 -33.5q0 -200 25 -599t25 -599v-79q21 3 42 3q85 0 85 -72v-12l-51 -35l-139 -5q-177 0 -177 61q0 49 62 49l43 -3q30 0 30 48q0 158 -19 473.5t-19 473.5l4 209q0 66 -5 114q-27 -9 -48 -9q-48 0 -48 49q0 25 31 43.5t77 26.5q86 15 127.5 15t59.5 -16.5t18 -39
t-13.5 -39t-34.5 -16.5z" />
    <glyph glyph-name="itilde" unicode="&#x129;" horiz-adv-x="499" 
d="M0 0zM343 1652q11 13 37.5 13t43.5 -16t17 -37q0 -53 -39.5 -92.5t-93 -39.5t-89.5 14q-34 14 -48 30q-36 44 -80 43q-29 -11 -24 -39t-29 -40q-31 0 -52.5 15t-21.5 54t40 74t108 35q25 0 89 -41.5t84 -41.5t30.5 13t13.5 28t14 28zM286 681l15 -435l-3 -62l-2 1
q0 -39 10 -54l16 -3l59 2q84 0 84 -51q0 -26 -20.5 -44.5t-47.5 -18.5l-68 7q-5 0 -31 -11.5t-57.5 -11.5t-52.5 20q-16 -2 -25 -2q-57 0 -76 37q0 40 32 55l7 8h58l4 27l-14 435l11 456q0 115 -10 218l-39 2q-8 1 -24 -0.5t-34.5 -1.5t-35.5 11.5t-17 43.5q0 47 101 47h17
q263 0 263 -83q0 -11 -12 -38l-70 -5l-35 12q8 -75 8 -170z" />
    <glyph glyph-name="Imacron" unicode="&#x12a;" horiz-adv-x="432" 
d="M0 3zM46 1787l144 4q208 0 208 -55q0 -45 -66 -45l-148 -4q-228 0 -228 56q0 44 90 44zM301 1442l-36 1q-20 0 -29.5 -8.5t-9.5 -33.5q0 -200 25 -599t25 -599v-79q21 3 42 3q85 0 85 -72v-12l-51 -35l-139 -5q-177 0 -177 61q0 49 62 49l43 -3q30 0 30 48
q0 158 -19 473.5t-19 473.5l4 209q0 66 -5 114q-27 -9 -48 -9q-48 0 -48 49q0 25 31 43.5t77 26.5q86 15 127.5 15t59.5 -16.5t18 -39t-13.5 -39t-34.5 -16.5z" />
    <glyph glyph-name="imacron" unicode="&#x12b;" horiz-adv-x="499" 
d="M14 0zM104 1580l144 4q208 0 208 -55q0 -45 -66 -45l-148 -4q-228 0 -228 56q0 44 90 44zM286 681l15 -435l-3 -62l-2 1q0 -39 10 -54l16 -3l59 2q84 0 84 -51q0 -26 -20.5 -44.5t-47.5 -18.5l-68 7q-5 0 -31 -11.5t-57.5 -11.5t-52.5 20q-16 -2 -25 -2q-57 0 -76 37
q0 40 32 55l7 8h58l4 27l-14 435l11 456q0 115 -10 218l-39 2q-8 1 -24 -0.5t-34.5 -1.5t-35.5 11.5t-17 43.5q0 47 101 47h17q263 0 263 -83q0 -11 -12 -38l-70 -5l-35 12q8 -75 8 -170z" />
    <glyph glyph-name="Ibreve" unicode="&#x12c;" horiz-adv-x="432" 
d="M30 3zM374 1852v-1q-52 -133 -108 -154q-26 -10 -75 -10t-89 37q-72 65 -72 196v10l38 32q46 0 60 -75q15 -81 48 -105h44q14 0 30 32t16 52t1 31t6 26.5t17.5 22.5t33.5 7t37.5 -15.5t16.5 -28.5t-8 -41zM301 1442l-36 1q-20 0 -29.5 -8.5t-9.5 -33.5q0 -200 25 -599
t25 -599v-79q21 3 42 3q85 0 85 -72v-12l-51 -35l-139 -5q-177 0 -177 61q0 49 62 49l43 -3q30 0 30 48q0 158 -19 473.5t-19 473.5l4 209q0 66 -5 114q-27 -9 -48 -9q-48 0 -48 49q0 25 31 43.5t77 26.5q86 15 127.5 15t59.5 -16.5t18 -39t-13.5 -39t-34.5 -16.5z" />
    <glyph glyph-name="ibreve" unicode="&#x12d;" horiz-adv-x="499" 
d="M23 0zM367 1645v-1q-52 -133 -108 -154q-26 -10 -75 -10t-89 37q-72 65 -72 196v10l38 32q46 0 60 -75q15 -81 48 -105h44q14 0 30 32t16 52t1 31t6 26.5t17.5 22.5t33.5 7t37.5 -15.5t16.5 -28.5t-8 -41zM286 681l15 -435l-3 -62l-2 1q0 -39 10 -54l16 -3l59 2
q84 0 84 -51q0 -26 -20.5 -44.5t-47.5 -18.5l-68 7q-5 0 -31 -11.5t-57.5 -11.5t-52.5 20q-16 -2 -25 -2q-57 0 -76 37q0 40 32 55l7 8h58l4 27l-14 435l11 456q0 115 -10 218l-39 2q-8 1 -24 -0.5t-34.5 -1.5t-35.5 11.5t-17 43.5q0 47 101 47h17q263 0 263 -83
q0 -11 -12 -38l-70 -5l-35 12q8 -75 8 -170z" />
    <glyph glyph-name="Iogonek" unicode="&#x12e;" horiz-adv-x="432" 
d="M35 0zM132 -282q40 0 86 33l14 -34q0 -27 -38 -45.5t-74 -18.5t-60.5 32t-24.5 75q0 82 56 156t136 123l55 -27q-12 -8 -31.5 -25.5t-37.5 -33t-24.5 -22.5t-21 -22.5t-21 -25.5t-16.5 -26t-14 -28q-11 -34 -11 -72.5t27 -38.5zM301 1442l-36 1q-20 0 -29.5 -8.5
t-9.5 -33.5q0 -200 25 -599t25 -599v-79q21 3 42 3q85 0 85 -72v-12l-51 -35l-139 -5q-177 0 -177 61q0 49 62 49l43 -3q30 0 30 48q0 158 -19 473.5t-19 473.5l4 209q0 66 -5 114q-27 -9 -48 -9q-48 0 -48 49q0 25 31 43.5t77 26.5q86 15 127.5 15t59.5 -16.5t18 -39
t-13.5 -39t-34.5 -16.5z" />
    <glyph glyph-name="iogonek" unicode="&#x12f;" horiz-adv-x="499" 
d="M25 0zM168 -272q40 0 86 33l14 -34q0 -27 -38 -45.5t-74 -18.5t-60.5 32t-24.5 75q0 82 56 156t136 123l55 -27q-12 -8 -31.5 -25.5t-37.5 -33t-24.5 -22.5t-21 -22.5t-21 -25.5t-16.5 -26t-14 -28q-11 -34 -11 -72.5t27 -38.5zM286 681l10 -435v-61l-1 -57h27l59 2
q84 0 84 -51q0 -26 -20.5 -44.5t-47.5 -18.5h-90q-93 0 -119 4q-16 -2 -25 -2q-73 0 -73 46q0 19 12 36t24 18h58l4 27l-14 435l11 456q0 117 -10 220h-39l-47 -2q-30 0 -47 11.5t-17 43.5q0 47 101 47h244q83 0 83 -43q0 -19 -18 -35t-41 -16h-105q8 -84 8 -190z" />
    <glyph glyph-name="Idot" unicode="&#x130;" horiz-adv-x="432" 
d="M36 3zM145.5 1709.5q-20.5 22.5 -20.5 52t23 53.5t53 24t52 -24t22 -55.5t-23 -52t-54.5 -20.5t-52 22.5zM301 1442l-36 1q-20 0 -29.5 -8.5t-9.5 -33.5q0 -200 25 -599t25 -599v-79q21 3 42 3q85 0 85 -72v-12l-51 -35l-139 -5q-177 0 -177 61q0 49 62 49l43 -3
q30 0 30 48q0 158 -19 473.5t-19 473.5l4 209q0 66 -5 114q-27 -9 -48 -9q-48 0 -48 49q0 25 31 43.5t77 26.5q86 15 127.5 15t59.5 -16.5t18 -39t-13.5 -39t-34.5 -16.5z" />
    <glyph glyph-name="dotlessi" unicode="&#x131;" horiz-adv-x="499" 
d="M286 681l15 -435l-3 -62l-2 1q0 -39 10 -54l16 -3l59 2q84 0 84 -51q0 -26 -20.5 -44.5t-47.5 -18.5l-68 7q-5 0 -31 -11.5t-57.5 -11.5t-52.5 20q-16 -2 -25 -2q-57 0 -76 37q0 40 32 55l7 8h58l4 27l-14 435l11 456q0 115 -10 218l-39 2q-8 1 -24 -0.5t-34.5 -1.5
t-35.5 11.5t-17 43.5q0 47 101 47h17q263 0 263 -83q0 -11 -12 -38l-70 -5l-35 12q8 -75 8 -170z" />
    <glyph glyph-name="IJ" unicode="&#x132;" horiz-adv-x="851" 
d="M36 0zM649 241l1 284q0 594 -54 920q-7 -1 -27 -6q-40 -10 -61.5 -10t-37 15.5t-15.5 36.5q0 72 245 72h26q92 0 92 -54.5t-85 -54.5l-6 1h-28v-16q0 -53 12 -158.5t12 -198.5t18.5 -358.5t18.5 -398.5l-1 -163q0 -121 -50.5 -216.5t-147.5 -129.5q-32 0 -53 16t-21 44
t25.5 51t54.5 35q28 36 55 116t27 173zM301 1442l-36 1q-20 0 -29.5 -8.5t-9.5 -33.5q0 -200 25 -599t25 -599v-79q21 3 42 3q85 0 85 -72v-12l-51 -35l-139 -5q-177 0 -177 61q0 49 62 49l43 -3q30 0 30 48q0 158 -19 473.5t-19 473.5l4 209q0 66 -5 114q-27 -9 -48 -9
q-48 0 -48 49q0 25 31 43.5t77 26.5q86 15 127.5 15t59.5 -16.5t18 -39t-13.5 -39t-34.5 -16.5z" />
    <glyph glyph-name="ij" unicode="&#x133;" horiz-adv-x="1019" 
d="M25 0zM830 1245l21 -863v-218q0 -102 -16.5 -147.5t-31 -75.5t-38.5 -53t-54 -42q-63 -39 -171 -39q-24 0 -24 25l2 34q0 12 29 22q106 37 133 66q59 64 59 233l-23 1046v9q-78 0 -111.5 13.5t-39.5 20.5t-6 21.5t23 28t74.5 13.5t193 -12.5t141.5 -34t-16.5 -34.5
t-39.5 -13h-105zM286 681l10 -435v-61l-1 -57h27l59 2q84 0 84 -51q0 -26 -20.5 -44.5t-47.5 -18.5h-90q-93 0 -119 4q-16 -2 -25 -2q-73 0 -73 46q0 19 12 36t24 18h58l4 27l-14 435l11 456q0 117 -10 220h-39l-47 -2q-30 0 -47 11.5t-17 43.5q0 47 101 47h244q83 0 83 -43
q0 -19 -18 -35t-41 -16h-105q8 -84 8 -190z" />
    <glyph glyph-name="Jcircumflex" unicode="&#x134;" horiz-adv-x="419" 
d="M5 0zM71 1704.5q-12 -13.5 -25.5 -13.5t-27 19t-13.5 50.5t33 123t81.5 173.5t83.5 82t83.5 -157t48.5 -238q0 -24 -18.5 -40.5t-41.5 -16.5q-55 1 -77 189q-10 86 -13 97q0 -6 -15.5 -48.5t-27 -74.5t-23 -58t-24 -50t-24.5 -37.5zM217 241l1 284q0 594 -54 920
q-7 -1 -27 -6q-40 -10 -61.5 -10t-37 15.5t-15.5 36.5q0 72 245 72h26q92 0 92 -54.5t-85 -54.5l-6 1h-28v-16q0 -53 12 -158.5t12 -198.5t18.5 -358.5t18.5 -398.5l-1 -163q0 -121 -50.5 -216.5t-147.5 -129.5q-32 0 -53 16t-21 44t25.5 51t54.5 35q28 36 55 116t27 173z
" />
    <glyph glyph-name="jcircumflex" unicode="&#x135;" horiz-adv-x="520" 
d="M19 0zM174 1497.5q-12 -13.5 -25.5 -13.5t-27 19t-13.5 50.5t33 123t81.5 173.5t83.5 82t83.5 -157t48.5 -238q0 -24 -18.5 -40.5t-41.5 -16.5q-55 1 -77 189q-10 86 -13 97q0 -6 -15.5 -48.5t-27 -74.5t-23 -58t-24 -50t-24.5 -37.5zM331 1208l21 -826v-224
q-25 -42 -39 -147q-15 -105 -31 -155q-36 -110 -176 -110h-24l-61 61l-2 19q0 19 36 48q51 41 126 80q59 70 59 233l-18 1046l-5 9q-22 0 -60 7t-49 12q-12 5 -24 12q-24 14 -24 36.5t23 36t54.5 13.5t111.5 -10t161.5 -36.5t81.5 -59.5q0 -22 -16.5 -35t-38.5 -13t-60 9.5
t-45 10.5z" />
    <glyph glyph-name="Kcommaaccent" unicode="&#x136;" horiz-adv-x="650" 
d="M70 0zM285 -526q-34 0 -34 23l7 37q44 200 114 280q32 36 64 36q4 -4 20 -8q36 -11 36 -33q0 -47 -45 -129.5t-95 -144t-67 -61.5zM97 660l3 389q0 102 -15 236t-15 175.5t16.5 61t41.5 19.5q76 0 76 -166q0 -1 -9 -421q7 17 39 100t66 167q35 83 74 173q88 202 128 202
q23 0 40.5 -15.5t17.5 -37t-111.5 -255.5t-125.5 -297v-36q30 -76 163.5 -497t133.5 -446.5t-20 -42.5t-45 -17l-48 8q-51 291 -106 507.5t-144 412.5q-61 -109 -64 -132q-6 -62 -6 -98l13 -380v-168q0 -109 -70 -109q-60 0 -60 103.5t13.5 287.5t13.5 276z" />
    <glyph glyph-name="kcommaaccent" unicode="&#x137;" horiz-adv-x="637" 
d="M66 0zM281 -513q-34 0 -34 23l7 37q44 200 114 280q32 36 64 36q4 -4 20 -8q36 -11 36 -33q0 -47 -45 -129.5t-95 -144t-67 -61.5zM352 919l-4 -122q0 -88 70.5 -329t117.5 -319q6 -9 26.5 -37t30 -49t9.5 -44t-17.5 -38.5t-40.5 -15.5q-48 0 -100 101.5t-92 248.5
q-69 251 -102 437q-74 -147 -74 -356v-379q0 -48 -42 -48q-31 0 -49.5 17.5t-18.5 47.5v622q0 111 19.5 331.5t19.5 330.5q18 39 52.5 39t53 -18.5t18.5 -44.5v-6q-27 -47 -27 -373v-73q3 5 75 150q175 352 216 352q30 0 54.5 -14t24.5 -41q0 -2 -49 -82
q-151 -247 -171 -288z" />
    <glyph glyph-name="kgreenlandic" unicode="&#x138;" horiz-adv-x="637" 
d="M66 0zM352 919l-4 -122q0 -88 70.5 -329t117.5 -319q6 -9 26.5 -37t30 -49t9.5 -44t-17.5 -38.5t-40.5 -15.5q-48 0 -100 101.5t-92 248.5q-69 251 -102 437q-74 -147 -74 -356v-379q0 -48 -42 -48q-31 0 -49.5 17.5t-18.5 47.5v622q0 111 19.5 331.5t19.5 330.5
q18 39 52.5 39t53 -18.5t18.5 -44.5v-6q-27 -47 -27 -373v-73q3 5 75 150q175 352 216 352q30 0 54.5 -14t24.5 -41q0 -2 -49 -82q-151 -247 -171 -288z" />
    <glyph glyph-name="Lacute" unicode="&#x139;" horiz-adv-x="430" 
d="M58 0zM123 1714q0 11 28.5 37.5t129 112.5t121.5 105q12 4 27 4t36 -25.5t21 -49.5t-15 -34q-78 -57 -298 -173q-8 -4 -19 -4t-21 8t-10 19zM191 775l2 -65v-9q8 -178 8 -534v-52h156q44 -30 44 -57t-15 -44.5t-31 -17.5t-37 7q-17 -4 -39 -4l-66 3q-21 -25 -52.5 -25
t-53 19.5t-21.5 45.5l13 90q0 233 -20.5 698.5t-20.5 698.5q0 19 15 30.5t37.5 11.5t41 -17t18.5 -42z" />
    <glyph glyph-name="lacute" unicode="&#x13a;" horiz-adv-x="467" 
d="M67 0zM142 1507q0 11 28.5 37.5t129 112.5t121.5 105q12 4 27 4t36 -25.5t21 -49.5t-15 -34q-78 -57 -298 -173q-8 -4 -19 -4t-21 8t-10 19zM190 1148l6 -492q-12 -28 -12 -70v-41l-8 -326q0 -141 69 -141l85 3q110 0 110 -60q0 -22 -19 -36.5t-43 -17.5q-75 24 -183 24
q-33 -19 -63.5 -19t-47.5 21t-17 46q0 152 13 457.5t13 457.5v15q-12 128 -12 192q0 194 71 194q21 0 36.5 -15t15.5 -36z" />
    <glyph glyph-name="Lcommaaccent" unicode="&#x13b;" horiz-adv-x="430" 
d="M58 0zM175 -501q-34 0 -34 23l7 37q44 200 114 280q32 36 64 36q4 -4 20 -8q36 -11 36 -33q0 -47 -45 -129.5t-95 -144t-67 -61.5zM191 775l2 -65v-9q8 -178 8 -534v-52h156q44 -30 44 -57t-15 -44.5t-31 -17.5t-37 7q-17 -4 -39 -4l-66 3q-21 -25 -52.5 -25t-53 19.5
t-21.5 45.5l13 90q0 233 -20.5 698.5t-20.5 698.5q0 19 15 30.5t37.5 11.5t41 -17t18.5 -42z" />
    <glyph glyph-name="lcommaaccent" unicode="&#x13c;" horiz-adv-x="467" 
d="M67 0zM185 -511q-34 0 -34 23l7 37q44 200 114 280q32 36 64 36q4 -4 20 -8q36 -11 36 -33q0 -47 -45 -129.5t-95 -144t-67 -61.5zM190 1148l6 -492q-12 -28 -12 -70v-41l-8 -326q0 -141 69 -141l85 3q110 0 110 -60q0 -22 -19 -36.5t-43 -17.5q-75 24 -183 24
q-33 -19 -63.5 -19t-47.5 21t-17 46q0 152 13 457.5t13 457.5v15q-12 128 -12 192q0 194 71 194q21 0 36.5 -15t15.5 -36z" />
    <glyph glyph-name="Lcaron" unicode="&#x13d;" horiz-adv-x="506" 
d="M58 0zM380 1249q-51 -51 -90.5 -51t-39.5 25.5t25 46.5q45 52 66 194q18 121 80 121q71 0 71 -108q0 -47 -30.5 -112t-81.5 -116zM191 775l2 -65v-9q8 -178 8 -534v-52h156q44 -30 44 -57t-15 -44.5t-31 -17.5t-37 7q-17 -4 -39 -4l-66 3q-21 -25 -52.5 -25t-53 19.5
t-21.5 45.5l13 90q0 233 -20.5 698.5t-20.5 698.5q0 19 15 30.5t37.5 11.5t41 -17t18.5 -42z" />
    <glyph glyph-name="lcaron" unicode="&#x13e;" horiz-adv-x="535" 
d="M67 0zM402 1042q-51 -51 -90.5 -51t-39.5 25.5t25 46.5q45 52 66 194q18 121 80 121q71 0 71 -108q0 -47 -30.5 -112t-81.5 -116zM190 1148l6 -492q-12 -28 -12 -70v-41l-8 -326q0 -141 69 -141l85 3q110 0 110 -60q0 -22 -19 -36.5t-43 -17.5q-75 24 -183 24
q-33 -19 -63.5 -19t-47.5 21t-17 46q0 152 13 457.5t13 457.5v15q-12 128 -12 192q0 194 71 194q21 0 36.5 -15t15.5 -36z" />
    <glyph glyph-name="Ldot" unicode="&#x13f;" horiz-adv-x="430" 
d="M58 0zM366.5 727.5q-20.5 22.5 -20.5 52t23 53.5t53 24t52 -24t22 -55.5t-23 -52t-54.5 -20.5t-52 22.5zM191 775l2 -65v-9q8 -178 8 -534v-52h156q44 -30 44 -57t-15 -44.5t-31 -17.5t-37 7q-17 -4 -39 -4l-66 3q-21 -25 -52.5 -25t-53 19.5t-21.5 45.5l13 90
q0 233 -20.5 698.5t-20.5 698.5q0 19 15 30.5t37.5 11.5t41 -17t18.5 -42z" />
    <glyph glyph-name="ldot" unicode="&#x140;" horiz-adv-x="762" 
d="M67 0zM561.5 655.5q-20.5 22.5 -20.5 52t23 53.5t53 24t52 -24t22 -55.5t-23 -52t-54.5 -20.5t-52 22.5zM190 1148l6 -492q-12 -28 -12 -70v-41l-8 -326q0 -141 69 -141l85 3q110 0 110 -60q0 -22 -19 -36.5t-43 -17.5q-75 24 -183 24q-33 -19 -63.5 -19t-47.5 21t-17 46
q0 152 13 457.5t13 457.5v15q-12 128 -12 192q0 194 71 194q21 0 36.5 -15t15.5 -36z" />
    <glyph glyph-name="Lslash" unicode="&#x141;" horiz-adv-x="430" 
d="M86 42l13 90q0 212 -18 636q-31 -14 -54.5 -14t-44 14t-20.5 35q0 46 114 70q-18 438 -18 656q0 19 15 30.5t37.5 11.5t41 -17t18.5 -42q0 -116 9 -328.5t11 -279.5q103 45 176 45q14 0 26 -14.5t12 -37.5q0 -68 -213 -100v-2l3 -65q0 -13 -1 -20v-9q8 -178 8 -534v-52
h156q44 -30 44 -57t-15 -44.5t-31 -17.5t-37 7q-17 -4 -39 -4l-134 6q-22 0 -40.5 11t-18.5 26z" />
    <glyph glyph-name="lslash" unicode="&#x142;" horiz-adv-x="467" 
d="M204 1304l-14 -156q0 -69 2.5 -196t2.5 -177q92 32 133 32t52.5 -10t11.5 -23t-4.5 -21t-15 -15t-21 -11.5t-30.5 -10.5t-35 -10l-90 -20q-12 -39 -12 -116v-25l-8 -326q0 -141 7 -141l147 3q110 0 110 -60q0 -22 -19 -36.5t-43 -17.5q-75 24 -183 24q-33 -19 -63.5 -19
t-47.5 21t-17 46q0 126 19 611q-67 -32 -93 -32q-43 0 -43 39q0 51 139 79q4 146 4 218v15q-12 128 -12 192q0 194 71 194q21 0 36.5 -15t15.5 -36z" />
    <glyph glyph-name="Nacute" unicode="&#x143;" horiz-adv-x="737" 
d="M67 0zM290 1725q0 11 28.5 37.5t129 112.5t121.5 105q12 4 27 4t36 -25.5t21 -49.5t-15 -34q-78 -57 -298 -173q-8 -4 -19 -4t-21 8t-10 19zM67 1073l14 376v13q0 102 45 102q41 0 110 -190q126 -345 302 -1139l2 -10l8 714v606q12 51 67 51t55 -80v-12q-12 -25 -12 -60
l-13 -757v-626q0 -31 -17 -61t-42 -30q-43 0 -168 421.5t-247 906.5v-672q0 -98 14.5 -292t14.5 -292q0 -19 -23 -31.5t-58.5 -12.5t-35.5 32l10 147q0 106 -13 344t-13 291v261z" />
    <glyph glyph-name="nacute" unicode="&#x144;" horiz-adv-x="827" 
d="M64 0zM330 1507q0 11 28.5 37.5t129 112.5t121.5 105q12 4 27 4t36 -25.5t21 -49.5t-15 -34q-78 -57 -298 -173q-8 -4 -19 -4t-21 8t-10 19zM64 829l12 382q0 95 75 151v-13q8 5 15 5q48 0 120 -165.5t130 -363.5t115.5 -399.5t71.5 -236.5q41 429 41 1039l-3 55
q0 61 51 61q29 0 43.5 -24t14.5 -56v-155q-2 -241 -21.5 -643.5t-52.5 -454.5q-56 -17 -77.5 -17t-33 14.5t-18.5 44.5t-12 40l1 9q0 76 -147 483t-213 560v-1031q2 -4 8 -14q13 -22 13 -41t-18.5 -38t-43.5 -19q-67 0 -67 125z" />
    <glyph glyph-name="Ncommaaccent" unicode="&#x145;" horiz-adv-x="737" 
d="M67 0zM343 -508q-34 0 -34 23l7 37q44 200 114 280q32 36 64 36q4 -4 20 -8q36 -11 36 -33q0 -47 -45 -129.5t-95 -144t-67 -61.5zM67 1073l14 376v13q0 102 45 102q41 0 110 -190q126 -345 302 -1139l2 -10l8 714v606q12 51 67 51t55 -80v-12q-12 -25 -12 -60l-13 -757
v-626q0 -31 -17 -61t-42 -30q-43 0 -168 421.5t-247 906.5v-672q0 -98 14.5 -292t14.5 -292q0 -19 -23 -31.5t-58.5 -12.5t-35.5 32l10 147q0 106 -13 344t-13 291v261z" />
    <glyph glyph-name="ncommaaccent" unicode="&#x146;" horiz-adv-x="827" 
d="M64 0zM371 -484q-34 0 -34 23l7 37q44 200 114 280q32 36 64 36q4 -4 20 -8q36 -11 36 -33q0 -47 -45 -129.5t-95 -144t-67 -61.5zM64 829l12 382q0 95 75 151v-13q8 5 15 5q48 0 120 -165.5t130 -363.5t115.5 -399.5t71.5 -236.5q41 429 41 1039l-3 55q0 61 51 61
q29 0 43.5 -24t14.5 -56v-155q-2 -241 -21.5 -643.5t-52.5 -454.5q-56 -17 -77.5 -17t-33 14.5t-18.5 44.5t-12 40l1 9q0 76 -147 483t-213 560v-1031q2 -4 8 -14q13 -22 13 -41t-18.5 -38t-43.5 -19q-67 0 -67 125z" />
    <glyph glyph-name="Ncaron" unicode="&#x147;" horiz-adv-x="737" 
d="M67 0zM468 2090l-15 -31v-37l-29 -112q-29 -112 -29 -146q0 -66 -52 -66q-40 0 -112.5 166t-72.5 223q0 16 15 27.5t34 11.5q43 0 101 -211l27 -94q4 22 9 69t10 84q6 37 14 76q18 83 57 83q18 0 30.5 -11.5t12.5 -31.5zM67 1073l14 376v13q0 102 45 102q41 0 110 -190
q126 -345 302 -1139l2 -10l8 714v606q12 51 67 51t55 -80v-12q-12 -25 -12 -60l-13 -757v-626q0 -31 -17 -61t-42 -30q-43 0 -168 421.5t-247 906.5v-672q0 -98 14.5 -292t14.5 -292q0 -19 -23 -31.5t-58.5 -12.5t-35.5 32l10 147q0 106 -13 344t-13 291v261z" />
    <glyph glyph-name="ncaron" unicode="&#x148;" horiz-adv-x="827" 
d="M64 0zM507 1872l-15 -31v-37l-29 -112q-29 -112 -29 -146q0 -66 -52 -66q-40 0 -112.5 166t-72.5 223q0 16 15 27.5t34 11.5q43 0 101 -211l27 -94q4 22 9 69t10 84q6 37 14 76q18 83 57 83q18 0 30.5 -11.5t12.5 -31.5zM64 829l12 382q0 95 75 151v-13q8 5 15 5
q48 0 120 -165.5t130 -363.5t115.5 -399.5t71.5 -236.5q41 429 41 1039l-3 55q0 61 51 61q29 0 43.5 -24t14.5 -56v-155q-2 -241 -21.5 -643.5t-52.5 -454.5q-56 -17 -77.5 -17t-33 14.5t-18.5 44.5t-12 40l1 9q0 76 -147 483t-213 560v-1031q2 -4 8 -14q13 -22 13 -41
t-18.5 -38t-43.5 -19q-67 0 -67 125z" />
    <glyph glyph-name="Eng" unicode="&#x14a;" horiz-adv-x="737" 
d="M540 225l8 714v606q12 51 67 51t55 -80v-12q-2 -5 -10 -18q-16 -27 -15 -42v-1402q0 -204 -27 -258q-25 -50 -82 -92q-24 -18 -102 -80q-32 0 -53 16t-21 45t18.5 49.5t45.5 34t54 29.5q64 37 64 101l1 145q-120 261 -372 1266v-672q0 -98 14.5 -292t14.5 -292
q0 -19 -23 -31.5t-58.5 -12.5t-35.5 32l10 147q0 106 -13 344t-13 291v261l14 376v13q0 102 45 102q41 0 110 -190q126 -345 302 -1139z" />
    <glyph glyph-name="eng" unicode="&#x14b;" horiz-adv-x="827" 
d="M64 829l12 382q0 95 75 151v-13q8 5 15 5q48 0 120 -165.5t130 -363.5t115.5 -399.5t71.5 -236.5q41 429 41 1039l-3 55q0 61 51 61q29 0 43.5 -24t14.5 -56v-263q0 -561 -18.5 -758.5t-32.5 -294.5t-37 -182q-24 -86 -52 -147q-61 -131 -155 -131q-32 0 -53 16t-21 45
t16.5 40.5t41 17t49.5 16t46.5 45.5t27.5 85.5t9.5 129.5t7.5 116q-30 69 -203 577t-200 569v-1031q2 -4 8 -14q13 -22 13 -41t-18.5 -38t-43.5 -19q-67 0 -67 125z" />
    <glyph glyph-name="Omacron" unicode="&#x14c;" horiz-adv-x="650" 
d="M48 0zM138 1787l144 4q208 0 208 -55q0 -45 -66 -45l-148 -4q-228 0 -228 56q0 44 90 44zM582 618l-18 -259v-9q-13 -57 -13 -123t-23 -127.5t-70 -109t-103 -47.5t-102 38t-76 97.5t-53 142t-35.5 161t-20.5 165.5q-12 133 -11.5 206.5t-0.5 126t-2 94.5v46.5v54.5
q1 59 3.5 106t9 101.5t16.5 96t27 81.5q18 41 40 67q50 58 115 58t111 -23.5t77.5 -75.5t55 -101t37 -136.5t21.5 -141.5q8 -55 11 -157q4 -137 4 -214v-118zM349.5 1448.5q-30.5 28.5 -60.5 28.5t-49.5 -21t-33 -59.5t-24 -82.5t-16 -101.5t-9.5 -104.5q-3 -46 -5 -102
q-2 -93 -3 -145v-9q0 -137 21 -295.5t43.5 -259.5t60.5 -171.5t85 -70.5q41 0 69 77q28 78 40 192q20 204 20.5 286.5t0 120.5t-3 110.5t-8.5 136t-15.5 140.5t-25 137t-36 112.5t-51 81z" />
    <glyph glyph-name="omacron" unicode="&#x14d;" horiz-adv-x="651" 
d="M50 0zM146 1580l144 4q208 0 208 -55q0 -45 -66 -45l-148 -4q-228 0 -228 56q0 44 90 44zM51 626l2 78q0 10 -3 10v37q0 322 37 458q31 115 60 142t57 27q238 0 328 -240q52 -138 52 -340v-15l4 -232q0 -589 -273 -589q-113 0 -173 125q-57 120 -70 236q-21 175 -21 303z
M172 906l-10 -189q0 -297 48 -518q51 -129 97 -152q37 0 67 30t47.5 80.5t29.5 106.5q11 55 17 118q10 109 10 186t-13.5 236t-13.5 237v36q-2 75 -49 133.5t-120 58.5q-70 0 -93 -79q-19 -66 -19 -163z" />
    <glyph glyph-name="Obreve" unicode="&#x14e;" horiz-adv-x="650" 
d="M54 0zM431 1852v-1q-52 -133 -108 -154q-26 -10 -75 -10t-89 37q-72 65 -72 196v10l38 32q46 0 60 -75q15 -81 48 -105h44q14 0 30 32t16 52t1 31t6 26.5t17.5 22.5t33.5 7t37.5 -15.5t16.5 -28.5t-8 -41zM582 618l-18 -259v-9q-13 -57 -13 -123t-23 -127.5t-70 -109
t-103 -47.5t-102 38t-76 97.5t-53 142t-35.5 161t-20.5 165.5q-12 133 -11.5 206.5t-0.5 126t-2 94.5v46.5v54.5q1 59 3.5 106t9 101.5t16.5 96t27 81.5q18 41 40 67q50 58 115 58t111 -23.5t77.5 -75.5t55 -101t37 -136.5t21.5 -141.5q8 -55 11 -157q4 -137 4 -214v-118z
M349.5 1448.5q-30.5 28.5 -60.5 28.5t-49.5 -21t-33 -59.5t-24 -82.5t-16 -101.5t-9.5 -104.5q-3 -46 -5 -102q-2 -93 -3 -145v-9q0 -137 21 -295.5t43.5 -259.5t60.5 -171.5t85 -70.5q41 0 69 77q28 78 40 192q20 204 20.5 286.5t0 120.5t-3 110.5t-8.5 136t-15.5 140.5
t-25 137t-36 112.5t-51 81z" />
    <glyph glyph-name="obreve" unicode="&#x14f;" horiz-adv-x="651" 
d="M50 0zM439 1645v-1q-52 -133 -108 -154q-26 -10 -75 -10t-89 37q-72 65 -72 196v10l38 32q46 0 60 -75q15 -81 48 -105h44q14 0 30 32t16 52t1 31t6 26.5t17.5 22.5t33.5 7t37.5 -15.5t16.5 -28.5t-8 -41zM51 626l2 78q0 10 -3 10v37q0 322 37 458q31 115 60 142t57 27
q238 0 328 -240q52 -138 52 -340v-15l4 -232q0 -589 -273 -589q-113 0 -173 125q-57 120 -70 236q-21 175 -21 303zM172 906l-10 -189q0 -297 48 -518q51 -129 97 -152q37 0 67 30t47.5 80.5t29.5 106.5q11 55 17 118q10 109 10 186t-13.5 236t-13.5 237v36q-2 75 -49 133.5
t-120 58.5q-70 0 -93 -79q-19 -66 -19 -163z" />
    <glyph glyph-name="Ohungarumlaut" unicode="&#x150;" horiz-adv-x="650" 
d="M54 0zM133 1687v13q2 31 69.5 136.5t141 198t91.5 92.5t33 -11t15 -27q0 -46 -75 -141.5t-159.5 -173.5t-115.5 -87zM411 1700q-20 -1 -20 25t86 124.5t181 188t117 89.5t39 -14.5t23 -33.5q-19 -50 -192 -197.5t-234 -181.5zM582 618l-18 -259v-9q-13 -57 -13 -123
t-23 -127.5t-70 -109t-103 -47.5t-102 38t-76 97.5t-53 142t-35.5 161t-20.5 165.5q-12 133 -11.5 206.5t-0.5 126t-2 94.5v46.5v54.5q1 59 3.5 106t9 101.5t16.5 96t27 81.5q18 41 40 67q50 58 115 58t111 -23.5t77.5 -75.5t55 -101t37 -136.5t21.5 -141.5q8 -55 11 -157
q4 -137 4 -214v-118zM349.5 1448.5q-30.5 28.5 -60.5 28.5t-49.5 -21t-33 -59.5t-24 -82.5t-16 -101.5t-9.5 -104.5q-3 -46 -5 -102q-2 -93 -3 -145v-9q0 -137 21 -295.5t43.5 -259.5t60.5 -171.5t85 -70.5q41 0 69 77q28 78 40 192q20 204 20.5 286.5t0 120.5t-3 110.5
t-8.5 136t-15.5 140.5t-25 137t-36 112.5t-51 81z" />
    <glyph glyph-name="ohungarumlaut" unicode="&#x151;" horiz-adv-x="651" 
d="M50 0zM141 1480v13q2 31 69.5 136.5t141 198t91.5 92.5t33 -11t15 -27q0 -46 -75 -141.5t-159.5 -173.5t-115.5 -87zM419 1493q-20 -1 -20 25t86 124.5t181 188t117 89.5t39 -14.5t23 -33.5q-19 -50 -192 -197.5t-234 -181.5zM51 626l2 78q0 10 -3 10v37q0 322 37 458
q31 115 60 142t57 27q238 0 328 -240q52 -138 52 -340v-15l4 -232q0 -589 -273 -589q-113 0 -173 125q-57 120 -70 236q-21 175 -21 303zM172 906l-10 -189q0 -297 48 -518q51 -129 97 -152q37 0 67 30t47.5 80.5t29.5 106.5q11 55 17 118q10 109 10 186t-13.5 236
t-13.5 237v36q-2 75 -49 133.5t-120 58.5q-70 0 -93 -79q-19 -66 -19 -163z" />
    <glyph glyph-name="OE" unicode="&#x152;" horiz-adv-x="1113" 
d="M774 757l14 -677q103 7 133 7l4 -2h29q136 0 136 -60v-7l-23 -34l-324 -6q-24 0 -49 13t-25 35l1 7q-76 -24 -131.5 -24t-121 16t-114 42t-87 67.5t-65 85.5t-45.5 103.5t-29.5 112.5t-16.5 123q-9 105 -9 203.5t0.5 131.5t3.5 97.5t8.5 110t16.5 108t26.5 106.5
t40.5 91.5t56 76.5q72 67 164.5 67t159.5 -11t122 -46l30 43l92 -12h152l51 4q47 -26 47 -53q0 -50 -60 -50l-218 7q0 -69 14 -207t14 -208l-4 -105q0 -33 5 -57l62 -2h9l45 1q41 0 70 -37q0 -64 -56 -64l-100 4q-19 0 -28 -1zM145 957l1 -137q0 -46 -1 -69q13 -24 24 -196
q22 -317 88 -323q101 -120 251 -120q75 0 127.5 17.5t52.5 38.5q0 216 -19 621t-22 582q-70 78 -243 78q-112 -1 -170 -91q-57 -88 -70 -173q-19 -134 -19 -228z" />
    <glyph glyph-name="oe" unicode="&#x153;" horiz-adv-x="846" 
d="M55 626l2 78q0 10 -3 10v37q0 225 24.5 318.5t49.5 152.5q53 126 165 126q68 0 123.5 -49t81.5 -121q0 140 26 163q12 11 52.5 11t135.5 -25.5t95 -65.5q0 -17 -10.5 -32t-35 -15t-83 19.5t-83.5 22.5v-108l-1 -20q-8 -168 -8 -228.5t6 -102.5l94 4q78 0 78 -32
q0 -20 -12.5 -35.5t-32.5 -15.5h-130q6 -78 6 -155l-9 -371q0 -128 4 -128l151 5q65 0 65 -50q0 -46 -75 -46h-173q-27 0 -49 18.5t-23 44.5v91q-17 -80 -63 -122.5t-103 -42.5t-101.5 33.5t-72 91.5t-46.5 125q-18 67 -28 147q-16 139 -17 267zM163 909l3 -192
q0 -297 48 -518q33 -152 97 -152q37 0 67 30t47.5 80.5t29.5 106.5q11 55 17 118q10 109 10 186t-13.5 236t-13.5 237v36q-2 75 -49 133.5t-120 58.5q-77 -1 -102 -119q-21 -98 -21 -241z" />
    <glyph glyph-name="Racute" unicode="&#x154;" horiz-adv-x="548" 
d="M78 0zM176 1714q0 11 28.5 37.5t129 112.5t121.5 105q12 4 27 4t36 -25.5t21 -49.5t-15 -34q-78 -57 -298 -173q-8 -4 -19 -4t-21 8t-10 19zM78 60l8 1201v252q0 24 10 34t52.5 10t86 -20.5t73.5 -54.5q29 -36 50 -80q40 -85 40 -185t-50 -229q-6 -14 -24 -59t-21 -53
q1 -152 77 -395q26 -82 74 -224.5t60 -180.5v-5q0 -69 -16 -80.5t-34 -11.5q-38 0 -74 55v7q-10 186 -128 563q-54 172 -75 255v-807q0 -31 -11 -48t-40 -17t-43.5 16.5t-14.5 40.5v16zM191 1463l-11 -418q0 -63 2 -94q35 33 69 79l32 177q3 14 3 32q0 49 -20 119
q-28 96 -75 105z" />
    <glyph glyph-name="racute" unicode="&#x155;" horiz-adv-x="504" 
d="M63 0zM172 1507q0 11 28.5 37.5t129 112.5t121.5 105q12 4 27 4t36 -25.5t21 -49.5t-15 -34q-78 -57 -298 -173q-8 -4 -19 -4t-21 8t-10 19zM174 1289l-7 -29q0 -84 4 -242.5t4 -230.5q48 25 77.5 130.5t29.5 161.5t-3 82.5t-13 58.5q-20 66 -92 69zM166 686l-2 -222
q0 -271 39 -427l-23 -55h-57l-27 30q2 92 2 206.5t-17.5 489.5t-17.5 560q0 97 68 97q107 0 180 -56t73 -160v-144q0 -59 -22 -107.5t-51 -102t-32 -59.5q11 -50 39 -196q60 -319 133 -459q21 -40 21 -62.5t-12.5 -38t-33.5 -15.5q-43 0 -82.5 98.5t-63.5 218.5
q-73 367 -89 404h-25z" />
    <glyph glyph-name="Rcedilla" unicode="&#x156;" horiz-adv-x="548" 
d="M78 0zM201 -550q-34 0 -34 23l7 37q44 200 114 280q32 36 64 36q4 -4 20 -8q36 -11 36 -33q0 -47 -45 -129.5t-95 -144t-67 -61.5zM78 60l8 1201v252q0 24 10 34t52.5 10t86 -20.5t73.5 -54.5q29 -36 50 -80q40 -85 40 -185t-50 -229q-6 -14 -24 -59t-21 -53
q1 -152 77 -395q26 -82 74 -224.5t60 -180.5v-5q0 -69 -16 -80.5t-34 -11.5q-38 0 -74 55v7q-10 186 -128 563q-54 172 -75 255v-807q0 -31 -11 -48t-40 -17t-43.5 16.5t-14.5 40.5v16zM191 1463l-11 -418q0 -63 2 -94q35 33 69 79l32 177q3 14 3 32q0 49 -20 119
q-28 96 -75 105z" />
    <glyph glyph-name="rcommaaccent" unicode="&#x157;" horiz-adv-x="504" 
d="M63 0zM215 -513q-34 0 -34 23l7 37q44 200 114 280q32 36 64 36q4 -4 20 -8q36 -11 36 -33q0 -47 -45 -129.5t-95 -144t-67 -61.5zM174 1289l-7 -29q0 -84 4 -242.5t4 -230.5q48 25 77.5 130.5t29.5 161.5t-3 82.5t-13 58.5q-20 66 -92 69zM166 686l-2 -222
q0 -271 39 -427l-23 -55h-57l-27 30q2 92 2 206.5t-17.5 489.5t-17.5 560q0 97 68 97q107 0 180 -56t73 -160v-144q0 -59 -22 -107.5t-51 -102t-32 -59.5q11 -50 39 -196q60 -319 133 -459q21 -40 21 -62.5t-12.5 -38t-33.5 -15.5q-43 0 -82.5 98.5t-63.5 218.5
q-73 367 -89 404h-25z" />
    <glyph glyph-name="Rcaron" unicode="&#x158;" horiz-adv-x="548" 
d="M44 0zM354 2079l-15 -31v-37l-29 -112q-29 -112 -29 -146q0 -66 -52 -66q-40 0 -112.5 166t-72.5 223q0 16 15 27.5t34 11.5q43 0 101 -211l27 -94q4 22 9 69t10 84q6 37 14 76q18 83 57 83q18 0 30.5 -11.5t12.5 -31.5zM78 60l8 1201v252q0 24 10 34t52.5 10t86 -20.5
t73.5 -54.5q29 -36 50 -80q40 -85 40 -185t-50 -229q-6 -14 -24 -59t-21 -53q1 -152 77 -395q26 -82 74 -224.5t60 -180.5v-5q0 -69 -16 -80.5t-34 -11.5q-38 0 -74 55v7q-10 186 -128 563q-54 172 -75 255v-807q0 -31 -11 -48t-40 -17t-43.5 16.5t-14.5 40.5v16zM191 1463
l-11 -418q0 -63 2 -94q35 33 69 79l32 177q3 14 3 32q0 49 -20 119q-28 96 -75 105z" />
    <glyph glyph-name="rcaron" unicode="&#x159;" horiz-adv-x="504" 
d="M39 0zM349 1872l-15 -31v-37l-29 -112q-29 -112 -29 -146q0 -66 -52 -66q-40 0 -112.5 166t-72.5 223q0 16 15 27.5t34 11.5q43 0 101 -211l27 -94q4 22 9 69t10 84q6 37 14 76q18 83 57 83q18 0 30.5 -11.5t12.5 -31.5zM174 1289l-7 -29q0 -84 4 -242.5t4 -230.5
q48 25 77.5 130.5t29.5 161.5t-3 82.5t-13 58.5q-20 66 -92 69zM166 686l-2 -222q0 -271 39 -427l-23 -55h-57l-27 30q2 92 2 206.5t-17.5 489.5t-17.5 560q0 97 68 97q107 0 180 -56t73 -160v-144q0 -59 -22 -107.5t-51 -102t-32 -59.5q11 -50 39 -196q60 -319 133 -459
q21 -40 21 -62.5t-12.5 -38t-33.5 -15.5q-43 0 -82.5 98.5t-63.5 218.5q-73 367 -89 404h-25z" />
    <glyph glyph-name="Sacute" unicode="&#x15a;" horiz-adv-x="523" 
d="M38 0zM143 1714q0 11 28.5 37.5t129 112.5t121.5 105q12 4 27 4t36 -25.5t21 -49.5t-15 -34q-78 -57 -298 -173q-8 -4 -19 -4t-21 8t-10 19zM38 24q0 55 46 55q23 0 60.5 -15.5t65 -15.5t59.5 35t50 87q37 106 37 191.5t-30 183.5t-73 184t-87 172q-104 205 -103 374
q-1 160 101 251q54 48 127 48q37 0 72 -20.5t49 -53.5l-35 -44q-51 0 -80 20q-38 -4 -66 -36q-51 -59 -51 -145.5t22 -168.5t55 -147t71 -141q39 -76 72 -146q77 -162 77 -350q1 -132 -67 -254q-32 -58 -88 -95.5t-125 -37.5q-74 0 -116.5 22t-42.5 47z" />
    <glyph glyph-name="sacute" unicode="&#x15b;" horiz-adv-x="445" 
d="M49 0zM118 1510q0 11 28.5 37.5t129 112.5t121.5 105q12 4 27 4t36 -25.5t21 -49.5t-15 -34q-78 -57 -298 -173q-8 -4 -19 -4t-21 8t-10 19zM72 86l85 -15q39 0 68 34t43 85q27 98 27 173.5t-25 149.5t-61.5 137.5t-72.5 129.5q-86 156 -86 306q0 92 31 163
q58 132 154 132q36 0 68.5 -23t32.5 -50q0 -47 -50 -47q-22 0 -43 12q-65 -3 -88 -145q-5 -31 -5 -72.5t18 -102.5t45.5 -108.5t59 -105t59.5 -111.5q64 -125 63 -286q1 -124 -57 -237q-28 -56 -79.5 -91.5t-117.5 -36.5v-5q-84 12 -92 79z" />
    <glyph glyph-name="scircumflex" unicode="&#x15d;" horiz-adv-x="445" 
d="M0 0zM58 1500.5q-12 -13.5 -25.5 -13.5t-27 19t-13.5 50.5t33 123t81.5 173.5t83.5 82t83.5 -157t48.5 -238q0 -24 -18.5 -40.5t-41.5 -16.5q-55 1 -77 189q-10 86 -13 97q0 -6 -15.5 -48.5t-27 -74.5t-23 -58t-24 -50t-24.5 -37.5zM72 86l85 -15q39 0 68 34t43 85
q27 98 27 173.5t-25 149.5t-61.5 137.5t-72.5 129.5q-86 156 -86 306q0 92 31 163q58 132 154 132q36 0 68.5 -23t32.5 -50q0 -47 -50 -47q-22 0 -43 12q-65 -3 -88 -145q-5 -31 -5 -72.5t18 -102.5t45.5 -108.5t59 -105t59.5 -111.5q64 -125 63 -286q1 -124 -57 -237
q-28 -56 -79.5 -91.5t-117.5 -36.5v-5q-84 12 -92 79z" />
    <glyph glyph-name="Scedilla" unicode="&#x15e;" horiz-adv-x="523" 
d="M38 0zM125 -253l9 166q0 39 6 59h56q-10 -51 -13 -109q109 -15 159 -78t50 -136t-53 -126t-107 -53t-92.5 15t-38.5 38.5t14 36.5t30.5 13t42.5 -11t51.5 -11t45.5 28.5t20 66t-26.5 63.5t-88.5 26t-65 12zM38 24q0 55 46 55q23 0 60.5 -15.5t65 -15.5t59.5 35t50 87
q37 106 37 191.5t-30 183.5t-73 184t-87 172q-104 205 -103 374q-1 160 101 251q54 48 127 48q37 0 72 -20.5t49 -53.5l-35 -44q-51 0 -80 20q-38 -4 -66 -36q-51 -59 -51 -145.5t22 -168.5t55 -147t71 -141q39 -76 72 -146q77 -162 77 -350q1 -132 -67 -254
q-32 -58 -88 -95.5t-125 -37.5q-74 0 -116.5 22t-42.5 47z" />
    <glyph glyph-name="scedilla" unicode="&#x15f;" horiz-adv-x="445" 
d="M49 0zM98 -236l9 166q0 39 6 59h56q-10 -51 -13 -109q109 -15 159 -78t50 -136t-53 -126t-107 -53t-92.5 15t-38.5 38.5t14 36.5t30.5 13t42.5 -11t51.5 -11t45.5 28.5t20 66t-26.5 63.5t-88.5 26t-65 12zM72 86l85 -15q39 0 68 34t43 85q27 98 27 173.5t-25 149.5
t-61.5 137.5t-72.5 129.5q-86 156 -86 306q0 92 31 163q58 132 154 132q36 0 68.5 -23t32.5 -50q0 -47 -50 -47q-22 0 -43 12q-65 -3 -88 -145q-5 -31 -5 -72.5t18 -102.5t45.5 -108.5t59 -105t59.5 -111.5q64 -125 63 -286q1 -124 -57 -237q-28 -56 -79.5 -91.5
t-117.5 -36.5v-5q-84 12 -92 79z" />
    <glyph glyph-name="Scaron" unicode="&#x160;" horiz-adv-x="523" 
d="M11 0zM321 2079l-15 -31v-37l-29 -112q-29 -112 -29 -146q0 -66 -52 -66q-40 0 -112.5 166t-72.5 223q0 16 15 27.5t34 11.5q43 0 101 -211l27 -94q4 22 9 69t10 84q6 37 14 76q18 83 57 83q18 0 30.5 -11.5t12.5 -31.5zM38 24q0 55 46 55q23 0 60.5 -15.5t65 -15.5
t59.5 35t50 87q37 106 37 191.5t-30 183.5t-73 184t-87 172q-104 205 -103 374q-1 160 101 251q54 48 127 48q37 0 72 -20.5t49 -53.5l-35 -44q-51 0 -80 20q-38 -4 -66 -36q-51 -59 -51 -145.5t22 -168.5t55 -147t71 -141q39 -76 72 -146q77 -162 77 -350q1 -132 -67 -254
q-32 -58 -88 -95.5t-125 -37.5q-74 0 -116.5 22t-42.5 47z" />
    <glyph glyph-name="scaron" unicode="&#x161;" horiz-adv-x="445" 
d="M0 0zM296 1875l-15 -31v-37l-29 -112q-29 -112 -29 -146q0 -66 -52 -66q-40 0 -112.5 166t-72.5 223q0 16 15 27.5t34 11.5q43 0 101 -211l27 -94q4 22 9 69t10 84q6 37 14 76q18 83 57 83q18 0 30.5 -11.5t12.5 -31.5zM72 86l85 -15q39 0 68 34t43 85q27 98 27 173.5
t-25 149.5t-61.5 137.5t-72.5 129.5q-86 156 -86 306q0 92 31 163q58 132 154 132q36 0 68.5 -23t32.5 -50q0 -47 -50 -47q-22 0 -43 12q-65 -3 -88 -145q-5 -31 -5 -72.5t18 -102.5t45.5 -108.5t59 -105t59.5 -111.5q64 -125 63 -286q1 -124 -57 -237q-28 -56 -79.5 -91.5
t-117.5 -36.5v-5q-84 12 -92 79z" />
    <glyph glyph-name="Tcommaaccent" unicode="&#x162;" horiz-adv-x="492" 
d="M21 0zM250 -222l9 166q0 39 6 59h56q-10 -51 -13 -109q109 -15 159 -78t50 -136t-53 -126t-107 -53t-92.5 15t-38.5 38.5t14 36.5t30.5 13t42.5 -11t51.5 -11t45.5 28.5t20 66t-26.5 63.5t-88.5 26t-65 12zM321 1189l-4 -264l18 -471l17 -368q0 -100 -59 -100
q-34 0 -50 32t-16 71l16 327q0 106 -14 319t-14 319l3 179q0 147 -19 191l-111 -11q-26 0 -46.5 15.5t-20.5 40t49 41.5q50 18 120 26q123 14 207 14q25 0 45.5 -16.5t20.5 -41.5t-18 -39.5t-44 -14.5l-73 4q-14 0 -21 -1q14 -118 14 -252z" />
    <glyph glyph-name="tcommaaccent" unicode="&#x163;" horiz-adv-x="493" 
d="M23 0zM262 -202l9 166q0 39 6 59h56q-10 -51 -13 -109q109 -15 159 -78t50 -136t-53 -126t-107 -53t-92.5 15t-38.5 38.5t14 36.5t30.5 13t42.5 -11t51.5 -11t45.5 28.5t20 66t-26.5 63.5t-88.5 26t-65 12zM257 33l-4 157q0 1 3 70q-8 26 -32.5 462t-26.5 533h-8
q-166 3 -166 61q0 19 22 31.5t43 12.5l278 -19l33 1q64 0 64 -49q0 -25 -21 -40.5t-47 -15.5l-94 14l-4 -21q0 -194 34 -581t34 -582q0 -24 -22 -42.5t-48 -18.5z" />
    <glyph glyph-name="Tcaron" unicode="&#x164;" horiz-adv-x="492" 
d="M21 0zM369 2079l-15 -31v-37l-29 -112q-29 -112 -29 -146q0 -66 -52 -66q-40 0 -112.5 166t-72.5 223q0 16 15 27.5t34 11.5q43 0 101 -211l27 -94q4 22 9 69t10 84q6 37 14 76q18 83 57 83q18 0 30.5 -11.5t12.5 -31.5zM321 1189l-4 -264l18 -471l17 -368
q0 -100 -59 -100q-34 0 -50 32t-16 71l16 327q0 106 -14 319t-14 319l3 179q0 147 -19 191l-111 -11q-26 0 -46.5 15.5t-20.5 40t49 41.5q50 18 120 26q123 14 207 14q25 0 45.5 -16.5t20.5 -41.5t-18 -39.5t-44 -14.5l-73 4q-14 0 -21 -1q14 -118 14 -252z" />
    <glyph glyph-name="tcaron" unicode="&#x165;" horiz-adv-x="493" 
d="M23 6zM369 1899l-15 -31v-37l-29 -112q-29 -112 -29 -146q0 -66 -52 -66q-40 0 -112.5 166t-72.5 223q0 16 15 27.5t34 11.5q43 0 101 -211l27 -94q4 22 9 69t10 84q6 37 14 76q18 83 57 83q18 0 30.5 -11.5t12.5 -31.5zM257 33l-4 157q0 1 3 70q-8 26 -32.5 462
t-26.5 533h-8q-166 3 -166 61q0 19 22 31.5t43 12.5l278 -19l33 1q64 0 64 -49q0 -25 -21 -40.5t-47 -15.5l-94 14l-4 -21q0 -194 34 -581t34 -582q0 -24 -22 -42.5t-48 -18.5z" />
    <glyph glyph-name="Tbar" unicode="&#x166;" horiz-adv-x="492" 
d="M21 0zM145 994l144 4q208 0 208 -55q0 -45 -66 -45l-148 -4q-228 0 -228 56q0 44 90 44zM321 1189l-4 -264l18 -471l17 -368q0 -100 -59 -100q-34 0 -50 32t-16 71l16 327q0 106 -14 319t-14 319l3 179q0 147 -19 191l-111 -11q-26 0 -46.5 15.5t-20.5 40t49 41.5
q50 18 120 26q123 14 207 14q25 0 45.5 -16.5t20.5 -41.5t-18 -39.5t-44 -14.5l-73 4q-14 0 -21 -1q14 -118 14 -252z" />
    <glyph glyph-name="tbar" unicode="&#x167;" horiz-adv-x="493" 
d="M23 6zM146 800l144 4q208 0 208 -55q0 -45 -66 -45l-148 -4q-228 0 -228 56q0 44 90 44zM257 33l-4 157q0 1 3 70q-8 26 -32.5 462t-26.5 533h-8q-166 3 -166 61q0 19 22 31.5t43 12.5l278 -19l33 1q64 0 64 -49q0 -25 -21 -40.5t-47 -15.5l-94 14l-4 -21q0 -194 34 -581
t34 -582q0 -24 -22 -42.5t-48 -18.5z" />
    <glyph glyph-name="Utilde" unicode="&#x168;" horiz-adv-x="699" 
d="M39 0zM446 1859q11 13 37.5 13t43.5 -16t17 -37q0 -53 -39.5 -92.5t-93 -39.5t-89.5 14q-34 14 -48 30q-36 44 -80 43q-29 -11 -24 -39t-29 -40q-31 0 -52.5 15t-21.5 54t40 74t108 35q25 0 89 -41.5t84 -41.5t30.5 13t13.5 28t14 28zM52 1115l2 320q-15 17 -15 42
t17.5 44t41.5 19q74 0 74 -146l19 -712q12 -27 20.5 -109t8.5 -127.5t14.5 -112t40 -134.5t69 -116t82.5 -48t58 18.5t26 52.5q11 54 11 113v400q0 65 -13 193t-13 193v14l-4 119l-15 351q0 25 25 40.5t52 15.5l50 -48v-34l-15 -125q0 -171 18.5 -515t18.5 -465.5t-3.5 -162
t-15.5 -86.5t-33 -76q-49 -70 -150 -70q-125 -1 -201 109q-80 116 -112 278q-38 191 -46 335q-12 217 -12 430z" />
    <glyph glyph-name="utilde" unicode="&#x169;" horiz-adv-x="641" 
d="M53 0zM432 1663q11 13 37.5 13t43.5 -16t17 -37q0 -53 -39.5 -92.5t-93 -39.5t-89.5 14q-34 14 -48 30q-36 44 -80 43q-29 -11 -24 -39t-29 -40q-31 0 -52.5 15t-21.5 54t40 74t108 35q25 0 89 -41.5t84 -41.5t30.5 13t13.5 28t14 28zM560 913l2 -35q0 -909 -264 -909
q-102 -1 -151 83q-51 86 -62 171q-17 131 -19.5 300.5t-2.5 489.5l-9 293q19 43 43.5 43t43.5 -37.5t19 -79.5v-557q0 -73 14.5 -217t14.5 -217q0 -150 130 -150q146 0 146 1101v115l-1 34q0 24 11 36t38.5 12t41.5 -9q13 -8 19 -24q8 -25 9 -66l-14 -206z" />
    <glyph glyph-name="Umacron" unicode="&#x16a;" horiz-adv-x="699" 
d="M39 0zM207 1787l144 4q208 0 208 -55q0 -45 -66 -45l-148 -4q-228 0 -228 56q0 44 90 44zM52 1115l2 320q-15 17 -15 42t17.5 44t41.5 19q74 0 74 -146l19 -712q12 -27 20.5 -109t8.5 -127.5t14.5 -112t40 -134.5t69 -116t82.5 -48t58 18.5t26 52.5q11 54 11 113v400
q0 65 -13 193t-13 193v14l-4 119l-15 351q0 25 25 40.5t52 15.5l50 -48v-34l-15 -125q0 -171 18.5 -515t18.5 -465.5t-3.5 -162t-15.5 -86.5t-33 -76q-49 -70 -150 -70q-125 -1 -201 109q-80 116 -112 278q-38 191 -46 335q-12 217 -12 430z" />
    <glyph glyph-name="umacron" unicode="&#x16b;" horiz-adv-x="641" 
d="M54 0zM192 1591l144 4q208 0 208 -55q0 -45 -66 -45l-148 -4q-228 0 -228 56q0 44 90 44zM560 913l2 -35q0 -909 -264 -909q-102 -1 -151 83q-51 86 -62 171q-17 131 -19.5 300.5t-2.5 489.5l-9 293q19 43 43.5 43t43.5 -37.5t19 -79.5v-557q0 -73 14.5 -217t14.5 -217
q0 -150 130 -150q146 0 146 1101v115l-1 34q0 24 11 36t38.5 12t41.5 -9q13 -8 19 -24q8 -25 9 -66l-14 -206z" />
    <glyph glyph-name="Ubreve" unicode="&#x16c;" horiz-adv-x="699" 
d="M39 0zM469 1852v-1q-52 -133 -108 -154q-26 -10 -75 -10t-89 37q-72 65 -72 196v10l38 32q46 0 60 -75q15 -81 48 -105h44q14 0 30 32t16 52t1 31t6 26.5t17.5 22.5t33.5 7t37.5 -15.5t16.5 -28.5t-8 -41zM52 1115l2 320q-15 17 -15 42t17.5 44t41.5 19q74 0 74 -146
l19 -712q12 -27 20.5 -109t8.5 -127.5t14.5 -112t40 -134.5t69 -116t82.5 -48t58 18.5t26 52.5q11 54 11 113v400q0 65 -13 193t-13 193v14l-4 119l-15 351q0 25 25 40.5t52 15.5l50 -48v-34l-15 -125q0 -171 18.5 -515t18.5 -465.5t-3.5 -162t-15.5 -86.5t-33 -76
q-49 -70 -150 -70q-125 -1 -201 109q-80 116 -112 278q-38 191 -46 335q-12 217 -12 430z" />
    <glyph glyph-name="ubreve" unicode="&#x16d;" horiz-adv-x="641" 
d="M54 0zM455 1656v-1q-52 -133 -108 -154q-26 -10 -75 -10t-89 37q-72 65 -72 196v10l38 32q46 0 60 -75q15 -81 48 -105h44q14 0 30 32t16 52t1 31t6 26.5t17.5 22.5t33.5 7t37.5 -15.5t16.5 -28.5t-8 -41zM560 913l2 -35q0 -909 -264 -909q-102 -1 -151 83
q-51 86 -62 171q-17 131 -19.5 300.5t-2.5 489.5l-9 293q19 43 43.5 43t43.5 -37.5t19 -79.5v-557q0 -73 14.5 -217t14.5 -217q0 -150 130 -150q146 0 146 1101v115l-1 34q0 24 11 36t38.5 12t41.5 -9q13 -8 19 -24q8 -25 9 -66l-14 -206z" />
    <glyph glyph-name="Uring" unicode="&#x16e;" horiz-adv-x="699" 
d="M33 0zM96.5 2151.5q63.5 67.5 168.5 67.5q97 0 144 -23t70.5 -42.5t37.5 -40.5q14 -22 24 -46q18 -43 18 -78.5t-7 -69.5t-27 -76q-19 -42 -50 -76q-74 -80 -210 -80q-150 0 -205 141q-27 69 -27 162.5t63.5 161zM363.5 2138q-39.5 12 -87.5 12t-82 -21q-33 -21 -51 -57
q-34 -69 -34 -158q0 -48 50.5 -99t104 -51t89 11.5t58.5 30.5t40 41q16 22 24 48q16 51 16 77.5t-6 48t-21 45.5t-38 42t-62.5 30zM52 1115l2 320q-15 17 -15 42t17.5 44t41.5 19q74 0 74 -146l19 -712q12 -27 20.5 -109t8.5 -127.5t14.5 -112t40 -134.5t69 -116t82.5 -48
t58 18.5t26 52.5q11 54 11 113v400q0 65 -13 193t-13 193v14l-4 119l-15 351q0 25 25 40.5t52 15.5l50 -48v-34l-15 -125q0 -171 18.5 -515t18.5 -465.5t-3.5 -162t-15.5 -86.5t-33 -76q-49 -70 -150 -70q-125 -1 -201 109q-80 116 -112 278q-38 191 -46 335
q-12 217 -12 430z" />
    <glyph glyph-name="uring" unicode="&#x16f;" horiz-adv-x="641" 
d="M19 0zM82.5 1955.5q63.5 67.5 168.5 67.5q97 0 144 -23t70.5 -42.5t37.5 -40.5q14 -22 24 -46q18 -43 18 -78.5t-7 -69.5t-27 -76q-19 -42 -50 -76q-74 -80 -210 -80q-150 0 -205 141q-27 69 -27 162.5t63.5 161zM349.5 1942q-39.5 12 -87.5 12t-82 -21q-33 -21 -51 -57
q-34 -69 -34 -158q0 -48 50.5 -99t104 -51t89 11.5t58.5 30.5t40 41q16 22 24 48q16 51 16 77.5t-6 48t-21 45.5t-38 42t-62.5 30zM560 913l2 -35q0 -909 -264 -909q-102 -1 -151 83q-51 86 -62 171q-17 131 -19.5 300.5t-2.5 489.5l-9 293q19 43 43.5 43t43.5 -37.5
t19 -79.5v-557q0 -73 14.5 -217t14.5 -217q0 -150 130 -150q146 0 146 1101v115l-1 34q0 24 11 36t38.5 12t41.5 -9q13 -8 19 -24q8 -25 9 -66l-14 -206z" />
    <glyph glyph-name="Uhungarumlaut" unicode="&#x170;" horiz-adv-x="699" 
d="M39 0zM138 1687v13q2 31 69.5 136.5t141 198t91.5 92.5t33 -11t15 -27q0 -46 -75 -141.5t-159.5 -173.5t-115.5 -87zM416 1700q-20 -1 -20 25t86 124.5t181 188t117 89.5t39 -14.5t23 -33.5q-19 -50 -192 -197.5t-234 -181.5zM52 1115l2 320q-15 17 -15 42t17.5 44
t41.5 19q74 0 74 -146l19 -712q12 -27 20.5 -109t8.5 -127.5t14.5 -112t40 -134.5t69 -116t82.5 -48t58 18.5t26 52.5q11 54 11 113v400q0 65 -13 193t-13 193v14l-4 119l-15 351q0 25 25 40.5t52 15.5l50 -48v-34l-15 -125q0 -171 18.5 -515t18.5 -465.5t-3.5 -162
t-15.5 -86.5t-33 -76q-49 -70 -150 -70q-125 -1 -201 109q-80 116 -112 278q-38 191 -46 335q-12 217 -12 430z" />
    <glyph glyph-name="uhungarumlaut" unicode="&#x171;" horiz-adv-x="641" 
d="M54 0zM123 1491v13q2 31 69.5 136.5t141 198t91.5 92.5t33 -11t15 -27q0 -46 -75 -141.5t-159.5 -173.5t-115.5 -87zM401 1504q-20 -1 -20 25t86 124.5t181 188t117 89.5t39 -14.5t23 -33.5q-19 -50 -192 -197.5t-234 -181.5zM560 913l2 -35q0 -909 -264 -909
q-102 -1 -151 83q-51 86 -62 171q-17 131 -19.5 300.5t-2.5 489.5l-9 293q19 43 43.5 43t43.5 -37.5t19 -79.5v-557q0 -73 14.5 -217t14.5 -217q0 -150 130 -150q146 0 146 1101v115l-1 34q0 24 11 36t38.5 12t41.5 -9q13 -8 19 -24q8 -25 9 -66l-14 -206z" />
    <glyph glyph-name="Uogonek" unicode="&#x172;" horiz-adv-x="699" 
d="M39 0zM370 -306q40 0 86 33l14 -34q0 -27 -38 -45.5t-74 -18.5t-60.5 32t-24.5 75q0 82 56 156t136 123l55 -27q-12 -8 -31.5 -25.5t-37.5 -33t-24.5 -22.5t-21 -22.5t-21 -25.5t-16.5 -26t-14 -28q-11 -34 -11 -72.5t27 -38.5zM52 1115l2 320q-15 17 -15 42t17.5 44
t41.5 19q74 0 74 -146l19 -712q12 -27 20.5 -109t8.5 -127.5t14.5 -112t40 -134.5t69 -116t82.5 -48t58 18.5t26 52.5q11 54 11 113v400q0 65 -13 193t-13 193v14l-4 119l-15 351q0 25 25 40.5t52 15.5l50 -48v-34l-15 -125q0 -171 18.5 -515t18.5 -465.5t-3.5 -162
t-15.5 -86.5t-33 -76q-49 -70 -150 -70q-125 -1 -201 109q-80 116 -112 278q-38 191 -46 335q-12 217 -12 430z" />
    <glyph glyph-name="uogonek" unicode="&#x173;" horiz-adv-x="641" 
d="M54 0zM184 -318q40 0 86 33l14 -34q0 -27 -38 -45.5t-74 -18.5t-60.5 32t-24.5 75q0 82 56 156t136 123l55 -27q-12 -8 -31.5 -25.5t-37.5 -33t-24.5 -22.5t-21 -22.5t-21 -25.5t-16.5 -26t-14 -28q-11 -34 -11 -72.5t27 -38.5zM560 913l2 -35q0 -909 -264 -909
q-102 -1 -151 83q-51 86 -62 171q-17 131 -19.5 300.5t-2.5 489.5l-9 293q19 43 43.5 43t43.5 -37.5t19 -79.5v-557q0 -73 14.5 -217t14.5 -217q0 -150 130 -150q146 0 146 1101v115l-1 34q0 24 11 36t38.5 12t41.5 -9q13 -8 19 -24q8 -25 9 -66l-14 -206z" />
    <glyph glyph-name="Ydieresis" unicode="&#x178;" horiz-adv-x="453" 
d="M25 0zM152.5 1708q-25.5 -21 -55 -21t-45 19t-15.5 49t20 51.5t49.5 21.5t50.5 -20t21 -49.5t-25.5 -50.5zM336 1708q-19 21 -19 49t22 51t50 23t48.5 -22.5t20.5 -52t-23 -49.5t-51.5 -20t-47.5 21zM212 25l10 396q0 60 -19.5 177.5t-19.5 189t-24.5 174t-54.5 184.5
q-79 215 -79 367q0 15 17.5 25.5t36.5 10.5t40.5 -47t39.5 -120t33.5 -146t28.5 -141.5t19 -88.5q4 18 9.5 85.5t12.5 138.5q8 72 20 144q27 165 81.5 165t54.5 -22q0 -115 -49 -343t-49 -346l-6 -71v-31l11 -543l7 -102v-46q0 -27 -20.5 -43.5t-44.5 -16.5t-39.5 14.5
t-15.5 35.5z" />
    <glyph glyph-name="Zacute" unicode="&#x179;" horiz-adv-x="429" 
d="M34 0zM160 1714q0 11 28.5 37.5t129 112.5t121.5 105q12 4 27 4t36 -25.5t21 -49.5t-15 -34q-78 -57 -298 -173q-8 -4 -19 -4t-21 8t-10 19zM139 1543l193 21q24 0 40 -17.5t16 -41.5q0 -536 -227 -1420l108 8q108 0 108 -63v-9l-32 -32l-253 -8q-39 0 -58 50
q47 75 105.5 389.5t96 607.5t45.5 423q-70 -10 -117 -10q-111 0 -111 65v9l28 34v1q27 -7 58 -7z" />
    <glyph glyph-name="zacute" unicode="&#x17a;" horiz-adv-x="493" 
d="M41 0zM227 1507q0 11 28.5 37.5t129 112.5t121.5 105q12 4 27 4t36 -25.5t21 -49.5t-15 -34q-78 -57 -298 -173q-8 -4 -19 -4t-21 8t-10 19zM290 12l-121 6q-13 0 -36 -11t-40.5 -11t-34.5 13.5t-17 47.5q0 183 138 638t165 561l-167 -12q-22 0 -37.5 17.5t-15.5 39.5
q0 58 225 58q101 0 101 -57q0 -72 -44.5 -195.5t-52.5 -173.5q-26 -163 -107 -475t-89 -353h35l86 6v1q83 0 83 -50q0 -25 -22 -37.5t-49 -12.5z" />
    <glyph glyph-name="Zdotaccent" unicode="&#x17b;" horiz-adv-x="429" 
d="M34 0zM186.5 1709.5q-20.5 22.5 -20.5 52t23 53.5t53 24t52 -24t22 -55.5t-23 -52t-54.5 -20.5t-52 22.5zM139 1543l193 21q24 0 40 -17.5t16 -41.5q0 -536 -227 -1420l108 8q108 0 108 -63v-9l-32 -32l-253 -8q-39 0 -58 50q47 75 105.5 389.5t96 607.5t45.5 423
q-70 -10 -117 -10q-111 0 -111 65v9l28 34v1q27 -7 58 -7z" />
    <glyph glyph-name="zdotaccent" unicode="&#x17c;" horiz-adv-x="493" 
d="M41 0zM236.5 1502.5q-20.5 22.5 -20.5 52t23 53.5t53 24t52 -24t22 -55.5t-23 -52t-54.5 -20.5t-52 22.5zM290 12l-121 6q-13 0 -36 -11t-40.5 -11t-34.5 13.5t-17 47.5q0 183 138 638t165 561l-167 -12q-22 0 -37.5 17.5t-15.5 39.5q0 58 225 58q101 0 101 -57
q0 -72 -44.5 -195.5t-52.5 -173.5q-26 -163 -107 -475t-89 -353h35l86 6v1q83 0 83 -50q0 -25 -22 -37.5t-49 -12.5z" />
    <glyph glyph-name="Zcaron" unicode="&#x17d;" horiz-adv-x="429" 
d="M34 0zM387 2079l-15 -31v-37l-29 -112q-29 -112 -29 -146q0 -66 -52 -66q-40 0 -112.5 166t-72.5 223q0 16 15 27.5t34 11.5q43 0 101 -211l27 -94q4 22 9 69t10 84q6 37 14 76q18 83 57 83q18 0 30.5 -11.5t12.5 -31.5zM139 1543l193 21q24 0 40 -17.5t16 -41.5
q0 -536 -227 -1420l108 8q108 0 108 -63v-9l-32 -32l-253 -8q-39 0 -58 50q47 75 105.5 389.5t96 607.5t45.5 423q-70 -10 -117 -10q-111 0 -111 65v9l28 34v1q27 -7 58 -7z" />
    <glyph glyph-name="zcaron" unicode="&#x17e;" horiz-adv-x="493" 
d="M41 0zM433 1872l-15 -31v-37l-29 -112q-29 -112 -29 -146q0 -66 -52 -66q-40 0 -112.5 166t-72.5 223q0 16 15 27.5t34 11.5q43 0 101 -211l27 -94q4 22 9 69t10 84q6 37 14 76q18 83 57 83q18 0 30.5 -11.5t12.5 -31.5zM290 12l-121 6q-13 0 -36 -11t-40.5 -11
t-34.5 13.5t-17 47.5q0 183 138 638t165 561l-167 -12q-22 0 -37.5 17.5t-15.5 39.5q0 58 225 58q101 0 101 -57q0 -72 -44.5 -195.5t-52.5 -173.5q-26 -163 -107 -475t-89 -353h35l86 6v1q83 0 83 -50q0 -25 -22 -37.5t-49 -12.5z" />
    <glyph glyph-name="uni01C4" unicode="&#x1c4;" horiz-adv-x="1082" 
d="M36 0zM687 0zM1040 2079l-15 -31v-37l-29 -112q-29 -112 -29 -146q0 -66 -52 -66q-40 0 -112.5 166t-72.5 223q0 16 15 27.5t34 11.5q43 0 101 -211l27 -94q4 22 9 69t10 84q6 37 14 76q18 83 57 83q18 0 30.5 -11.5t12.5 -31.5zM792 1543l193 21q24 0 40 -17.5t16 -41.5
q0 -536 -227 -1420l108 8q108 0 108 -63v-9l-32 -32l-253 -8q-39 0 -58 50q47 75 105.5 389.5t96 607.5t45.5 423q-70 -10 -117 -10q-111 0 -111 65v9l28 34v1q27 -7 58 -7zM211 310v-196q77 50 134 139.5t87 195.5q56 203 56 405q0 232 -58 366q-59 138 -146 182
q-54 28 -122 27v-2q0 -185 24.5 -557t24.5 -560zM588 754l5 -43q1 -145 -77 -342q-88 -225 -208 -319q-68 -54 -140 -55q-38 0 -69 17.5t-31 52.5q45 47 45 241q0 114 -19 339t-19 337l6 224q0 54 -22.5 145.5t-22.5 129.5q0 71 157 71h31q209 0 303 -234q66 -163 66 -450
v-95q-5 -9 -5 -19z" />
    <glyph glyph-name="uni01C5" unicode="&#x1c5;" horiz-adv-x="1146" 
d="M36 0zM694 0zM1086 1872l-15 -31v-37l-29 -112q-29 -112 -29 -146q0 -66 -52 -66q-40 0 -112.5 166t-72.5 223q0 16 15 27.5t34 11.5q43 0 101 -211l27 -94q4 22 9 69t10 84q6 37 14 76q18 83 57 83q18 0 30.5 -11.5t12.5 -31.5zM943 12l-121 6q-13 0 -36 -11t-40.5 -11
t-34.5 13.5t-17 47.5q0 183 138 638t165 561l-167 -12q-22 0 -37.5 17.5t-15.5 39.5q0 58 225 58q101 0 101 -57q0 -72 -44.5 -195.5t-52.5 -173.5q-26 -163 -107 -475t-89 -353h35l86 6v1q83 0 83 -50q0 -25 -22 -37.5t-49 -12.5zM211 310v-196q77 50 134 139.5t87 195.5
q56 203 56 405q0 232 -58 366q-59 138 -146 182q-54 28 -122 27v-2q0 -185 24.5 -557t24.5 -560zM588 754l5 -43q1 -145 -77 -342q-88 -225 -208 -319q-68 -54 -140 -55q-38 0 -69 17.5t-31 52.5q45 47 45 241q0 114 -19 339t-19 337l6 224q0 54 -22.5 145.5t-22.5 129.5
q0 71 157 71h31q209 0 303 -234q66 -163 66 -450v-95q-5 -9 -5 -19z" />
    <glyph glyph-name="uni01C6" unicode="&#x1c6;" horiz-adv-x="1103" 
d="M55 0zM651 0zM1043 1872l-15 -31v-37l-29 -112q-29 -112 -29 -146q0 -66 -52 -66q-40 0 -112.5 166t-72.5 223q0 16 15 27.5t34 11.5q43 0 101 -211l27 -94q4 22 9 69t10 84q6 37 14 76q18 83 57 83q18 0 30.5 -11.5t12.5 -31.5zM900 12l-121 6q-13 0 -36 -11t-40.5 -11
t-34.5 13.5t-17 47.5q0 183 138 638t165 561l-167 -12q-22 0 -37.5 17.5t-15.5 39.5q0 58 225 58q101 0 101 -57q0 -72 -44.5 -195.5t-52.5 -173.5q-26 -163 -107 -475t-89 -353h35l86 6v1q83 0 83 -50q0 -25 -22 -37.5t-49 -12.5zM73 256l6 645q0 66 -12 201.5t-12 172.5
t23 57.5t49 20.5q211 0 343 -247q76 -141 76 -298l-4 -103v-113q0 -206 -18.5 -275t-38.5 -115t-48 -82q-65 -82 -164 -132h-148q-52 0 -52 268zM216 141v-49q178 0 214 360q8 83 8 160q0 618 -238 646q-15 -81 -15 -222.5t15.5 -442.5t15.5 -452z" />
    <glyph glyph-name="uni01c7" unicode="&#x1c7;" horiz-adv-x="849" 
d="M58 0zM647 241l1 284q0 594 -54 920q-7 -1 -27 -6q-40 -10 -61.5 -10t-37 15.5t-15.5 36.5q0 72 245 72h26q92 0 92 -54.5t-85 -54.5l-6 1h-28v-16q0 -53 12 -158.5t12 -198.5t18.5 -358.5t18.5 -398.5l-1 -163q0 -121 -50.5 -216.5t-147.5 -129.5q-32 0 -53 16t-21 44
t25.5 51t54.5 35q28 36 55 116t27 173zM191 775l2 -65v-9q8 -178 8 -534v-52h156q44 -30 44 -57t-15 -44.5t-31 -17.5t-37 7q-17 -4 -39 -4l-66 3q-21 -25 -52.5 -25t-53 19.5t-21.5 45.5l13 90q0 233 -20.5 698.5t-20.5 698.5q0 19 15 30.5t37.5 11.5t41 -17t18.5 -42z" />
    <glyph glyph-name="uni01c8" unicode="&#x1c8;" horiz-adv-x="950" 
d="M58 0zM761 1245l21 -863v-218q0 -102 -16.5 -147.5t-31 -75.5t-38.5 -53t-54 -42q-63 -39 -171 -39q-24 0 -24 25l2 34q0 12 29 22q106 37 133 66q59 64 59 233l-23 1046v9q-78 0 -111.5 13.5t-39.5 20.5t-6 21.5t23 28t74.5 13.5t193 -12.5t141.5 -34t-16.5 -34.5
t-39.5 -13h-105zM191 775l2 -65v-9q8 -178 8 -534v-52h156q44 -30 44 -57t-15 -44.5t-31 -17.5t-37 7q-17 -4 -39 -4l-66 3q-21 -25 -52.5 -25t-53 19.5t-21.5 45.5l13 90q0 233 -20.5 698.5t-20.5 698.5q0 19 15 30.5t37.5 11.5t41 -17t18.5 -42z" />
    <glyph glyph-name="uni01C9" unicode="&#x1c9;" horiz-adv-x="987" 
d="M67 0zM798 1245l21 -863v-218q0 -102 -16.5 -147.5t-31 -75.5t-38.5 -53t-54 -42q-63 -39 -171 -39q-24 0 -24 25l2 34q0 12 29 22q106 37 133 66q59 64 59 233l-23 1046v9q-78 0 -111.5 13.5t-39.5 20.5t-6 21.5t23 28t74.5 13.5t193 -12.5t141.5 -34t-16.5 -34.5
t-39.5 -13h-105zM190 1148l6 -492q-12 -28 -12 -70v-41l-8 -326q0 -141 69 -141l85 3q110 0 110 -60q0 -22 -19 -36.5t-43 -17.5q-75 24 -183 24q-33 -19 -63.5 -19t-47.5 21t-17 46q0 152 13 457.5t13 457.5v15q-12 128 -12 192q0 194 71 194q21 0 36.5 -15t15.5 -36z" />
    <glyph glyph-name="uni01ca" unicode="&#x1ca;" horiz-adv-x="1156" 
d="M67 0zM954 241l1 284q0 594 -54 920q-7 -1 -27 -6q-40 -10 -61.5 -10t-37 15.5t-15.5 36.5q0 72 245 72h26q92 0 92 -54.5t-85 -54.5l-6 1h-28v-16q0 -53 12 -158.5t12 -198.5t18.5 -358.5t18.5 -398.5l-1 -163q0 -121 -50.5 -216.5t-147.5 -129.5q-32 0 -53 16t-21 44
t25.5 51t54.5 35q28 36 55 116t27 173zM67 1073l14 376v13q0 102 45 102q41 0 110 -190q126 -345 302 -1139l2 -10l8 714v606q12 51 67 51t55 -80v-12q-12 -25 -12 -60l-13 -757v-626q0 -31 -17 -61t-42 -30q-43 0 -168 421.5t-247 906.5v-672q0 -98 14.5 -292t14.5 -292
q0 -19 -23 -31.5t-58.5 -12.5t-35.5 32l10 147q0 106 -13 344t-13 291v261z" />
    <glyph glyph-name="uni01cb" unicode="&#x1cb;" horiz-adv-x="1257" 
d="M67 0zM1068 1245l21 -863v-218q0 -102 -16.5 -147.5t-31 -75.5t-38.5 -53t-54 -42q-63 -39 -171 -39q-24 0 -24 25l2 34q0 12 29 22q106 37 133 66q59 64 59 233l-23 1046v9q-78 0 -111.5 13.5t-39.5 20.5t-6 21.5t23 28t74.5 13.5t193 -12.5t141.5 -34t-16.5 -34.5
t-39.5 -13h-105zM67 1073l14 376v13q0 102 45 102q41 0 110 -190q126 -345 302 -1139l2 -10l8 714v606q12 51 67 51t55 -80v-12q-12 -25 -12 -60l-13 -757v-626q0 -31 -17 -61t-42 -30q-43 0 -168 421.5t-247 906.5v-672q0 -98 14.5 -292t14.5 -292q0 -19 -23 -31.5
t-58.5 -12.5t-35.5 32l10 147q0 106 -13 344t-13 291v261z" />
    <glyph glyph-name="uni01CC" unicode="&#x1cc;" horiz-adv-x="1347" 
d="M64 0zM1158 1245l21 -863v-218q0 -102 -16.5 -147.5t-31 -75.5t-38.5 -53t-54 -42q-63 -39 -171 -39q-24 0 -24 25l2 34q0 12 29 22q106 37 133 66q59 64 59 233l-23 1046v9q-78 0 -111.5 13.5t-39.5 20.5t-6 21.5t23 28t74.5 13.5t193 -12.5t141.5 -34t-16.5 -34.5
t-39.5 -13h-105zM64 829l12 382q0 95 75 151v-13q8 5 15 5q48 0 120 -165.5t130 -363.5t115.5 -399.5t71.5 -236.5q41 429 41 1039l-3 55q0 61 51 61q29 0 43.5 -24t14.5 -56v-155q-2 -241 -21.5 -643.5t-52.5 -454.5q-56 -17 -77.5 -17t-33 14.5t-18.5 44.5t-12 40l1 9
q0 76 -147 483t-213 560v-1031q2 -4 8 -14q13 -22 13 -41t-18.5 -38t-43.5 -19q-67 0 -67 125z" />
    <glyph glyph-name="uni01F1" unicode="&#x1f1;" horiz-adv-x="1082" 
d="M36 0zM792 1543l193 21q24 0 40 -17.5t16 -41.5q0 -536 -227 -1420l108 8q108 0 108 -63v-9l-32 -32l-253 -8q-39 0 -58 50q47 75 105.5 389.5t96 607.5t45.5 423q-70 -10 -117 -10q-111 0 -111 65v9l28 34v1q27 -7 58 -7zM211 310v-196q77 50 134 139.5t87 195.5
q56 203 56 405q0 232 -58 366q-59 138 -146 182q-54 28 -122 27v-2q0 -185 24.5 -557t24.5 -560zM588 754l5 -43q1 -145 -77 -342q-88 -225 -208 -319q-68 -54 -140 -55q-38 0 -69 17.5t-31 52.5q45 47 45 241q0 114 -19 339t-19 337l6 224q0 54 -22.5 145.5t-22.5 129.5
q0 71 157 71h31q209 0 303 -234q66 -163 66 -450v-95q-5 -9 -5 -19z" />
    <glyph glyph-name="uni01F2" unicode="&#x1f2;" horiz-adv-x="1146" 
d="M36 0zM943 12l-121 6q-13 0 -36 -11t-40.5 -11t-34.5 13.5t-17 47.5q0 183 138 638t165 561l-167 -12q-22 0 -37.5 17.5t-15.5 39.5q0 58 225 58q101 0 101 -57q0 -72 -44.5 -195.5t-52.5 -173.5q-26 -163 -107 -475t-89 -353h35l86 6v1q83 0 83 -50q0 -25 -22 -37.5
t-49 -12.5zM211 310v-196q77 50 134 139.5t87 195.5q56 203 56 405q0 232 -58 366q-59 138 -146 182q-54 28 -122 27v-2q0 -185 24.5 -557t24.5 -560zM588 754l5 -43q1 -145 -77 -342q-88 -225 -208 -319q-68 -54 -140 -55q-38 0 -69 17.5t-31 52.5q45 47 45 241
q0 114 -19 339t-19 337l6 224q0 54 -22.5 145.5t-22.5 129.5q0 71 157 71h31q209 0 303 -234q66 -163 66 -450v-95q-5 -9 -5 -19z" />
    <glyph glyph-name="uni01F3" unicode="&#x1f3;" horiz-adv-x="1103" 
d="M55 0zM900 12l-121 6q-13 0 -36 -11t-40.5 -11t-34.5 13.5t-17 47.5q0 183 138 638t165 561l-167 -12q-22 0 -37.5 17.5t-15.5 39.5q0 58 225 58q101 0 101 -57q0 -72 -44.5 -195.5t-52.5 -173.5q-26 -163 -107 -475t-89 -353h35l86 6v1q83 0 83 -50q0 -25 -22 -37.5
t-49 -12.5zM73 256l6 645q0 66 -12 201.5t-12 172.5t23 57.5t49 20.5q211 0 343 -247q76 -141 76 -298l-4 -103v-113q0 -206 -18.5 -275t-38.5 -115t-48 -82q-65 -82 -164 -132h-148q-52 0 -52 268zM216 141v-49q178 0 214 360q8 83 8 160q0 618 -238 646
q-15 -81 -15 -222.5t15.5 -442.5t15.5 -452z" />
    <glyph glyph-name="uni01F4" unicode="&#x1f4;" horiz-adv-x="727" 
d="M51 0zM282 1720q0 11 28.5 37.5t129 112.5t121.5 105q12 4 27 4t36 -25.5t21 -49.5t-15 -34q-78 -57 -298 -173q-8 -4 -19 -4t-21 8t-10 19zM525 371l-80 -8q-70 0 -70 58q0 50 132 65q26 3 57 3t53 -32t22 -85.5t20.5 -174.5t20.5 -163q0 -75 -50.5 -75t-67.5 43v2
q-12 -5 -45 -23q-62 -34 -123 -34q-44 0 -88 18q-94 37 -144 125q-54 93 -71 178t-23 134q-7 50 -11 114q-5 81 -5 195l-1 151q0 198 13 284t26.5 141t31.5 97.5t44 82.5q26 41 60 67q73 58 167 57.5t94 -58.5q0 -22 -16 -35t-38 -13l-59 10q-77 -1 -121 -93
q-47 -101 -60 -192t-19 -147q-8 -55 -10 -125q-4 -97 -3 -194l-1 -127q0 -196 17.5 -279t36.5 -132q18 -50 44 -82q85 -65 149 -73q91 0 151 86q-3 182 -33 234z" />
    <glyph glyph-name="uni01F5" unicode="&#x1f5;" horiz-adv-x="638" 
d="M46 0zM245 1507q0 11 28.5 37.5t129 112.5t121.5 105q12 4 27 4t36 -25.5t21 -49.5t-15 -34q-78 -57 -298 -173q-8 -4 -19 -4t-21 8t-10 19zM563 411l10 -217q0 -101 -70.5 -155.5t-164.5 -54.5q-142 0 -206 106q-46 75 -58 141.5t-17 102.5t-7 97q-4 85 -4 137v88
q0 289 17 365.5t39 142.5t54 102q77 88 178 88t101 -52q0 -24 -20 -39.5t-45 -15.5l-43 5q-71 0 -107 -140q-52 -200 -52 -483q0 -193 12.5 -265.5t27.5 -121.5q14 -50 34 -80q47 -71 121 -71q99 0 99 326v94q-15 8 -48 8l-40 -1q-71 0 -71 47q0 29 20.5 44t49.5 15v-1h28
q184 0 184 -63z" />
    <glyph glyph-name="uni0200" unicode="&#x200;" horiz-adv-x="656" 
d="M0 1zM269 1703q-310 290 -315 296l-19 34q6 21 22.5 36.5t35.5 15.5t91.5 -80t138.5 -168.5t66 -111t-20 -22.5zM253 2026q0 11 17 20t36.5 9t118.5 -154t102 -193l-13 -21q-109 103 -185 203.5t-76 135.5zM527 1q-63 0 -63 53v267q-29 20 -104.5 34t-134.5 18
q-21 -36 -34.5 -104t-28 -137t-38.5 -109q-80 0 -90 41q28 40 91 409t103.5 577.5t87.5 350.5t90 142t66 -18q0 -73 40 -395t40 -416.5t21.5 -314t21.5 -329.5q0 -69 -68 -69zM408.5 1015.5q-14.5 164.5 -14.5 199t1 39.5q-32 -33 -92.5 -367t-64.5 -423q85 -23 142.5 -23
t81.5 6q-3 41 -21 222.5t-32.5 346z" />
    <glyph glyph-name="uni0201" unicode="&#x201;" 
d="M0 0zM273 1496q-310 290 -315 296l-19 34q6 21 22.5 36.5t35.5 15.5t91.5 -80t138.5 -168.5t66 -111t-20 -22.5zM257 1819q0 11 17 20t36.5 9t118.5 -154t102 -193l-13 -21q-109 103 -185 203.5t-76 135.5zM411 375q-6 30 -6 104.5t-8.5 185t-24.5 257t-22 212.5
q-93 -515 -120 -726q35 -23 181 -33zM518 416l22 -126q0 -25 19.5 -122t19.5 -127v-2q0 -45 -34 -58q-43 0 -67 14t-24 54q0 87 -30 253l-202 30q-19 -68 -29 -149t-19 -118q-18 -76 -67 -76q-24 0 -44.5 15.5t-20.5 39.5l5 18q138 533 205 1038q2 14 6 82q10 150 38 191h69
q28 0 49 -13t21 -39q0 -156 41.5 -463t41.5 -442z" />
    <glyph glyph-name="uni0202" unicode="&#x202;" horiz-adv-x="656" 
d="M34 1zM588 1798l-5 -17q9 -31 9 -42.5t-16.5 -27t-44.5 -15.5q-51 0 -51 77q0 22 -14.5 58t-32.5 36h-43q-32 -23 -49 -105q-16 -75 -60 -75l-38 32q-1 93 27 146q50 97 136 97t127 -55q19 -25 55 -109zM527 1q-63 0 -63 53v267q-29 20 -104.5 34t-134.5 18
q-21 -36 -34.5 -104t-28 -137t-38.5 -109q-80 0 -90 41q28 40 91 409t103.5 577.5t87.5 350.5t90 142t66 -18q0 -73 40 -395t40 -416.5t21.5 -314t21.5 -329.5q0 -69 -68 -69zM408.5 1015.5q-14.5 164.5 -14.5 199t1 39.5q-32 -33 -92.5 -367t-64.5 -423q85 -23 142.5 -23
t81.5 6q-3 41 -21 222.5t-32.5 346z" />
    <glyph glyph-name="uni0203" unicode="&#x203;" 
d="M42 0zM541 1591l-5 -17q9 -31 9 -42.5t-16.5 -27t-44.5 -15.5q-51 0 -51 77q0 22 -14.5 58t-32.5 36h-43q-32 -23 -49 -105q-16 -75 -60 -75l-38 32q-1 93 27 146q50 97 136 97t127 -55q19 -25 55 -109zM411 375q-6 30 -6 104.5t-8.5 185t-24.5 257t-22 212.5
q-93 -515 -120 -726q35 -23 181 -33zM518 416l22 -126q0 -25 19.5 -122t19.5 -127v-2q0 -45 -34 -58q-43 0 -67 14t-24 54q0 87 -30 253l-202 30q-19 -68 -29 -149t-19 -118q-18 -76 -67 -76q-24 0 -44.5 15.5t-20.5 39.5l5 18q138 533 205 1038q2 14 6 82q10 150 38 191h69
q28 0 49 -13t21 -39q0 -156 41.5 -463t41.5 -442z" />
    <glyph glyph-name="uni0204" unicode="&#x204;" horiz-adv-x="457" 
d="M0 0zM215 1703q-310 290 -315 296l-19 34q6 21 22.5 36.5t35.5 15.5t91.5 -80t138.5 -168.5t66 -111t-20 -22.5zM199 2026q0 11 17 20t36.5 9t118.5 -154t102 -193l-13 -21q-109 103 -185 203.5t-76 135.5zM293 750l-51 2q-30 0 -42 -15v-632q105 6 114 6q117 0 117 -54
v-7q-14 -28 -48 -43t-60 -17t-67 -2h-64q-76 0 -94 30q-8 14 -8 37v1190q0 35 -14 104t-14 105v7q34 56 51 72l152 18q31 0 62.5 -18.5t31.5 -48.5q0 -61 -93 -61l-59 2q-15 0 -22 -1l16 -338q0 -41 -5 -119.5t-5 -114.5q11 2 30 7q42 11 65.5 11t42 -17t18.5 -41t-15 -43
t-39 -19z" />
    <glyph glyph-name="uni0205" unicode="&#x205;" horiz-adv-x="455" 
d="M0 0zM238 1496q-310 290 -315 296l-19 34q6 21 22.5 36.5t35.5 15.5t91.5 -80t138.5 -168.5t66 -111t-20 -22.5zM222 1819q0 11 17 20t36.5 9t118.5 -154t102 -193l-13 -21q-109 103 -185 203.5t-76 135.5zM86 1034l-11 173q0 145 86 145q55 0 150 -25.5t95 -65.5
q0 -42 -60 -64q-95 32 -155 39q3 -44 3 -88l-9 -294q0 -2 6 -32l73 3q99 0 99 -56q0 -22 -18 -38.5t-45.5 -16.5t-59.5 4h-52q6 -78 6 -155l-9 -371q0 -115 4 -115l151 5q78 0 78 -50q0 -31 -27 -45t-61 -14h-173q-27 0 -49 18.5t-23 44.5v54l-13 346z" />
    <glyph glyph-name="uni0206" unicode="&#x206;" horiz-adv-x="457" 
d="M5 0zM350 1798l-5 -17q9 -31 9 -42.5t-16.5 -27t-44.5 -15.5q-51 0 -51 77q0 22 -14.5 58t-32.5 36h-43q-32 -23 -49 -105q-16 -75 -60 -75l-38 32q-1 93 27 146q50 97 136 97t127 -55q19 -25 55 -109zM293 750l-51 2q-30 0 -42 -15v-632q105 6 114 6q117 0 117 -54v-7
q-14 -28 -48 -43t-60 -17t-67 -2h-64q-76 0 -94 30q-8 14 -8 37v1190q0 35 -14 104t-14 105v7q34 56 51 72l152 18q31 0 62.5 -18.5t31.5 -48.5q0 -61 -93 -61l-59 2q-15 0 -22 -1l16 -338q0 -41 -5 -119.5t-5 -114.5q11 2 30 7q42 11 65.5 11t42 -17t18.5 -41t-15 -43
t-39 -19z" />
    <glyph glyph-name="uni0207" unicode="&#x207;" horiz-adv-x="455" 
d="M29 0zM374 1591l-5 -17q9 -31 9 -42.5t-16.5 -27t-44.5 -15.5q-51 0 -51 77q0 22 -14.5 58t-32.5 36h-43q-32 -23 -49 -105q-16 -75 -60 -75l-38 32q-1 93 27 146q50 97 136 97t127 -55q19 -25 55 -109zM86 1034l-11 173q0 145 86 145q55 0 150 -25.5t95 -65.5
q0 -42 -60 -64q-95 32 -155 39q3 -44 3 -88l-9 -294q0 -2 6 -32l73 3q99 0 99 -56q0 -22 -18 -38.5t-45.5 -16.5t-59.5 4h-52q6 -78 6 -155l-9 -371q0 -115 4 -115l151 5q78 0 78 -50q0 -31 -27 -45t-61 -14h-173q-27 0 -49 18.5t-23 44.5v54l-13 346z" />
    <glyph glyph-name="uni0208" unicode="&#x208;" horiz-adv-x="432" 
d="M0 3zM178 1703q-310 290 -315 296l-19 34q6 21 22.5 36.5t35.5 15.5t91.5 -80t138.5 -168.5t66 -111t-20 -22.5zM162 2026q0 11 17 20t36.5 9t118.5 -154t102 -193l-13 -21q-109 103 -185 203.5t-76 135.5zM301 1442l-36 1q-20 0 -29.5 -8.5t-9.5 -33.5q0 -200 25 -599
t25 -599v-79q21 3 42 3q85 0 85 -72v-12l-51 -35l-139 -5q-177 0 -177 61q0 49 62 49l43 -3q30 0 30 48q0 158 -19 473.5t-19 473.5l4 209q0 66 -5 114q-27 -9 -48 -9q-48 0 -48 49q0 25 31 43.5t77 26.5q86 15 127.5 15t59.5 -16.5t18 -39t-13.5 -39t-34.5 -16.5z" />
    <glyph glyph-name="uni0209" unicode="&#x209;" horiz-adv-x="499" 
d="M0 0zM236 1496q-310 290 -315 296l-19 34q6 21 22.5 36.5t35.5 15.5t91.5 -80t138.5 -168.5t66 -111t-20 -22.5zM220 1819q0 11 17 20t36.5 9t118.5 -154t102 -193l-13 -21q-109 103 -185 203.5t-76 135.5zM286 681l15 -435l-3 -62l-2 1q0 -39 10 -54l16 -3l59 2
q84 0 84 -51q0 -26 -20.5 -44.5t-47.5 -18.5l-68 7q-5 0 -31 -11.5t-57.5 -11.5t-52.5 20q-16 -2 -25 -2q-57 0 -76 37q0 40 32 55l7 8h58l4 27l-14 435l11 456q0 115 -10 218l-39 2q-8 1 -24 -0.5t-34.5 -1.5t-35.5 11.5t-17 43.5q0 47 101 47h17q263 0 263 -83
q0 -11 -12 -38l-70 -5l-35 12q8 -75 8 -170z" />
    <glyph glyph-name="uni020A" unicode="&#x20a;" horiz-adv-x="432" 
d="M0 3zM318 1798l-5 -17q9 -31 9 -42.5t-16.5 -27t-44.5 -15.5q-51 0 -51 77q0 22 -14.5 58t-32.5 36h-43q-32 -23 -49 -105q-16 -75 -60 -75l-38 32q-1 93 27 146q50 97 136 97t127 -55q19 -25 55 -109zM301 1442l-36 1q-20 0 -29.5 -8.5t-9.5 -33.5q0 -200 25 -599
t25 -599v-79q21 3 42 3q85 0 85 -72v-12l-51 -35l-139 -5q-177 0 -177 61q0 49 62 49l43 -3q30 0 30 48q0 158 -19 473.5t-19 473.5l4 209q0 66 -5 114q-27 -9 -48 -9q-48 0 -48 49q0 25 31 43.5t77 26.5q86 15 127.5 15t59.5 -16.5t18 -39t-13.5 -39t-34.5 -16.5z" />
    <glyph glyph-name="uni020B" unicode="&#x20b;" horiz-adv-x="499" 
d="M25 0zM376 1591l-5 -17q9 -31 9 -42.5t-16.5 -27t-44.5 -15.5q-51 0 -51 77q0 22 -14.5 58t-32.5 36h-43q-32 -23 -49 -105q-16 -75 -60 -75l-38 32q-1 93 27 146q50 97 136 97t127 -55q19 -25 55 -109zM286 681l15 -435l-3 -62l-2 1q0 -39 10 -54l16 -3l59 2
q84 0 84 -51q0 -26 -20.5 -44.5t-47.5 -18.5l-68 7q-5 0 -31 -11.5t-57.5 -11.5t-52.5 20q-16 -2 -25 -2q-57 0 -76 37q0 40 32 55l7 8h58l4 27l-14 435l11 456q0 115 -10 218l-39 2q-8 1 -24 -0.5t-34.5 -1.5t-35.5 11.5t-17 43.5q0 47 101 47h17q263 0 263 -83
q0 -11 -12 -38l-70 -5l-35 12q8 -75 8 -170z" />
    <glyph glyph-name="uni020C" unicode="&#x20c;" horiz-adv-x="650" 
d="M0 0zM304 1703q-310 290 -315 296l-19 34q6 21 22.5 36.5t35.5 15.5t91.5 -80t138.5 -168.5t66 -111t-20 -22.5zM288 2026q0 11 17 20t36.5 9t118.5 -154t102 -193l-13 -21q-109 103 -185 203.5t-76 135.5zM582 618l-18 -259v-9q-13 -57 -13 -123t-23 -127.5t-70 -109
t-103 -47.5t-102 38t-76 97.5t-53 142t-35.5 161t-20.5 165.5q-12 133 -11.5 206.5t-0.5 126t-2 94.5v46.5v54.5q1 59 3.5 106t9 101.5t16.5 96t27 81.5q18 41 40 67q50 58 115 58t111 -23.5t77.5 -75.5t55 -101t37 -136.5t21.5 -141.5q8 -55 11 -157q4 -137 4 -214v-118z
M349.5 1448.5q-30.5 28.5 -60.5 28.5t-49.5 -21t-33 -59.5t-24 -82.5t-16 -101.5t-9.5 -104.5q-3 -46 -5 -102q-2 -93 -3 -145v-9q0 -137 21 -295.5t43.5 -259.5t60.5 -171.5t85 -70.5q41 0 69 77q28 78 40 192q20 204 20.5 286.5t0 120.5t-3 110.5t-8.5 136t-15.5 140.5
t-25 137t-36 112.5t-51 81z" />
    <glyph glyph-name="uni020D" unicode="&#x20d;" horiz-adv-x="651" 
d="M0 0zM313 1496q-310 290 -315 296l-19 34q6 21 22.5 36.5t35.5 15.5t91.5 -80t138.5 -168.5t66 -111t-20 -22.5zM297 1819q0 11 17 20t36.5 9t118.5 -154t102 -193l-13 -21q-109 103 -185 203.5t-76 135.5zM51 626l2 78q0 10 -3 10v37q0 322 37 458q31 115 60 142t57 27
q238 0 328 -240q52 -138 52 -340v-15l4 -232q0 -589 -273 -589q-113 0 -173 125q-57 120 -70 236q-21 175 -21 303zM172 906l-10 -189q0 -297 48 -518q51 -129 97 -152q37 0 67 30t47.5 80.5t29.5 106.5q11 55 17 118q10 109 10 186t-13.5 236t-13.5 237v36q-2 75 -49 133.5
t-120 58.5q-70 0 -93 -79q-19 -66 -19 -163z" />
    <glyph glyph-name="uni020E" unicode="&#x20e;" horiz-adv-x="650" 
d="M54 0zM440 1798l-5 -17q9 -31 9 -42.5t-16.5 -27t-44.5 -15.5q-51 0 -51 77q0 22 -14.5 58t-32.5 36h-43q-32 -23 -49 -105q-16 -75 -60 -75l-38 32q-1 93 27 146q50 97 136 97t127 -55q19 -25 55 -109zM582 618l-18 -259v-9q-13 -57 -13 -123t-23 -127.5t-70 -109
t-103 -47.5t-102 38t-76 97.5t-53 142t-35.5 161t-20.5 165.5q-12 133 -11.5 206.5t-0.5 126t-2 94.5v46.5v54.5q1 59 3.5 106t9 101.5t16.5 96t27 81.5q18 41 40 67q50 58 115 58t111 -23.5t77.5 -75.5t55 -101t37 -136.5t21.5 -141.5q8 -55 11 -157q4 -137 4 -214v-118z
M349.5 1448.5q-30.5 28.5 -60.5 28.5t-49.5 -21t-33 -59.5t-24 -82.5t-16 -101.5t-9.5 -104.5q-3 -46 -5 -102q-2 -93 -3 -145v-9q0 -137 21 -295.5t43.5 -259.5t60.5 -171.5t85 -70.5q41 0 69 77q28 78 40 192q20 204 20.5 286.5t0 120.5t-3 110.5t-8.5 136t-15.5 140.5
t-25 137t-36 112.5t-51 81z" />
    <glyph glyph-name="uni020F" unicode="&#x20f;" horiz-adv-x="651" 
d="M50 0zM448 1591l-5 -17q9 -31 9 -42.5t-16.5 -27t-44.5 -15.5q-51 0 -51 77q0 22 -14.5 58t-32.5 36h-43q-32 -23 -49 -105q-16 -75 -60 -75l-38 32q-1 93 27 146q50 97 136 97t127 -55q19 -25 55 -109zM51 626l2 78q0 10 -3 10v37q0 322 37 458q31 115 60 142t57 27
q238 0 328 -240q52 -138 52 -340v-15l4 -232q0 -589 -273 -589q-113 0 -173 125q-57 120 -70 236q-21 175 -21 303zM172 906l-10 -189q0 -297 48 -518q51 -129 97 -152q37 0 67 30t47.5 80.5t29.5 106.5q11 55 17 118q10 109 10 186t-13.5 236t-13.5 237v36q-2 75 -49 133.5
t-120 58.5q-70 0 -93 -79q-19 -66 -19 -163z" />
    <glyph glyph-name="uni0210" unicode="&#x210;" horiz-adv-x="548" 
d="M0 0zM250 1703q-310 290 -315 296l-19 34q6 21 22.5 36.5t35.5 15.5t91.5 -80t138.5 -168.5t66 -111t-20 -22.5zM234 2026q0 11 17 20t36.5 9t118.5 -154t102 -193l-13 -21q-109 103 -185 203.5t-76 135.5zM78 60l8 1201v252q0 24 10 34t52.5 10t86 -20.5t73.5 -54.5
q29 -36 50 -80q40 -85 40 -185t-50 -229q-6 -14 -24 -59t-21 -53q1 -152 77 -395q26 -82 74 -224.5t60 -180.5v-5q0 -69 -16 -80.5t-34 -11.5q-38 0 -74 55v7q-10 186 -128 563q-54 172 -75 255v-807q0 -31 -11 -48t-40 -17t-43.5 16.5t-14.5 40.5v16zM191 1463l-11 -418
q0 -63 2 -94q35 33 69 79l32 177q3 14 3 32q0 49 -20 119q-28 96 -75 105z" />
    <glyph glyph-name="uni0211" unicode="&#x211;" horiz-adv-x="504" 
d="M0 0zM246 1496q-310 290 -315 296l-19 34q6 21 22.5 36.5t35.5 15.5t91.5 -80t138.5 -168.5t66 -111t-20 -22.5zM230 1819q0 11 17 20t36.5 9t118.5 -154t102 -193l-13 -21q-109 103 -185 203.5t-76 135.5zM174 1289l-7 -29q0 -84 4 -242.5t4 -230.5q48 25 77.5 130.5
t29.5 161.5t-3 82.5t-13 58.5q-20 66 -92 69zM166 686l-2 -222q0 -271 39 -427l-23 -55h-57l-27 30q2 92 2 206.5t-17.5 489.5t-17.5 560q0 97 68 97q107 0 180 -56t73 -160v-144q0 -59 -22 -107.5t-51 -102t-32 -59.5q11 -50 39 -196q60 -319 133 -459q21 -40 21 -62.5
t-12.5 -38t-33.5 -15.5q-43 0 -82.5 98.5t-63.5 218.5q-73 367 -89 404h-25z" />
    <glyph glyph-name="uni0212" unicode="&#x212;" horiz-adv-x="548" 
d="M41 0zM386 1798l-5 -17q9 -31 9 -42.5t-16.5 -27t-44.5 -15.5q-51 0 -51 77q0 22 -14.5 58t-32.5 36h-43q-32 -23 -49 -105q-16 -75 -60 -75l-38 32q-1 93 27 146q50 97 136 97t127 -55q19 -25 55 -109zM78 60l8 1201v252q0 24 10 34t52.5 10t86 -20.5t73.5 -54.5
q29 -36 50 -80q40 -85 40 -185t-50 -229q-6 -14 -24 -59t-21 -53q1 -152 77 -395q26 -82 74 -224.5t60 -180.5v-5q0 -69 -16 -80.5t-34 -11.5q-38 0 -74 55v7q-10 186 -128 563q-54 172 -75 255v-807q0 -31 -11 -48t-40 -17t-43.5 16.5t-14.5 40.5v16zM191 1463l-11 -418
q0 -63 2 -94q35 33 69 79l32 177q3 14 3 32q0 49 -20 119q-28 96 -75 105z" />
    <glyph glyph-name="uni0213" unicode="&#x213;" horiz-adv-x="504" 
d="M36 0zM381 1591l-5 -17q9 -31 9 -42.5t-16.5 -27t-44.5 -15.5q-51 0 -51 77q0 22 -14.5 58t-32.5 36h-43q-32 -23 -49 -105q-16 -75 -60 -75l-38 32q-1 93 27 146q50 97 136 97t127 -55q19 -25 55 -109zM174 1289l-7 -29q0 -84 4 -242.5t4 -230.5q48 25 77.5 130.5
t29.5 161.5t-3 82.5t-13 58.5q-20 66 -92 69zM166 686l-2 -222q0 -271 39 -427l-23 -55h-57l-27 30q2 92 2 206.5t-17.5 489.5t-17.5 560q0 97 68 97q107 0 180 -56t73 -160v-144q0 -59 -22 -107.5t-51 -102t-32 -59.5q11 -50 39 -196q60 -319 133 -459q21 -40 21 -62.5
t-12.5 -38t-33.5 -15.5q-43 0 -82.5 98.5t-63.5 218.5q-73 367 -89 404h-25z" />
    <glyph glyph-name="uni0214" unicode="&#x214;" horiz-adv-x="699" 
d="M9 0zM343 1703q-310 290 -315 296l-19 34q6 21 22.5 36.5t35.5 15.5t91.5 -80t138.5 -168.5t66 -111t-20 -22.5zM327 2026q0 11 17 20t36.5 9t118.5 -154t102 -193l-13 -21q-109 103 -185 203.5t-76 135.5zM52 1115l2 320q-15 17 -15 42t17.5 44t41.5 19q74 0 74 -146
l19 -712q12 -27 20.5 -109t8.5 -127.5t14.5 -112t40 -134.5t69 -116t82.5 -48t58 18.5t26 52.5q11 54 11 113v400q0 65 -13 193t-13 193v14l-4 119l-15 351q0 25 25 40.5t52 15.5l50 -48v-34l-15 -125q0 -171 18.5 -515t18.5 -465.5t-3.5 -162t-15.5 -86.5t-33 -76
q-49 -70 -150 -70q-125 -1 -201 109q-80 116 -112 278q-38 191 -46 335q-12 217 -12 430z" />
    <glyph glyph-name="uni0215" unicode="&#x215;" horiz-adv-x="641" 
d="M0 0zM328 1507q-310 290 -315 296l-19 34q6 21 22.5 36.5t35.5 15.5t91.5 -80t138.5 -168.5t66 -111t-20 -22.5zM312 1830q0 11 17 20t36.5 9t118.5 -154t102 -193l-13 -21q-109 103 -185 203.5t-76 135.5zM560 913l2 -35q0 -909 -264 -909q-102 -1 -151 83
q-51 86 -62 171q-17 131 -19.5 300.5t-2.5 489.5l-9 293q19 43 43.5 43t43.5 -37.5t19 -79.5v-557q0 -73 14.5 -217t14.5 -217q0 -150 130 -150q146 0 146 1101v115l-1 34q0 24 11 36t38.5 12t41.5 -9q13 -8 19 -24q8 -25 9 -66l-14 -206z" />
    <glyph glyph-name="uni0216" unicode="&#x216;" horiz-adv-x="699" 
d="M39 0zM478 1798l-5 -17q9 -31 9 -42.5t-16.5 -27t-44.5 -15.5q-51 0 -51 77q0 22 -14.5 58t-32.5 36h-43q-32 -23 -49 -105q-16 -75 -60 -75l-38 32q-1 93 27 146q50 97 136 97t127 -55q19 -25 55 -109zM52 1115l2 320q-15 17 -15 42t17.5 44t41.5 19q74 0 74 -146
l19 -712q12 -27 20.5 -109t8.5 -127.5t14.5 -112t40 -134.5t69 -116t82.5 -48t58 18.5t26 52.5q11 54 11 113v400q0 65 -13 193t-13 193v14l-4 119l-15 351q0 25 25 40.5t52 15.5l50 -48v-34l-15 -125q0 -171 18.5 -515t18.5 -465.5t-3.5 -162t-15.5 -86.5t-33 -76
q-49 -70 -150 -70q-125 -1 -201 109q-80 116 -112 278q-38 191 -46 335q-12 217 -12 430z" />
    <glyph glyph-name="uni0217" unicode="&#x217;" horiz-adv-x="641" 
d="M54 0zM464 1602l-5 -17q9 -31 9 -42.5t-16.5 -27t-44.5 -15.5q-51 0 -51 77q0 22 -14.5 58t-32.5 36h-43q-32 -23 -49 -105q-16 -75 -60 -75l-38 32q-1 93 27 146q50 97 136 97t127 -55q19 -25 55 -109zM560 913l2 -35q0 -909 -264 -909q-102 -1 -151 83q-51 86 -62 171
q-17 131 -19.5 300.5t-2.5 489.5l-9 293q19 43 43.5 43t43.5 -37.5t19 -79.5v-557q0 -73 14.5 -217t14.5 -217q0 -150 130 -150q146 0 146 1101v115l-1 34q0 24 11 36t38.5 12t41.5 -9q13 -8 19 -24q8 -25 9 -66l-14 -206z" />
    <glyph glyph-name="Scommaaccent" unicode="&#x218;" horiz-adv-x="523" 
d="M38 0zM197 -523q-34 0 -34 23l7 37q44 200 114 280q32 36 64 36q4 -4 20 -8q36 -11 36 -33q0 -47 -45 -129.5t-95 -144t-67 -61.5zM38 24q0 55 46 55q23 0 60.5 -15.5t65 -15.5t59.5 35t50 87q37 106 37 191.5t-30 183.5t-73 184t-87 172q-104 205 -103 374
q-1 160 101 251q54 48 127 48q37 0 72 -20.5t49 -53.5l-35 -44q-51 0 -80 20q-38 -4 -66 -36q-51 -59 -51 -145.5t22 -168.5t55 -147t71 -141q39 -76 72 -146q77 -162 77 -350q1 -132 -67 -254q-32 -58 -88 -95.5t-125 -37.5q-74 0 -116.5 22t-42.5 47z" />
    <glyph glyph-name="scommaaccent" unicode="&#x219;" horiz-adv-x="445" 
d="M49 0zM161 -506q-34 0 -34 23l7 37q44 200 114 280q32 36 64 36q4 -4 20 -8q36 -11 36 -33q0 -47 -45 -129.5t-95 -144t-67 -61.5zM72 86l85 -15q39 0 68 34t43 85q27 98 27 173.5t-25 149.5t-61.5 137.5t-72.5 129.5q-86 156 -86 306q0 92 31 163q58 132 154 132
q36 0 68.5 -23t32.5 -50q0 -47 -50 -47q-22 0 -43 12q-65 -3 -88 -145q-5 -31 -5 -72.5t18 -102.5t45.5 -108.5t59 -105t59.5 -111.5q64 -125 63 -286q1 -124 -57 -237q-28 -56 -79.5 -91.5t-117.5 -36.5v-5q-84 12 -92 79z" />
    <glyph glyph-name="uni021A" unicode="&#x21a;" horiz-adv-x="492" 
d="M21 0zM243 -492q-34 0 -34 23l7 37q44 200 114 280q32 36 64 36q4 -4 20 -8q36 -11 36 -33q0 -47 -45 -129.5t-95 -144t-67 -61.5zM321 1189l-4 -264l18 -471l17 -368q0 -100 -59 -100q-34 0 -50 32t-16 71l16 327q0 106 -14 319t-14 319l3 179q0 147 -19 191l-111 -11
q-26 0 -46.5 15.5t-20.5 40t49 41.5q50 18 120 26q123 14 207 14q25 0 45.5 -16.5t20.5 -41.5t-18 -39.5t-44 -14.5l-73 4q-14 0 -21 -1q14 -118 14 -252z" />
    <glyph glyph-name="uni021B" unicode="&#x21b;" horiz-adv-x="493" 
d="M23 0zM234 -472q-34 0 -34 23l7 37q44 200 114 280q32 36 64 36q4 -4 20 -8q36 -11 36 -33q0 -47 -45 -129.5t-95 -144t-67 -61.5zM257 33l-4 157q0 1 3 70q-8 26 -32.5 462t-26.5 533h-8q-166 3 -166 61q0 19 22 31.5t43 12.5l278 -19l33 1q64 0 64 -49q0 -25 -21 -40.5
t-47 -15.5l-94 14l-4 -21q0 -194 34 -581t34 -582q0 -24 -22 -42.5t-48 -18.5z" />
    <glyph glyph-name="uni0237" unicode="&#x237;" horiz-adv-x="520" 
d="M331 1208l21 -826v-224q-25 -42 -39 -147q-15 -105 -31 -155q-36 -110 -176 -110h-24l-61 61l-2 19q0 19 36 48q51 41 126 80q59 70 59 233l-18 1046l-5 9q-22 0 -60 7t-49 12q-12 5 -24 12q-24 14 -24 36.5t23 36t54.5 13.5t111.5 -10t161.5 -36.5t81.5 -59.5
q0 -22 -16.5 -35t-38.5 -13t-60 9.5t-45 10.5z" />
    <glyph glyph-name="circumflex" unicode="&#x2c6;" horiz-adv-x="516" 
d="M159 924.5q-12 -13.5 -25.5 -13.5t-27 19t-13.5 50.5t33 123t81.5 173.5t83.5 82t83.5 -157t48.5 -238q0 -24 -18.5 -40.5t-41.5 -16.5q-55 1 -77 189q-10 86 -13 97q0 -6 -15.5 -48.5t-27 -74.5t-23 -58t-24 -50t-24.5 -37.5z" />
    <glyph glyph-name="caron" unicode="&#x2c7;" horiz-adv-x="498" 
d="M404 1320l-15 -31v-37l-29 -112q-29 -112 -29 -146q0 -66 -52 -66q-40 0 -112.5 166t-72.5 223q0 16 15 27.5t34 11.5q43 0 101 -211l27 -94q4 22 9 69t10 84q6 37 14 76q18 83 57 83q18 0 30.5 -11.5t12.5 -31.5z" />
    <glyph glyph-name="breve" unicode="&#x2d8;" horiz-adv-x="576" 
d="M458 1032v-1q-52 -133 -108 -154q-26 -10 -75 -10t-89 37q-72 65 -72 196v10l38 32q46 0 60 -75q15 -81 48 -105h44q14 0 30 32t16 52t1 31t6 26.5t17.5 22.5t33.5 7t37.5 -15.5t16.5 -28.5t-8 -41z" />
    <glyph glyph-name="dotaccent" unicode="&#x2d9;" horiz-adv-x="355" 
d="M123.5 124.5q-20.5 22.5 -20.5 52t23 53.5t53 24t52 -24t22 -55.5t-23 -52t-54.5 -20.5t-52 22.5z" />
    <glyph glyph-name="ring" unicode="&#x2da;" horiz-adv-x="685" 
d="M143.5 566.5q63.5 67.5 168.5 67.5q97 0 144 -23t70.5 -42.5t37.5 -40.5q14 -22 24 -46q18 -43 18 -78.5t-7 -69.5t-27 -76q-19 -42 -50 -76q-74 -80 -210 -80q-150 0 -205 141q-27 69 -27 162.5t63.5 161zM410.5 553q-39.5 12 -87.5 12t-82 -21q-33 -21 -51 -57
q-34 -69 -34 -158q0 -48 50.5 -99t104 -51t89 11.5t58.5 30.5t40 41q16 22 24 48q16 51 16 77.5t-6 48t-21 45.5t-38 42t-62.5 30z" />
    <glyph glyph-name="ogonek" unicode="&#x2db;" horiz-adv-x="427" 
d="M187 -301q40 0 86 33l14 -34q0 -27 -38 -45.5t-74 -18.5t-60.5 32t-24.5 75q0 82 56 156t136 123l55 -27q-12 -8 -31.5 -25.5t-37.5 -33t-24.5 -22.5t-21 -22.5t-21 -25.5t-16.5 -26t-14 -28q-11 -34 -11 -72.5t27 -38.5z" />
    <glyph glyph-name="tilde" unicode="&#x2dc;" horiz-adv-x="675" 
d="M478 1210q11 13 37.5 13t43.5 -16t17 -37q0 -53 -39.5 -92.5t-93 -39.5t-89.5 14q-34 14 -48 30q-36 44 -80 43q-29 -11 -24 -39t-29 -40q-31 0 -52.5 15t-21.5 54t40 74t108 35q25 0 89 -41.5t84 -41.5t30.5 13t13.5 28t14 28z" />
    <glyph glyph-name="hungarumlaut" unicode="&#x2dd;" horiz-adv-x="684" 
d="M150 0v13q2 31 69.5 136.5t141 198t91.5 92.5t33 -11t15 -27q0 -46 -75 -141.5t-159.5 -173.5t-115.5 -87zM428 13q-20 -1 -20 25t86 124.5t181 188t117 89.5t39 -14.5t23 -33.5q-19 -50 -192 -197.5t-234 -181.5z" />
    <glyph glyph-name="uni0307" unicode="&#x307;" horiz-adv-x="384" 
d="M140.5 1412.5q-20.5 22.5 -20.5 52t23 53.5t53 24t52 -24t22 -55.5t-23 -52t-54.5 -20.5t-52 22.5z" />
    <glyph glyph-name="uni030F" unicode="&#x30f;" horiz-adv-x="997" 
d="M532 8q-310 290 -315 296l-19 34q6 21 22.5 36.5t35.5 15.5t91.5 -80t138.5 -168.5t66 -111t-20 -22.5zM516 331q0 11 17 20t36.5 9t118.5 -154t102 -193l-13 -21q-109 103 -185 203.5t-76 135.5z" />
    <glyph glyph-name="uni0311" unicode="&#x311;" horiz-adv-x="575" 
d="M458 978l-5 -17q9 -31 9 -42.5t-16.5 -27t-44.5 -15.5q-51 0 -51 77q0 22 -14.5 58t-32.5 36h-43q-32 -23 -49 -105q-16 -75 -60 -75l-38 32q-1 93 27 146q50 97 136 97t127 -55q19 -25 55 -109z" />
    <glyph glyph-name="uni0326" unicode="&#x326;" horiz-adv-x="462" 
d="M151 -550q-34 0 -34 23l7 37q44 200 114 280q32 36 64 36q4 -4 20 -8q36 -11 36 -33q0 -47 -45 -129.5t-95 -144t-67 -61.5z" />
    <glyph glyph-name="endash" unicode="&#x2013;" horiz-adv-x="924" 
d="M760 636l-563 10q-82 0 -82 45q0 21 12.5 33.5t33.5 12.5h171l195 4q281 0 281 -58q0 -21 -13.5 -34t-34.5 -13z" />
    <glyph glyph-name="emdash" unicode="&#x2014;" horiz-adv-x="1162" 
d="M325 677l-78 -3q-123 0 -123 59q0 21 12.5 33.5t33.5 12.5h477l152 3q239 0 239 -57q0 -52 -172 -52l-173 7z" />
    <glyph glyph-name="quoteleft" unicode="&#x2018;" horiz-adv-x="354" 
d="M91 1081q-21 0 -21 65t36 174.5t82 183t74 73.5q22 1 22 -41t-14 -115t-37 -150.5t-61.5 -133.5t-80.5 -56z" />
    <glyph glyph-name="quoteright" unicode="&#x2019;" horiz-adv-x="349" 
d="M90 1081q-18 4 -18 38t21 137t62.5 207.5t85.5 104.5q37 0 37 -45q0 -87 -30 -191.5t-75 -177.5t-83 -73z" />
    <glyph glyph-name="quotesinglbase" unicode="&#x201a;" horiz-adv-x="349" 
d="M90 -333q-18 4 -18 38t21 137t62.5 207.5t85.5 104.5q37 0 37 -45q0 -87 -30 -191.5t-75 -177.5t-83 -73z" />
    <glyph glyph-name="quotedblleft" unicode="&#x201c;" horiz-adv-x="559" 
d="M90 1081q-21 0 -21 65t36 174.5t82 183t74 73.5q22 1 22 -41t-14 -115t-37 -150.5t-61.5 -133.5t-80.5 -56zM514 1578q18 -4 18 -38t-21 -136.5t-62.5 -207.5t-85.5 -105q-38 0 -38 45q0 87 30.5 191.5t75.5 177.5t83 73z" />
    <glyph glyph-name="quotedblright" unicode="&#x201d;" horiz-adv-x="560" 
d="M521 1578q21 0 21 -65t-36 -174.5t-82 -183t-74 -73.5q-22 0 -22 41q17 72 34.5 173.5t29.5 147.5q13 48 28 74q34 60 101 60zM87 1081q-18 4 -18 38t21 137t62.5 207.5t85.5 104.5q37 0 37 -45q0 -87 -30 -191.5t-75 -177.5t-83 -73z" />
    <glyph glyph-name="quotedblbase" unicode="&#x201e;" horiz-adv-x="660" 
d="M565 126q21 0 21 -65t-36 -174.5t-82 -183t-74 -73.5q-22 0 -22 42t14 114.5t37 150t61.5 133.5t80.5 56zM121 -371q-18 4 -18 38t21 137t62.5 207.5t85.5 104.5q37 0 37 -45q0 -87 -30 -191.5t-75 -177.5t-83 -73z" />
    <glyph glyph-name="dagger" unicode="&#x2020;" horiz-adv-x="853" 
d="M367 -46l-13 431l-13 199v15l-114 -9q-87 0 -87 65q0 21 12.5 37t33.5 16l121 -7q26 0 47 4l-12 150q0 113 66 113q23 0 37.5 -17t14.5 -42v-25q0 -183 6 -183l140 8q106 0 106 -62q0 -24 -17 -40t-41 -16l-121 11q-65 0 -65 -6q0 -139 16 -338t16 -300
q0 -25 -20.5 -40.5t-45.5 -15.5t-46 14.5t-21 37.5z" />
    <glyph glyph-name="daggerdbl" unicode="&#x2021;" horiz-adv-x="853" 
d="M367 274l-13 111l-13 199v15l-114 -9q-87 0 -87 65q0 21 12.5 37t33.5 16l121 -7q26 0 47 4l-12 150q0 113 66 113q23 0 37.5 -17t14.5 -42v-25q0 -183 27 -183l119 8q106 0 106 -62q0 -24 -17 -40t-41 -16l-121 11q-65 0 -65 -6q0 -56 11 -191t21 -135l119 8
q106 0 106 -62q0 -24 -17 -40t-41 -16l-121 11q-65 0 -65 -9l19 -204q0 -25 -20.5 -40.5t-45.5 -15.5t-46 14.5t-21 37.5l-13 199v15l-114 -9q-87 0 -87 65q0 21 12.5 37t33.5 16l121 -7q26 0 47 4z" />
    <glyph glyph-name="bullet" unicode="&#x2022;" horiz-adv-x="637" 
d="M106 665l-1 62q0 96 69 193q10 21 57.5 56t69.5 35q67 0 116.5 -23.5t73.5 -61.5q46 -72 46 -147q0 -126 -65 -215q-57 -79 -149.5 -79t-154.5 61t-62 119z" />
    <glyph glyph-name="ellipsis" unicode="&#x2026;" horiz-adv-x="936" 
d="M713.5 -9.5q-20.5 22.5 -20.5 52t23 53.5t53 24t52 -24t22 -55.5t-23 -52t-54.5 -20.5t-52 22.5zM418.5 -9.5q-20.5 22.5 -20.5 52t23 53.5t53 24t52 -24t22 -55.5t-23 -52t-54.5 -20.5t-52 22.5zM123.5 -9.5q-20.5 22.5 -20.5 52t23 53.5t53 24t52 -24t22 -55.5t-23 -52
t-54.5 -20.5t-52 22.5z" />
    <glyph glyph-name="guilsinglleft" unicode="&#x2039;" horiz-adv-x="524" 
d="M360 1447l7 -1l45 -35q-18 -134 -140 -374q-118 -232 -118 -335q0 -15 137.5 -292t173.5 -341l26 -20q-2 -27 -15.5 -49t-38.5 -22l-44 4q-107 163 -216.5 408.5t-139.5 307.5q2 56 106 282t111.5 252.5t14.5 56t14 51.5t19 50q24 58 58 57z" />
    <glyph glyph-name="guilsinglright" unicode="&#x203a;" horiz-adv-x="523" 
d="M126 -19l-38 -4q-25 0 -39 22.5t-15 49.5l25 20q40 75 175 347t135 286q-1 102 -91 280q-38 74 -74 147q-90 177 -92 282l45 35l10 -2q42 -20 60 -62q16 -39 24 -76t17 -69t113 -256t106 -283l-357 -717h-4z" />
    <glyph glyph-name="fraction" unicode="&#x2044;" horiz-adv-x="512" 
d="M37 30q0 136 65.5 407t152 579.5t99 373.5t15.5 80.5t4.5 22.5t6 20.5t10.5 20.5q15 19 35 19t36.5 -14t16.5 -40t-6 -57q-8 -31 -20 -72q-48 -158 -247 -1078q-2 -7 -10.5 -54.5t-16.5 -85.5q-9 -38 -23 -84q-30 -98 -72 -99h-8q-38 24 -38 61z" />
    <glyph glyph-name="uni2074" unicode="&#x2074;" horiz-adv-x="480" 
d="M89 0zM269 587l19 573q0 21 18 33.5t35 12.5l32 -36v-98q0 -319 -4 -476l59 5q61 0 61 -44q0 -50 -82 -50q-33 0 -33 -18q0 -69 5.5 -190t15.5 -144q-4 -24 -4 -44t9 -35v-37q0 -77 -48 -77q-31 0 -48 32t-17 65v7q11 38 11 74l-15 199l2 89q0 35 -4 63l-112 -11v-1
q-38 0 -80 33q0 46 9 79q-9 48 -9 116.5t15.5 209.5t15.5 207v379q0 20 7 30t31 10t43 -14t19 -37l-9 -159l-1 -37q0 -21 4 -37v-7q6 -54 6 -125t-14.5 -244.5t-14.5 -228.5t3 -78q35 1 75 11z" />
    <glyph glyph-name="Euro" unicode="&#x20ac;" horiz-adv-x="649" 
d="M159 879l65 1q137 0 137 -28q0 -19 -14 -31q-50 -6 -188 -10l5 -86q143 2 190 6q14 -12 14 -31q0 -48 -158 -48l-40 1q36 -445 69 -493q46 -67 141 -67t145 59q35 0 65 10l27 -27q0 -103 -117 -147q-58 -21 -118.5 -21t-99 14t-66 37t-50 59t-37 72.5t-26 85t-17.5 89
t-10 92.5t-6 88q-5 107 -6 150l-79 3q-13 11 -13 30q0 37 72 37h16l-4 84h-72q-19 7 -19 30q1 22 7 29q9 10 38 10h45l-2 161q0 109 14 188q-6 33 -6 63q0 126 94 201t232 75q49 0 96 -27.5t47 -72.5q0 -22 -17 -34t-38.5 -12t-56 14.5t-61 14.5t-58.5 -9.5t-53 -24t-36 -40
t-22.5 -48t-11.5 -58.5q-6 -55 -6 -171t-11 -218z" />
    <glyph glyph-name="trademark" unicode="&#x2122;" horiz-adv-x="1037" 
d="M324 1369l13 -488q0 -95 -5 -162l8 -28q0 -44 -69 -62l-54 28q11 34 11 82v48l-10 411l6 202q0 47 -4 84q-81 -9 -94 -9q-82 0 -82 45v13l23 41q245 21 315 21l65 -4l39 -39v-5q2 20 28.5 44.5t43 24.5t28.5 -8q16 -10 36 -33q-4 -13 -4 -53.5t47 -197.5t52 -195
q69 193 117 419q11 51 18.5 60t15.5 17q14 14 39 14t42 -15t17 -37l-22 -434q0 -61 7 -183.5t7 -183.5l1 7v-8q0 -115 -34 -145q-17 -16 -41.5 -15.5t-40 13.5t-15.5 35l12 235q0 44 -3.5 124.5t-4.5 106.5q-4 -12 -13 -32q-18 -40 -18 -71l-5 -9q-10 -113 -49 -161
q-17 -21 -39 -21q-69 -1 -112 277q-19 122 -22 132q-4 -86 -4 -258l12 -203q0 -172 -77 -172q-48 0 -48 69l13 220l-2 279q0 200 15 340q-12 -44 -96 -44l-58 2q-5 -49 -5 -118z" />
    <glyph glyph-name="minus" unicode="&#x2212;" horiz-adv-x="684" 
d="M571 600l-432 -10q-82 0 -82 65q0 21 12.5 33.5t33.5 12.5h301l126 7q99 0 99 -61q0 -47 -58 -47z" />
    <glyph glyph-name="Gcommaaccent" horiz-adv-x="727" 
d="M51 0zM271 -550q-34 0 -34 23l7 37q44 200 114 280q32 36 64 36q4 -4 20 -8q36 -11 36 -33q0 -47 -45 -129.5t-95 -144t-67 -61.5zM525 371l-80 -8q-70 0 -70 58q0 50 132 65q26 3 57 3t53 -32t22 -85.5t20.5 -174.5t20.5 -163q0 -75 -50.5 -75t-67.5 43v2
q-12 -5 -45 -23q-62 -34 -123 -34q-44 0 -88 18q-94 37 -144 125q-54 93 -71 178t-23 134q-7 50 -11 114q-5 81 -5 195l-1 151q0 198 13 284t26.5 141t31.5 97.5t44 82.5q26 41 60 67q73 58 167 57.5t94 -58.5q0 -22 -16 -35t-38 -13l-59 10q-77 -1 -121 -93
q-47 -101 -60 -192t-19 -147q-8 -55 -10 -125q-4 -97 -3 -194l-1 -127q0 -196 17.5 -279t36.5 -132q18 -50 44 -82q85 -65 149 -73q91 0 151 86q-3 182 -33 234z" />
    <glyph glyph-name="Rcommaaccent" horiz-adv-x="548" 
d="M78 0zM201 -550q-34 0 -34 23l7 37q44 200 114 280q32 36 64 36q4 -4 20 -8q36 -11 36 -33q0 -47 -45 -129.5t-95 -144t-67 -61.5zM78 60l8 1201v252q0 24 10 34t52.5 10t86 -20.5t73.5 -54.5q29 -36 50 -80q40 -85 40 -185t-50 -229q-6 -14 -24 -59t-21 -53
q1 -152 77 -395q26 -82 74 -224.5t60 -180.5v-5q0 -69 -16 -80.5t-34 -11.5q-38 0 -74 55v7q-10 186 -128 563q-54 172 -75 255v-807q0 -31 -11 -48t-40 -17t-43.5 16.5t-14.5 40.5v16zM191 1463l-11 -418q0 -63 2 -94q35 33 69 79l32 177q3 14 3 32q0 49 -20 119
q-28 96 -75 105z" />
    <glyph glyph-name="foundryicon" horiz-adv-x="1251" 
d="M975 106q0 -34 -33 -34q-26 0 -144 152q-44 56 -99 103.5t-95 47.5h-12q-83 -70 -195 -154q-5 -4 -36 -34q-74 -72 -102 -72t-28 26q0 11 6.5 25t14.5 50t52 156l52 148l-38 48q-43 50 -181 167q-10 9 -43 27q-76 43 -76 78q0 30 39 30q3 0 41 -6q115 -16 181 -16l190 -8
l94 235q10 15 25.5 59.5t33.5 72.5t38 28t37.5 -17t17.5 -30q0 -69 53 -293l10 -47q87 -6 203 -6l190 6q54 0 54 -41q0 -11 -45.5 -39t-59.5 -40t-64 -64q-101 -104 -175 -142v-12q0 -40 19.5 -99.5t21.5 -66.5q6 -1 29.5 -108.5t23.5 -129.5z" />
    <glyph glyph-name="commaaccent" horiz-adv-x="462" 
d="M151 -550q-34 0 -34 23l7 37q44 200 114 280q32 36 64 36q4 -4 20 -8q36 -11 36 -33q0 -47 -45 -129.5t-95 -144t-67 -61.5z" />
    <glyph glyph-name="Dcroat" horiz-adv-x="653" 
d="M36 0zM225 994l144 4q208 0 208 -55q0 -45 -66 -45l-148 -4q-228 0 -228 56q0 44 90 44zM211 310v-196q77 50 134 139.5t87 195.5q56 203 56 405q0 232 -58 366q-59 138 -146 182q-54 28 -122 27v-2q0 -185 24.5 -557t24.5 -560zM588 754l5 -43q1 -145 -77 -342
q-88 -225 -208 -319q-68 -54 -140 -55q-38 0 -69 17.5t-31 52.5q45 47 45 241q0 114 -19 339t-19 337l6 224q0 54 -22.5 145.5t-22.5 129.5q0 71 157 71h31q209 0 303 -234q66 -163 66 -450v-95q-5 -9 -5 -19z" />
    <glyph glyph-name="dslash" horiz-adv-x="1707" 
 />
    <glyph glyph-name=".ttfautohint" horiz-adv-x="1707" 
d="M0 0z" />
    </font>
</defs>
</svg>
